<svg width="1920" height="648" viewBox="0 0 1920 648" fill="none" xmlns="http://www.w3.org/2000/svg">
<g filter="url(#filter0_df_1_110)">
<path d="M881.603 288.921C881.603 288.921 884.822 345.313 845.117 344.722L842.655 365.074L791.904 358.928L803.922 259.732L879.342 254.492L881.603 288.921Z" fill="#FFCEC8"/>
<path d="M786.086 299.888C785.795 302.416 786.26 304.973 787.422 307.237C788.584 309.501 790.392 311.37 792.616 312.608C794.84 313.846 797.381 314.398 799.919 314.193C802.457 313.989 804.877 313.037 806.874 311.459C808.871 309.881 810.355 307.746 811.14 305.326C811.924 302.905 811.973 300.306 811.28 297.858C810.588 295.409 809.185 293.221 807.248 291.569C805.312 289.917 802.929 288.875 800.401 288.575C797.003 288.182 793.587 289.152 790.903 291.273C788.219 293.394 786.487 296.492 786.086 299.888Z" fill="#FFCEC8"/>
<path d="M845.117 344.722C845.117 344.722 827.274 342.405 815.839 330.329C815.839 330.329 819.245 346.378 844.152 352.689L845.117 344.722Z" fill="#FFB1A8"/>
<path d="M862.407 260.984C862.407 260.984 845.586 296.153 801.921 289.108C801.921 289.108 794.533 285.941 789.435 294.491C789.435 294.491 752.545 268.95 770.093 217.243C770.093 217.243 842.101 145.206 889.978 212.839C890.754 213.68 891.475 214.57 892.138 215.502C901.197 227.808 901.881 244.403 894.428 257.745L892.902 260.48C892.902 260.48 908.923 287.15 882.101 294.088C882.108 294.088 864.725 280.904 862.407 260.984Z" fill="#FF7867"/>
<path d="M770.079 217.229C770.079 217.229 742.615 231.291 724.923 210.032C721.762 206.233 720.603 197.043 722.893 192.638C724.448 189.594 727.696 186.816 734.198 186.003C734.198 186.003 723.786 181.923 725.038 163.341C726.407 143.047 740.714 126.085 759.998 119.594C777.28 113.764 800.322 112.771 820.664 134.267C820.664 134.267 840.272 156.972 822.378 186.291C822.378 186.284 789.989 199.684 770.079 217.229Z" fill="#FF7867"/>
<path d="M820.621 187.5C831.105 181.916 842.41 180.131 853.557 181.074C864.703 182.016 875.62 185.737 886.802 189.709C877.533 181.852 866.091 177 853.996 175.798C847.86 175.274 841.68 175.968 835.814 177.842C830.003 179.764 824.545 182.981 820.621 187.5Z" fill="#FF7867"/>
<path d="M823.278 186.586C829.362 182.35 834.455 176.845 838.205 170.451C841.805 164.025 844.196 156.159 842.374 148.761C840.116 155.402 837.19 161.796 833.64 167.846C830.284 173.855 826.201 179.67 823.278 186.586ZM850.266 288.626C849.467 289.611 846.097 288.266 842.403 288.676C838.695 288.863 835.584 290.727 834.633 289.878C833.575 289.158 836.297 284.473 842.029 283.998C847.76 283.523 851.195 287.755 850.266 288.626ZM873.957 292.684C872.912 293.404 870.032 291.245 866.367 290.619C862.767 289.806 859.245 290.763 858.561 289.691C857.74 288.69 861.614 284.934 867.26 286.02C872.905 287.107 875.087 292.073 873.957 292.684Z" fill="#FF7867"/>
<path d="M867.137 300.809C866.965 303.371 865.51 305.365 863.89 305.25C862.27 305.134 861.089 302.975 861.269 300.414C861.449 297.852 862.896 295.858 864.516 295.973C866.137 296.088 867.317 298.247 867.137 300.809ZM845.182 299.32C845.01 301.882 843.548 303.868 841.928 303.76C840.308 303.652 839.134 301.486 839.307 298.917C839.479 296.347 840.934 294.368 842.561 294.484C844.189 294.599 845.355 296.758 845.182 299.32Z" fill="#454545"/>
<path d="M852.779 322.78C852.551 322.761 852.337 322.661 852.175 322.5C852.013 322.338 851.914 322.124 851.894 321.896C851.874 321.668 851.935 321.441 852.067 321.254C852.199 321.066 852.392 320.932 852.613 320.873C854.997 320.29 858.619 318.822 858.835 317.52C858.914 317.045 858.345 316.383 857.287 315.713C850.266 311.287 852.469 299.089 852.563 298.571C852.621 298.329 852.771 298.118 852.98 297.982C853.19 297.847 853.443 297.797 853.689 297.843C853.934 297.889 854.152 298.028 854.298 298.231C854.443 298.433 854.505 298.684 854.471 298.931C854.471 299.046 852.419 310.345 858.324 314.044C860.153 315.202 860.974 316.462 860.75 317.807C860.253 320.837 854.27 322.435 853.074 322.73C852.979 322.761 852.879 322.778 852.779 322.78Z" fill="#FF7867"/>
<path d="M838.472 326.616C838.256 332.092 842.072 336.749 847.113 337.094C852.153 337.439 856.531 333.33 857.057 327.875L838.472 326.616Z" fill="white"/>
<path d="M856.481 330.408C856.755 329.592 856.936 328.747 857.021 327.89L838.472 326.616C838.436 327.475 838.504 328.335 838.673 329.178L856.481 330.408Z" fill="white"/>
<path d="M1017.61 407.829L1015.15 426.626L993.524 421.38L996.599 402.561L1017.61 407.829Z" fill="#FFCEC8"/>
<path d="M987.8 358.756C990.082 357.827 992.718 359.101 993.992 361.771L1001.06 372.566L1011.28 336.799C1011.71 335.23 1013.18 334.503 1014.51 335.273C1015.06 335.658 1015.49 336.192 1015.74 336.814C1016 337.435 1016.07 338.117 1015.95 338.778L1011.77 364.484L1024.59 337.375C1024.7 337.067 1024.89 336.792 1025.13 336.571C1025.38 336.351 1025.67 336.192 1025.99 336.108C1026.3 336.024 1026.64 336.018 1026.96 336.089C1027.28 336.16 1027.58 336.308 1027.83 336.518C1028.38 337.001 1028.77 337.647 1028.94 338.364C1029.11 339.081 1029.05 339.833 1028.76 340.512L1028.68 340.757C1028.74 340.692 1017.04 367.802 1017.04 367.802L1030.1 345.219C1030.21 345.007 1030.36 344.819 1030.54 344.665C1030.72 344.511 1030.93 344.395 1031.15 344.323C1031.38 344.251 1031.62 344.225 1031.86 344.247C1032.09 344.269 1032.32 344.337 1032.53 344.449C1033.12 344.81 1033.57 345.373 1033.78 346.034C1033.99 346.695 1033.95 347.41 1033.68 348.047L1023.25 372.933L1036.69 357.496C1037.51 356.604 1038.22 356.366 1039.14 357.259C1039.34 357.446 1039.5 357.665 1039.62 357.906C1039.85 358.395 1039.96 358.93 1039.94 359.469C1039.92 360.007 1039.77 360.532 1039.5 361.001L1017.65 407.85L996.628 402.583C996.628 402.583 995.577 397.415 994.756 388.679C993.935 379.942 987.8 358.756 987.8 358.756Z" fill="#FFCEC8"/>
<path d="M849.416 651.201L855.803 360.979L785.805 351.343L783.277 651.201H849.416Z" fill="#FF7867"/>
<path d="M622.45 639.507L650.021 604.244L617.726 528.745L716.297 446.165L725.391 536.064C725.391 536.064 676.556 569.736 658.23 651.208H783.278L785.805 351.35L739.98 343.168C734.408 342.193 728.698 342.342 723.185 343.607C717.672 344.871 712.468 347.225 707.879 350.53C676.7 372.508 612.268 426.677 574.205 486.768C569.51 494.173 564.469 511.509 564.469 511.509C561.244 528.04 563.693 545.175 571.418 560.143L622.45 639.507Z" fill="#464646"/>
<path d="M716.297 447.071C716.17 447.07 716.045 447.043 715.93 446.991C715.815 446.939 715.711 446.863 715.627 446.769C715.549 446.682 715.488 446.579 715.45 446.468C715.411 446.357 715.395 446.24 715.403 446.123C715.41 446.006 715.441 445.891 715.493 445.786C715.545 445.681 715.617 445.587 715.706 445.51C715.879 445.351 732.988 429.908 731.325 402.251C731.311 402.016 731.391 401.784 731.547 401.608C731.704 401.431 731.924 401.323 732.16 401.309C732.277 401.298 732.396 401.311 732.508 401.348C732.62 401.384 732.724 401.444 732.812 401.522C732.901 401.6 732.972 401.696 733.022 401.803C733.072 401.909 733.1 402.025 733.103 402.143C734.817 430.706 717.067 446.69 716.887 446.848C716.724 446.992 716.514 447.071 716.297 447.071Z" fill="#333333"/>
<path d="M812.686 650.208C812.595 650.205 812.505 650.188 812.42 650.157C809.158 648.826 808.366 642.666 810.065 631.828C810.065 631.698 812.002 620.536 813.456 617.348C813.219 616.974 812.902 616.557 812.564 616.103C811.303 614.412 809.575 612.095 809.575 609.706C819.203 563.123 818.144 518.641 817.122 475.62C816.301 441.077 815.451 405.303 820.182 368.924C820.243 368.78 820.351 368.659 820.487 368.581C820.624 368.503 820.782 368.472 820.938 368.493C821.094 368.513 821.239 368.584 821.351 368.694C821.462 368.805 821.535 368.949 821.557 369.104C816.834 405.375 817.69 441.07 818.511 475.613C819.534 518.713 820.592 563.274 810.943 609.878C810.943 611.663 812.463 613.685 813.673 615.305C814.112 615.895 814.508 616.427 814.781 616.881C814.81 616.928 814.832 616.979 814.846 617.032C814.88 617.148 814.884 617.271 814.857 617.389C814.831 617.508 814.775 617.617 814.695 617.708C813.888 619.673 808.704 639.823 811.311 646.869C811.425 647.304 811.629 647.71 811.911 648.061C812.192 648.412 812.545 648.699 812.945 648.905C813.11 648.98 813.241 649.114 813.312 649.28C813.383 649.447 813.388 649.634 813.327 649.805C813.268 649.925 813.177 650.026 813.064 650.097C812.951 650.168 812.82 650.207 812.686 650.208ZM816.963 398.056C816.963 398.874 816.72 399.674 816.265 400.355C815.811 401.035 815.164 401.566 814.407 401.879C813.651 402.192 812.818 402.274 812.015 402.114C811.212 401.955 810.474 401.561 809.895 400.982C809.316 400.403 808.922 399.666 808.762 398.863C808.602 398.06 808.684 397.228 808.998 396.472C809.311 395.716 809.842 395.07 810.522 394.615C811.203 394.161 812.004 393.918 812.823 393.918C813.921 393.918 814.974 394.354 815.751 395.13C816.527 395.906 816.963 396.958 816.963 398.056Z" fill="white"/>
<path d="M815.206 485.854C815.204 486.672 814.96 487.471 814.504 488.15C814.049 488.83 813.402 489.359 812.645 489.671C811.888 489.983 811.056 490.064 810.253 489.904C809.451 489.743 808.713 489.349 808.135 488.77C807.557 488.191 807.163 487.453 807.004 486.651C806.845 485.848 806.927 485.017 807.241 484.261C807.554 483.505 808.085 482.86 808.766 482.405C809.447 481.951 810.247 481.708 811.065 481.708C811.61 481.708 812.149 481.816 812.651 482.024C813.154 482.232 813.611 482.538 813.996 482.923C814.38 483.308 814.685 483.765 814.893 484.268C815.1 484.771 815.207 485.31 815.206 485.854ZM812.794 578.732C812.794 579.55 812.551 580.35 812.096 581.031C811.641 581.711 810.994 582.242 810.238 582.555C809.481 582.868 808.649 582.95 807.845 582.79C807.042 582.631 806.304 582.237 805.725 581.658C805.146 581.079 804.752 580.342 804.592 579.539C804.432 578.736 804.515 577.904 804.828 577.148C805.141 576.392 805.672 575.746 806.353 575.291C807.034 574.837 807.834 574.594 808.653 574.594C809.751 574.594 810.804 575.03 811.581 575.806C812.357 576.582 812.794 577.634 812.794 578.732Z" fill="white"/>
<path d="M658.223 651.179L664.034 631.85L676.059 639.334C676.384 639.529 676.771 639.593 677.142 639.515C677.513 639.437 677.84 639.222 678.059 638.913C678.279 638.604 678.373 638.224 678.324 637.848C678.275 637.473 678.086 637.129 677.794 636.887L665.618 627.165C665.435 627.016 665.306 626.812 665.25 626.583C665.194 626.355 665.215 626.114 665.308 625.898C665.368 625.764 665.455 625.643 665.563 625.544C665.672 625.444 665.8 625.369 665.939 625.321C666.079 625.274 666.226 625.256 666.373 625.269C666.52 625.281 666.662 625.324 666.792 625.394L679.861 632.591C680.182 632.772 680.559 632.827 680.919 632.748C681.279 632.668 681.597 632.458 681.812 632.159C682.027 631.859 682.124 631.491 682.084 631.124C682.044 630.758 681.871 630.419 681.596 630.173L668.635 618.263C668.42 618.063 668.285 617.792 668.257 617.5C668.229 617.208 668.31 616.916 668.483 616.68C668.657 616.443 668.911 616.279 669.198 616.218C669.485 616.157 669.784 616.203 670.039 616.348L684.037 624.502C684.456 624.739 684.948 624.812 685.418 624.708C685.888 624.603 686.302 624.328 686.58 623.936C686.859 623.544 686.982 623.062 686.926 622.585C686.87 622.107 686.639 621.667 686.277 621.35L673.949 610.879C673.915 610.847 673.894 610.806 673.887 610.76C673.881 610.715 673.89 610.668 673.914 610.629C673.937 610.589 673.973 610.559 674.017 610.543C674.06 610.527 674.107 610.526 674.151 610.541L687.501 615.377C687.906 615.533 688.357 615.526 688.757 615.358C689.158 615.19 689.479 614.873 689.651 614.475C689.824 614.076 689.836 613.626 689.685 613.219C689.534 612.812 689.231 612.479 688.84 612.289L670.5 602.934C669.92 602.625 669.284 602.437 668.629 602.381C667.974 602.325 667.315 602.403 666.691 602.608C666.067 602.814 665.492 603.144 664.999 603.579C664.506 604.013 664.107 604.543 663.825 605.136L655.004 623.775L645.434 610.102L630.464 629.309L654.464 651.179H658.223Z" fill="#FFCEC8"/>
<path d="M929.395 651.179C919.005 590.124 894.832 552.227 894.832 552.227L906.202 511.48L944.934 555.53C957.672 570.031 976.747 574.587 993.539 567.145C1009.69 559.992 1020.85 543.016 1022.34 523.376L1026.12 413.125L988.002 399.797L968.178 490.157L909.19 393.544C904.644 386.099 897.973 380.184 890.036 376.56L855.804 360.951L849.417 651.179H929.395Z" fill="#464646"/>
<path d="M906.194 512.394C906.061 512.394 905.928 512.364 905.808 512.306C905.687 512.249 905.581 512.164 905.498 512.06C905.414 511.956 905.355 511.834 905.325 511.704C905.294 511.573 905.294 511.438 905.323 511.308C905.445 510.775 917.039 457.053 901.917 392.054C901.864 391.823 901.904 391.58 902.03 391.379C902.155 391.178 902.356 391.035 902.587 390.982C902.818 390.928 903.061 390.969 903.262 391.094C903.463 391.22 903.606 391.42 903.66 391.651C918.875 457.06 907.188 511.157 907.066 511.696C907.021 511.894 906.911 512.071 906.753 512.198C906.594 512.325 906.397 512.394 906.194 512.394ZM964.758 515.626H964.635C964.407 515.585 964.204 515.457 964.07 515.269C963.935 515.08 963.88 514.847 963.915 514.618L967.321 490.042C967.334 489.924 967.371 489.811 967.43 489.708C967.488 489.605 967.567 489.515 967.661 489.444C967.756 489.373 967.863 489.321 967.978 489.293C968.093 489.264 968.212 489.26 968.329 489.279C968.563 489.313 968.775 489.438 968.918 489.626C969.061 489.815 969.123 490.052 969.093 490.287L965.679 514.863C965.649 515.082 965.538 515.282 965.367 515.423C965.196 515.565 964.979 515.637 964.758 515.626ZM1025.3 438.975C1025.21 438.975 1025.12 438.96 1025.03 438.932L987.526 427.418C987.414 427.384 987.309 427.328 987.218 427.254C987.127 427.179 987.052 427.087 986.997 426.984C986.942 426.88 986.909 426.766 986.898 426.649C986.888 426.532 986.9 426.414 986.936 426.302C987.007 426.077 987.164 425.889 987.373 425.779C987.582 425.668 987.826 425.645 988.052 425.712L1025.56 437.227C1025.67 437.26 1025.78 437.316 1025.87 437.39C1025.96 437.465 1026.04 437.557 1026.09 437.66C1026.15 437.764 1026.18 437.877 1026.19 437.994C1026.2 438.112 1026.19 438.23 1026.16 438.342C1026.1 438.524 1025.99 438.684 1025.83 438.798C1025.68 438.912 1025.49 438.974 1025.3 438.975ZM1017.18 429.217C1016.18 429.217 1015.21 428.921 1014.38 428.368C1013.55 427.814 1012.9 427.028 1012.52 426.107C1012.14 425.187 1012.04 424.174 1012.24 423.197C1012.43 422.219 1012.91 421.322 1013.61 420.617C1014.32 419.913 1015.22 419.433 1016.2 419.239C1017.17 419.044 1018.19 419.144 1019.11 419.525C1020.03 419.907 1020.82 420.552 1021.37 421.381C1021.92 422.209 1022.22 423.183 1022.22 424.179C1022.22 425.515 1021.69 426.797 1020.74 427.741C1019.8 428.686 1018.52 429.217 1017.18 429.217ZM1017.18 420.941C1016.54 420.942 1015.91 421.134 1015.38 421.491C1014.84 421.849 1014.43 422.356 1014.18 422.949C1013.94 423.543 1013.88 424.195 1014 424.824C1014.13 425.453 1014.44 426.031 1014.89 426.484C1015.35 426.937 1015.93 427.246 1016.56 427.37C1017.18 427.495 1017.84 427.43 1018.43 427.184C1019.02 426.939 1019.53 426.523 1019.89 425.989C1020.24 425.455 1020.43 424.828 1020.43 424.187C1020.43 423.325 1020.09 422.5 1019.48 421.891C1018.87 421.283 1018.04 420.941 1017.18 420.941ZM623.012 626.251C622.015 626.251 621.04 625.955 620.211 625.402C619.382 624.848 618.736 624.061 618.355 623.141C617.973 622.22 617.873 621.207 618.068 620.23C618.262 619.253 618.742 618.355 619.447 617.651C620.152 616.946 621.05 616.467 622.028 616.272C623.006 616.078 624.019 616.178 624.94 616.559C625.861 616.94 626.649 617.586 627.203 618.414C627.756 619.243 628.052 620.217 628.052 621.213C628.052 622.549 627.521 623.83 626.576 624.775C625.63 625.72 624.348 626.251 623.012 626.251ZM623.012 617.975C622.369 617.975 621.741 618.165 621.207 618.522C620.673 618.878 620.257 619.385 620.011 619.978C619.765 620.571 619.701 621.224 619.826 621.853C619.952 622.483 620.261 623.061 620.715 623.515C621.169 623.969 621.748 624.278 622.378 624.404C623.008 624.529 623.661 624.465 624.254 624.219C624.848 623.973 625.355 623.557 625.712 623.023C626.069 622.49 626.259 621.862 626.259 621.22C626.259 620.359 625.917 619.534 625.308 618.925C624.699 618.317 623.873 617.975 623.012 617.975ZM613.579 615.348C613.364 615.349 613.157 615.272 612.995 615.132C612.816 614.977 612.705 614.759 612.686 614.523C612.668 614.287 612.742 614.054 612.894 613.873L640.048 582.287C640.203 582.107 640.423 581.995 640.66 581.977C640.897 581.959 641.132 582.035 641.312 582.19C641.493 582.344 641.604 582.564 641.622 582.801C641.641 583.038 641.564 583.273 641.409 583.453L614.255 615.038C614.171 615.135 614.067 615.212 613.95 615.266C613.834 615.319 613.707 615.347 613.579 615.348Z" fill="#333333"/>
<path d="M803.605 381.626C803.469 381.627 803.336 381.587 803.224 381.511L783.011 368.19C782.907 368.072 782.845 367.923 782.835 367.766C782.824 367.608 782.865 367.452 782.952 367.321C783.038 367.189 783.166 367.09 783.314 367.038C783.463 366.985 783.625 366.983 783.774 367.032L803.576 380.086L820.03 367.73C820.102 367.674 820.184 367.633 820.272 367.609C820.36 367.586 820.451 367.58 820.542 367.593C820.632 367.606 820.718 367.637 820.796 367.684C820.874 367.731 820.942 367.793 820.995 367.866C821.097 368.015 821.14 368.197 821.115 368.375C821.089 368.554 820.998 368.716 820.858 368.831L804.001 381.489C803.886 381.573 803.748 381.621 803.605 381.626Z" fill="white"/>
<path d="M834.475 383.512C834.378 383.51 834.281 383.489 834.192 383.45C834.103 383.41 834.023 383.353 833.957 383.281L820.995 368.737C820.882 368.597 820.824 368.42 820.835 368.24C820.846 368.06 820.924 367.891 821.053 367.766C821.192 367.649 821.371 367.589 821.553 367.598C821.734 367.608 821.906 367.686 822.032 367.816L834.677 382.029L857.928 373.566C858.083 373.556 858.237 373.597 858.367 373.682C858.497 373.766 858.596 373.891 858.649 374.037C858.702 374.182 858.707 374.341 858.663 374.49C858.619 374.638 858.528 374.769 858.403 374.861L834.713 383.497C834.635 383.515 834.555 383.52 834.475 383.512Z" fill="white"/>
<path d="M792.408 352.178L817.992 364.247L843.281 359.274L819.202 347.839L792.408 352.178Z" fill="#FFCEC8"/>
<path d="M855.804 360.979L844.427 350.465L843.282 359.274L851.008 362.527L855.804 360.979ZM793.798 342.866L792.711 352.883L785.805 351.343L793.798 342.866Z" fill="#FF7867"/>
<path d="M296.005 651.179L295.731 650.783L306.172 574.673C261.7 590.836 212.505 647.415 212.505 647.415C211.475 648.675 210.539 649.927 209.553 651.179H296.005Z" fill="#333333"/>
<path d="M351.674 352.084L353.215 355.604L360.084 371.285L406.262 380.741L432.178 344.694L426.72 331.841L425.467 328.854L351.674 352.084Z" fill="#FFD3CF"/>
<path d="M310.673 677.212H509.6C553.28 479.847 453.247 365.149 453.247 365.149L438 340.887L421 355.887L408 378.11L383 369.887L358 365.149H342L304 572.887C304 572.887 297.051 602.887 291 631.887C273.473 656.808 297.949 672.117 297.949 672.117L310.673 677.212ZM42.5037 233.668C42.5037 233.668 72.1562 197.297 110.572 214.806L79.573 248.486L42.5037 233.668Z" fill="#545ED7"/>
<path d="M55.0259 221.996L63.4795 245.571L96.3652 234.618L86.9467 211.129L55.0259 221.996Z" fill="#FFCEC8"/>
<path d="M90.2228 153.355C88.364 152.995 86.4376 153.303 84.784 154.225C83.1304 155.147 81.856 156.623 81.1859 158.393L72.6242 173.62L47.8249 129.851C47.5686 129.389 47.2192 128.986 46.7986 128.666C46.378 128.346 45.8955 128.117 45.3817 127.993C44.8679 127.869 44.334 127.853 43.8138 127.946C43.2935 128.04 42.7984 128.24 42.3596 128.534C41.6233 129.053 41.0858 129.806 40.8357 130.671C40.5857 131.536 40.6381 132.46 40.9842 133.291L53.8447 165.402L27.0004 133.226C26.6838 132.842 26.2936 132.525 25.8527 132.293C25.4119 132.062 24.9292 131.92 24.433 131.877C23.9368 131.835 23.437 131.891 22.9629 132.044C22.4888 132.196 22.0499 132.442 21.6719 132.766C20.9286 133.418 20.4619 134.329 20.3669 135.313C20.2719 136.297 20.5558 137.28 21.1607 138.062L21.3695 138.358C21.2543 138.286 46.2912 170.677 46.2912 170.677L20.1742 144.316C19.6578 143.794 18.981 143.461 18.2524 143.37C17.5237 143.278 16.7855 143.434 16.1562 143.812C15.7597 144.048 15.4175 144.365 15.1519 144.742C14.8864 145.118 14.7034 145.547 14.6151 146C14.5267 146.452 14.5349 146.918 14.6392 147.367C14.7434 147.816 14.9414 148.238 15.2201 148.605L37.7223 178.413L12.743 161.293C11.2381 160.314 10.0499 160.149 8.81142 161.473C8.55133 161.737 8.34581 162.05 8.20656 162.394C7.97162 163.073 7.93628 163.806 8.10472 164.505C8.27316 165.204 8.63833 165.84 9.15706 166.338L55.0257 221.996L86.968 211.129C87.1923 205.074 87.0528 199.01 86.5504 192.972C85.7007 181.637 90.2228 153.355 90.2228 153.355Z" fill="#FFCEC8"/>
<path d="M428.484 397.257C428.338 397.257 428.196 397.209 428.081 397.12L405.845 381.288C405.743 381.247 405.653 381.184 405.579 381.104C405.506 381.023 405.452 380.927 405.421 380.822C405.39 380.717 405.384 380.607 405.402 380.499C405.42 380.392 405.463 380.29 405.526 380.201C405.59 380.112 405.673 380.039 405.769 379.987C405.865 379.935 405.971 379.906 406.08 379.901C406.189 379.896 406.298 379.916 406.398 379.959C406.498 380.003 406.587 380.068 406.658 380.151L428.347 395.587L455.904 360.087C456.02 359.945 456.186 359.852 456.368 359.828C456.55 359.804 456.734 359.85 456.883 359.957C457.027 360.075 457.119 360.242 457.142 360.426C457.165 360.609 457.116 360.795 457.006 360.943L429.038 396.976C428.973 397.062 428.889 397.131 428.793 397.18C428.697 397.228 428.591 397.255 428.484 397.257Z" fill="white"/>
<path d="M397.823 405.67C397.748 405.668 397.673 405.656 397.6 405.634L344.704 387.786C344.568 387.7 344.465 387.571 344.411 387.419C344.358 387.267 344.357 387.102 344.408 386.95C344.459 386.797 344.56 386.666 344.695 386.578C344.829 386.49 344.99 386.449 345.15 386.462L397.391 404.087L405.586 380.496C405.651 380.324 405.78 380.183 405.946 380.102C406.112 380.022 406.303 380.009 406.479 380.065C406.651 380.13 406.792 380.259 406.873 380.425C406.953 380.591 406.967 380.781 406.911 380.957L398.486 405.202C398.435 405.338 398.345 405.455 398.227 405.538C398.109 405.622 397.968 405.667 397.823 405.67Z" fill="white"/>
<path d="M397.73 642.5C397.603 642.498 397.479 642.462 397.37 642.397C397.261 642.331 397.172 642.238 397.111 642.126C397.03 641.962 397.014 641.773 397.068 641.598C397.121 641.423 397.24 641.274 397.399 641.183C400.473 639.528 402.533 630.871 404.52 622.472C406.68 613.484 408.697 604.899 412.275 602.157C411.267 601.826 411.03 601.437 410.972 601.07C410.948 600.868 410.992 600.664 411.098 600.491C411.204 600.317 411.365 600.184 411.555 600.113C411.88 599.987 412.231 599.94 412.578 599.976C411.951 599.048 411.31 598.047 410.655 597.018C409.006 594.428 407.3 591.743 405.615 590.074C405.486 589.94 405.414 589.762 405.413 589.577C405.414 589.392 405.486 589.214 405.615 589.081C414.572 580.135 417.633 567.908 420.592 556.084C423.955 488.61 419.152 432.894 405.564 380.878C405.524 380.699 405.554 380.511 405.648 380.353C405.741 380.195 405.892 380.079 406.068 380.029C406.247 379.988 406.434 380.017 406.591 380.109C406.749 380.201 406.866 380.35 406.918 380.525C420.599 432.686 425.359 488.538 421.968 556.286C418.994 568.218 415.948 580.416 407.084 589.584C408.841 591.681 410.428 593.914 411.829 596.263C412.915 598.054 414.1 599.784 415.379 601.444L415.429 601.502C415.515 601.611 415.567 601.742 415.58 601.88C415.593 602.018 415.565 602.156 415.501 602.279V602.315C415.44 602.391 415.367 602.456 415.285 602.509L415.141 602.56C415.073 602.582 415 602.582 414.932 602.56H414.875C410.734 602.56 408.193 613.261 405.946 622.71C403.786 631.792 401.755 640.363 398.126 642.313C398.017 642.415 397.878 642.481 397.73 642.5Z" fill="white"/>
<path d="M401.531 422.819C401.531 423.552 401.749 424.269 402.156 424.878C402.564 425.488 403.143 425.963 403.821 426.243C404.498 426.524 405.244 426.597 405.963 426.454C406.682 426.311 407.343 425.958 407.862 425.44C408.38 424.922 408.734 424.261 408.877 423.542C409.02 422.823 408.946 422.078 408.666 421.401C408.385 420.724 407.91 420.145 407.3 419.738C406.69 419.33 405.973 419.113 405.24 419.113C404.256 419.113 403.313 419.503 402.617 420.198C401.922 420.894 401.531 421.836 401.531 422.819Z" fill="white"/>
<path d="M406.925 491.856C408.973 491.856 410.633 490.196 410.633 488.149C410.633 486.102 408.973 484.443 406.925 484.443C404.877 484.443 403.216 486.102 403.216 488.149C403.216 490.196 404.877 491.856 406.925 491.856Z" fill="white"/>
<path d="M404.902 555.84C406.95 555.84 408.61 554.18 408.61 552.134C408.61 550.087 406.95 548.427 404.902 548.427C402.853 548.427 401.193 550.087 401.193 552.134C401.193 554.18 402.853 555.84 404.902 555.84Z" fill="white"/>
<path d="M385.02 631.943C385.02 632.676 385.238 633.393 385.645 634.002C386.053 634.612 386.632 635.087 387.309 635.367C387.987 635.648 388.733 635.721 389.452 635.578C390.171 635.435 390.832 635.082 391.351 634.564C391.869 634.046 392.223 633.385 392.366 632.666C392.509 631.947 392.435 631.202 392.155 630.525C391.874 629.848 391.399 629.269 390.789 628.862C390.179 628.454 389.462 628.237 388.729 628.237C387.746 628.239 386.804 628.63 386.109 629.325C385.413 630.019 385.022 630.961 385.02 631.943Z" fill="white"/>
<path d="M351.674 352.084L353.215 355.604C358.908 361.143 366.006 365.026 373.744 366.834C381.481 368.642 389.566 368.306 397.127 365.863C404.688 363.42 411.439 358.963 416.653 352.97C421.868 346.978 425.348 339.677 426.72 331.855L425.467 328.868L351.674 352.084Z" fill="#FFB2A9"/>
<path d="M399.645 360.828C404.923 358.571 409.705 355.296 413.716 351.191C417.728 347.086 420.891 342.231 423.026 336.905C425.16 331.578 426.224 325.883 426.156 320.145C426.088 314.408 424.89 308.74 422.63 303.465L405.024 262.365L324.642 296.758L342.248 337.857C346.814 348.508 355.425 356.911 366.188 361.219C376.951 365.527 388.985 365.386 399.645 360.828Z" fill="#FFD3CF"/>
<path d="M417.1 306.718C420.534 313.518 422.947 319.218 429.751 315.785C436.556 312.353 445.183 301.083 441.748 294.282C440.931 292.665 439.803 291.224 438.429 290.042C437.055 288.86 435.461 287.96 433.739 287.394C432.017 286.828 430.2 286.606 428.392 286.741C426.584 286.877 424.821 287.366 423.202 288.183C421.584 289 420.142 290.127 418.96 291.5C417.777 292.873 416.877 294.466 416.31 296.187C415.743 297.908 415.521 299.724 415.657 301.531C415.792 303.338 416.283 305.1 417.1 306.718ZM348.606 334.597C350.767 341.902 352.97 347.695 345.661 349.875C338.353 352.056 324.34 349.803 322.158 342.506C321.108 339.001 321.494 335.222 323.231 332.001C324.968 328.78 327.915 326.381 331.422 325.332C334.929 324.282 338.71 324.667 341.933 326.404C345.155 328.14 347.556 331.085 348.606 334.59V334.597Z" fill="#FFD3CF"/>
<path d="M433.417 287.301C433.417 287.301 438.925 274.549 435.008 260.408C432.74 252.218 424.826 246.619 416.394 247.641L416.02 247.685C416.02 247.685 415.177 219.906 384.517 212.494C353.856 205.081 342.565 241.963 342.565 241.963C340.788 240.602 338.626 239.836 336.388 239.775C334.15 239.715 331.949 240.362 330.101 241.625C330.101 241.625 324.203 244.655 326.731 251.895C326.731 251.895 312.509 243.59 298.59 261.97C281.41 284.754 322.994 333.582 322.994 333.582C322.994 333.582 325.017 323.817 337.143 324.486L327.883 304.789C327.883 304.789 351.969 308.661 356.52 286.798C356.52 286.798 373.032 299.881 386.842 290C401.669 279.392 406.371 298.679 417.971 292.699C418 292.67 423.667 284.639 433.417 287.301Z" fill="#464646"/>
<path d="M631.447 123.315C631.447 123.315 602.133 83.5758 558 105.468C557.993 105.468 590.677 152.274 631.447 123.315Z" fill="#545ED7"/>
<path d="M612.339 115.951L603.893 139.526L571 128.573L580.419 105.084L612.339 115.951Z" fill="#FFCEC8"/>
<path d="M484.758 646.76C484.542 648.238 484.318 649.718 484.088 651.201H550.27C570.122 490.265 539.346 395.206 539.346 395.206L631 122.387C618.5 118.387 611.875 124.468 609 124.887C598.429 126.412 587.374 119.565 580 111.887C564.418 95.644 558 105.887 558 105.887L446.349 336.612L437.247 339.138C522.158 477.024 484.758 646.76 484.758 646.76ZM167 415.887L285.283 470.971C272.588 509.149 207.436 590.728 156.225 651.179H223.53C231.831 642.095 240.918 633.76 250.684 626.272C283.21 601.35 303.48 576.019 303.48 576.019C365.478 492.524 341.219 361.879 341.219 361.879L287.976 376.028L188 339.138L111 214.887C111 214.887 90.6728 208.377 74.5 225.887C58.3272 243.396 43 233.387 43 233.387L127 369.887C133.487 386.148 151.202 408.326 167 415.887Z" fill="#464646"/>
<path d="M625.005 22.5253C625.742 23.0437 626.279 23.7975 626.529 24.6623C626.779 25.5271 626.727 26.4512 626.381 27.2822L613.549 59.3571L640.364 27.2174C640.681 26.8332 641.071 26.516 641.512 26.2844C641.953 26.0528 642.436 25.9114 642.932 25.8685C643.428 25.8256 643.928 25.8821 644.402 26.0346C644.876 26.1872 645.315 26.4327 645.693 26.7569C646.436 27.4091 646.903 28.32 646.998 29.304C647.093 30.2881 646.809 31.2713 646.204 32.0535L645.995 32.3558C646.517 32.0052 647.131 31.818 647.76 31.818C648.388 31.818 649.002 32.0052 649.524 32.3558C650.11 32.7763 650.545 33.3744 650.764 34.0615C650.983 34.7485 650.975 35.4879 650.741 36.1699C643.936 47.7419 636.411 60.8396 629.643 72.3972L654.622 55.2695C656.127 54.2908 657.315 54.1253 658.553 55.4494C658.814 55.7139 659.019 56.0269 659.158 56.3706C659.393 57.05 659.429 57.7825 659.26 58.4814C659.092 59.1802 658.727 59.8163 658.208 60.3143L612.339 115.972L580.418 105.105C580.194 99.0527 580.334 92.9919 580.836 86.9558C581.664 75.6141 577.142 47.3317 577.142 47.3317C579.005 46.9739 580.935 47.2871 582.589 48.2158C584.244 49.1446 585.515 50.6288 586.179 52.4053L594.741 67.6331L619.54 23.8639C619.795 23.4009 620.144 22.996 620.563 22.6745C620.983 22.3531 621.465 22.1222 621.979 21.9964C622.492 21.8706 623.027 21.8526 623.548 21.9437C624.068 22.0347 624.565 22.2328 625.005 22.5253Z" fill="#FFCEC8"/>
<path d="M621.081 65.4094C620.909 65.4099 620.743 65.3543 620.606 65.2511C620.444 65.1247 620.339 64.9395 620.313 64.7359C620.288 64.5324 620.344 64.3269 620.469 64.1644L645.398 31.8232C645.46 31.7429 645.537 31.6755 645.625 31.625C645.713 31.5745 645.81 31.5418 645.91 31.5288C646.011 31.5157 646.113 31.5226 646.211 31.5491C646.309 31.5755 646.401 31.621 646.481 31.6829C646.562 31.7448 646.629 31.8219 646.68 31.9098C646.73 31.9978 646.763 32.0948 646.776 32.1954C646.789 32.2959 646.782 32.3981 646.756 32.496C646.729 32.5939 646.684 32.6856 646.622 32.766L621.693 65.1072C621.621 65.2016 621.529 65.278 621.423 65.3305C621.316 65.3829 621.199 65.41 621.081 65.4094Z" fill="#FF9C91"/>
<path d="M365.204 322.931C365.974 324.824 367.739 325.896 369.143 325.328C370.547 324.759 371.065 322.759 370.295 320.859C369.524 318.959 367.76 317.894 366.349 318.462C364.938 319.031 364.433 321.031 365.204 322.931Z" fill="#464646"/>
<path d="M371.296 330.848L366.01 333.006C363.32 334.093 360.309 334.07 357.636 332.94C354.963 331.811 352.847 329.669 351.753 326.983L348.513 319.016L374.118 308.625L377.359 316.591C378.338 319.003 378.425 321.685 377.604 324.155C376.783 326.626 375.108 328.723 372.88 330.07C372.373 330.369 371.843 330.629 371.296 330.848ZM350.615 319.887L353.244 326.364C354.181 328.652 355.987 330.476 358.265 331.437C360.544 332.399 363.111 332.419 365.406 331.495L370.691 329.336C372.98 328.399 374.805 326.595 375.767 324.317C376.729 322.04 376.75 319.474 375.825 317.181L373.197 310.704L350.615 319.887Z" fill="white"/>
<path d="M390.745 312.561C391.515 314.454 393.28 315.533 394.691 314.958C396.102 314.382 396.606 312.388 395.836 310.496C395.065 308.603 393.301 307.524 391.897 308.092C390.493 308.661 389.96 310.661 390.745 312.561Z" fill="#464646"/>
<path d="M403.641 317.736L398.356 319.894C395.666 320.983 392.653 320.961 389.98 319.831C387.307 318.702 385.191 316.558 384.098 313.871L380.858 305.904L406.428 295.527L409.668 303.494C410.65 305.905 410.739 308.588 409.917 311.059C409.096 313.53 407.42 315.627 405.189 316.973C404.693 317.265 404.176 317.52 403.641 317.736ZM382.961 306.775L385.589 313.252C386.527 315.54 388.332 317.364 390.611 318.325C392.89 319.287 395.457 319.307 397.751 318.383L403.036 316.224C405.325 315.287 407.15 313.483 408.112 311.205C409.074 308.928 409.095 306.362 408.17 304.069L405.542 297.592L382.961 306.775ZM403.216 334.014C404.392 337.299 404.235 340.913 402.78 344.084C401.325 347.255 398.687 349.732 395.43 350.985C392.172 352.239 388.553 352.169 385.346 350.792C382.139 349.415 379.598 346.839 378.266 343.614L403.216 334.014Z" fill="white"/>
<path d="M374.629 306.624L391.94 324.997L382.802 331.805L374.629 306.624Z" fill="#FFCEC8"/>
<path d="M383.22 332.496L383.285 332.452L392.415 325.645C392.507 325.577 392.584 325.491 392.64 325.392C392.695 325.292 392.729 325.182 392.739 325.069C392.75 324.956 392.736 324.843 392.699 324.736C392.662 324.629 392.602 324.531 392.523 324.45L375.241 306.07C375.092 305.93 374.895 305.851 374.689 305.851C374.484 305.851 374.287 305.929 374.137 306.07C373.988 306.21 373.897 306.402 373.884 306.607C373.871 306.811 373.937 307.013 374.068 307.171L390.759 324.896L382.349 331.157C382.171 331.276 382.048 331.461 382.007 331.671C381.966 331.881 382.01 332.099 382.129 332.276C382.248 332.454 382.433 332.576 382.643 332.618C382.853 332.659 383.071 332.615 383.249 332.496H383.22Z" fill="#FF7867"/>
<path d="M355.238 310.618C355.463 310.99 355.82 311.263 356.237 311.384C356.655 311.505 357.102 311.466 357.492 311.273L365.931 307.042C366.503 306.697 366.914 306.139 367.074 305.491C367.235 304.844 367.132 304.159 366.788 303.587C366.607 303.287 366.365 303.028 366.079 302.827C365.792 302.626 365.466 302.487 365.122 302.42C364.778 302.352 364.424 302.357 364.082 302.434C363.74 302.511 363.419 302.659 363.137 302.868L355.699 308.351C355.353 308.605 355.115 308.979 355.03 309.399C354.944 309.82 355.019 310.257 355.238 310.625V310.618ZM394.878 295.074C395.003 295.489 394.967 295.937 394.776 296.326C394.585 296.716 394.254 297.019 393.848 297.175L385.042 300.579C384.726 300.674 384.394 300.706 384.065 300.673C383.736 300.64 383.417 300.542 383.126 300.386C382.835 300.23 382.578 300.018 382.369 299.762C382.161 299.506 382.004 299.211 381.91 298.895C381.81 298.559 381.781 298.206 381.824 297.859C381.868 297.511 381.984 297.177 382.164 296.876C382.344 296.576 382.585 296.316 382.871 296.113C383.157 295.911 383.482 295.77 383.825 295.7L392.883 293.879C393.305 293.791 393.745 293.865 394.114 294.087C394.484 294.308 394.757 294.66 394.878 295.074Z" fill="#464646"/>
<path d="M350.68 320.564L405.974 298.125C406.154 298.055 406.318 297.95 406.456 297.817C406.594 297.683 406.704 297.522 406.779 297.345C406.854 297.168 406.893 296.978 406.894 296.785C406.894 296.593 406.856 296.402 406.781 296.225C406.711 296.046 406.605 295.884 406.471 295.746C406.337 295.609 406.176 295.5 405.999 295.425C405.822 295.351 405.632 295.312 405.439 295.313C405.247 295.313 405.057 295.351 404.88 295.426L349.586 317.865C349.406 317.935 349.242 318.04 349.104 318.173C348.966 318.307 348.856 318.468 348.781 318.645C348.706 318.822 348.667 319.012 348.667 319.205C348.666 319.397 348.705 319.588 348.779 319.765C348.849 319.944 348.955 320.107 349.089 320.244C349.224 320.381 349.384 320.49 349.561 320.565C349.738 320.639 349.929 320.678 350.121 320.677C350.313 320.677 350.503 320.639 350.68 320.564Z" fill="#FF9D5A"/>
<path d="M1105.13 286.042C1105.13 286.042 1079.32 356.035 1122.87 372.256L1118.5 423.122L1177.2 426.9L1190.68 319.578C1190.68 319.578 1157.01 212.63 1105.13 286.042Z" fill="#FFD3CF"/>
<path d="M1118.5 423.121L1061.68 637.729C1061.68 637.729 1084.8 607.41 1143.05 629.547C1201.29 651.683 1219.78 606.287 1219.78 606.287L1190.26 541.058L1177.16 426.9L1147.87 419.595L1118.5 423.121Z" fill="#545ED3"/>
<path d="M1148.49 418.976L1157.28 445.877L1177.63 439.45L1177.2 426.9L1179.56 402.554L1148.49 418.976ZM1120.68 397.905L1148.49 418.976L1133.26 446.33L1113.42 438.508L1118.5 423.121L1120.68 397.905Z" fill="#545ED3"/>
<path d="M1260.53 651.179C1246.77 635.347 1226.47 612.628 1219.79 606.266C1219.79 606.266 1193.86 647.56 1129.52 624.106C1123.66 621.869 1117.55 620.389 1111.32 619.702C1097.91 618.435 1076.98 620.004 1061.64 637.693C1061.64 637.693 1060.87 642.356 1060.13 651.165L1260.53 651.179ZM985.647 90.7787C985.647 90.7787 1014.88 61.7983 1038.81 79.6672L1007.89 107.791C1007.89 107.791 990.788 116.002 985.647 90.7787ZM1430.98 288.913C1430.98 288.913 1434.09 281.717 1422.83 265.949C1413.92 251.974 1404.43 247.469 1389.03 250.009L1395.68 288.395C1395.68 288.395 1407.71 308.625 1430.98 288.913Z" fill="#FF7867"/>
<path d="M1001.16 84.9638L1004.55 103.624L1025.89 97.313L1021.89 78.6597L1001.16 84.9638ZM1028.51 34.4802C1026.18 33.6598 1023.61 35.0631 1022.47 37.7978L1015.94 48.9524L1003.97 13.7326C1003.45 12.1853 1001.96 11.5304 1000.67 12.3652C1000.14 12.7841 999.742 13.346 999.524 13.9838C999.305 14.6217 999.275 15.3089 999.436 15.9635L1004.88 41.4248L990.738 14.9848C990.611 14.6806 990.412 14.4114 990.159 14.2001C989.906 13.9889 989.605 13.8417 989.283 13.7711C988.961 13.7005 988.627 13.7085 988.308 13.7945C987.99 13.8805 987.697 14.0419 987.454 14.2651C986.927 14.7785 986.574 15.444 986.445 16.1681C986.316 16.8923 986.417 17.6386 986.734 18.3024L986.835 18.5399C986.77 18.4751 999.796 44.9727 999.796 44.9727L985.625 23.0449C985.508 22.8386 985.351 22.6577 985.163 22.513C984.975 22.3683 984.76 22.2626 984.53 22.2023C984.301 22.1419 984.062 22.1281 983.827 22.1616C983.592 22.195 983.366 22.2752 983.163 22.3972C982.601 22.7854 982.196 23.3603 982.019 24.0193C981.842 24.6784 981.906 25.3787 982.198 25.9955L993.848 50.3341L979.656 35.5812C978.792 34.7321 978.072 34.5305 977.193 35.4661C977.004 35.6593 976.852 35.8863 976.747 36.1354C976.543 36.6345 976.461 37.1752 976.509 37.7122C976.556 38.2492 976.732 38.7671 977.02 39.2227L1001.17 84.9278L1021.9 78.6237C1021.9 78.6237 1022.69 73.4206 1023.08 64.648C1023.46 55.8754 1028.51 34.4802 1028.51 34.4802ZM1418.09 277.636L1405.56 291.886L1390.53 275.485L1403.58 261.559L1418.09 277.636Z" fill="#FFCEC8"/>
<path d="M1420.68 220.287C1423.09 220.784 1424.57 223.31 1424.14 226.239L1423.99 239.193L1452.41 215.171C1453.64 214.106 1455.29 214.321 1455.94 215.703C1456.17 216.329 1456.23 217.009 1456.09 217.663C1455.95 218.317 1455.62 218.918 1455.16 219.395L1437.36 238.415L1463.11 222.986C1463.37 222.795 1463.68 222.67 1464.01 222.623C1464.33 222.575 1464.66 222.606 1464.98 222.713C1465.29 222.82 1465.57 223 1465.79 223.238C1466.02 223.476 1466.19 223.765 1466.28 224.08C1466.47 224.791 1466.43 225.543 1466.18 226.232C1465.92 226.921 1465.45 227.512 1464.84 227.923L1464.62 228.074C1464.71 228.074 1439.89 244.058 1439.89 244.058L1463.34 232.543C1463.55 232.426 1463.78 232.352 1464.01 232.325C1464.25 232.298 1464.49 232.319 1464.72 232.386C1464.94 232.453 1465.16 232.565 1465.34 232.716C1465.52 232.867 1465.67 233.053 1465.78 233.263C1466.07 233.888 1466.12 234.595 1465.93 235.255C1465.74 235.915 1465.31 236.484 1464.74 236.861L1442.2 251.772L1461.97 246.432C1463.15 246.145 1463.88 246.346 1464.13 247.598C1464.2 247.862 1464.21 248.136 1464.17 248.404C1464.09 248.937 1463.88 249.443 1463.56 249.879C1463.24 250.314 1462.82 250.668 1462.34 250.909L1418.09 277.644L1403.57 261.567C1403.57 261.567 1405.57 256.695 1409.76 248.987C1413.95 241.28 1420.68 220.287 1420.68 220.287Z" fill="#FFCEC8"/>
<path d="M1105.13 286.042C1105.13 286.042 1095.89 271.879 1104.93 254.687C1104.93 254.687 1118.98 224.051 1162.68 235.976C1206.38 247.9 1195.95 286.423 1195.95 286.423C1195.95 286.423 1209.55 268.742 1235.74 280.666C1261.92 292.591 1256.83 326.796 1256.83 326.796C1256.83 326.796 1250.18 349.911 1291.66 351.358C1291.66 351.358 1314.43 349.559 1320.95 367.298C1320.95 367.298 1337.63 391.226 1313.35 417.609C1296.58 435.838 1314.94 449.727 1327.9 456.571C1337.13 461.443 1343.6 470.611 1344.22 481.039C1344.84 491.467 1340.87 502.564 1322.62 506.141C1322.62 506.141 1354.44 548.312 1320.83 587.461C1296.58 615.672 1267.44 618.27 1267.44 618.27L1191.33 549.579L1179.6 402.611L1187.86 335.972C1187.86 335.972 1165.86 328.113 1162.06 301.824C1160.93 294.023 1157.28 286.647 1150.75 282.228C1146.84 279.572 1140.17 277.766 1132.12 278.003C1122.59 278.391 1113.31 281.155 1105.13 286.042Z" fill="#FF9D5A"/>
<path d="M1045.33 462.069C1049.82 482.111 1059.55 500.606 1059.55 500.606C1059.55 500.606 1039.24 587.972 1018.96 651.201H1071.32C1088.19 583.129 1116.33 462.335 1120.68 397.883L1122.84 372.235C1122.84 372.235 1100.35 365.571 1097.79 334.683C1097.35 328.354 1097.81 321.995 1099.14 315.792L1105.1 286.02L1038.78 79.6457C1038.78 79.6457 1025.6 74.9104 1005.56 92.8657C1000.34 97.5506 992.113 97.6154 987.224 92.585C986.657 92.0036 986.121 91.3935 985.618 90.7571L1066.32 429.922C1066.32 429.922 1040.84 442.02 1045.33 462.069ZM1242.42 489.524L1430.98 288.913C1413.09 278.759 1410.47 268.936 1410.47 268.936C1399.3 237.991 1383.83 252.614 1383.83 252.614L1200.49 422.754L1200.13 422.819L1242.33 489.747L1242.42 489.524Z" fill="#464646"/>
<path d="M1244.69 651.179H1323.51C1272.28 616.125 1209.83 557.711 1209.83 557.711C1206.33 538.381 1241.79 489.754 1244.2 486.465L1225.88 409.506L1179.57 402.525C1167.75 437.349 1169.58 496.641 1182.86 561.95C1188.72 590.822 1221.42 628.985 1244.69 651.179Z" fill="#464646"/>
<path d="M1132.51 623.048C1132.33 623.035 1132.16 622.954 1132.04 622.82C1131.91 622.687 1131.84 622.511 1131.84 622.329C1131.84 621.328 1132.82 602.668 1133.72 584.619C1134.56 567.829 1135.44 550.457 1135.47 549.514C1135.54 547.65 1140.98 538.309 1142.83 535.186L1132.03 529.925C1131.93 529.879 1131.85 529.81 1131.78 529.723C1131.72 529.637 1131.67 529.536 1131.66 529.428C1131.63 529.322 1131.64 529.213 1131.67 529.109C1131.7 529.005 1131.75 528.91 1131.83 528.831L1140.6 519.476L1131.91 515.64C1131.77 515.577 1131.66 515.474 1131.59 515.345C1131.52 515.216 1131.48 515.068 1131.5 514.92L1147.84 418.868C1147.87 418.713 1147.95 418.571 1148.06 418.466C1148.18 418.36 1148.33 418.297 1148.49 418.285C1148.65 418.279 1148.81 418.327 1148.94 418.42C1149.07 418.514 1149.17 418.649 1149.21 418.804L1154.97 440.393L1177.08 430.354C1177.16 430.281 1177.26 430.229 1177.37 430.202C1177.48 430.175 1177.59 430.174 1177.7 430.198C1177.81 430.223 1177.91 430.272 1178 430.343C1178.09 430.413 1178.16 430.503 1178.2 430.605C1178.25 430.707 1178.27 430.818 1178.27 430.929C1178.26 431.041 1178.23 431.15 1178.18 431.248C1178.12 431.346 1178.05 431.43 1177.95 431.493C1177.86 431.557 1177.76 431.598 1177.65 431.613L1154.8 441.991C1154.71 442.034 1154.61 442.056 1154.51 442.056C1154.41 442.056 1154.31 442.034 1154.22 441.991C1154.13 441.947 1154.05 441.884 1153.99 441.807C1153.92 441.73 1153.88 441.641 1153.85 441.545L1148.66 422.236L1132.95 514.64L1142.04 518.648C1142.14 518.697 1142.22 518.767 1142.29 518.852C1142.35 518.938 1142.4 519.037 1142.42 519.143C1142.44 519.249 1142.44 519.358 1142.41 519.463C1142.39 519.568 1142.34 519.666 1142.27 519.749L1133.48 529.105L1144.11 534.286C1144.2 534.329 1144.27 534.389 1144.34 534.462C1144.4 534.535 1144.44 534.62 1144.47 534.711C1144.5 534.803 1144.51 534.9 1144.49 534.995C1144.48 535.09 1144.45 535.182 1144.4 535.265C1141.3 540.475 1136.9 548.363 1136.85 549.579C1136.85 550.529 1135.98 567.131 1135.1 584.705C1134.2 602.747 1133.26 621.407 1133.23 622.393C1133.21 622.571 1133.13 622.737 1133 622.858C1132.86 622.979 1132.69 623.047 1132.51 623.048Z" fill="white"/>
<path d="M1177.47 345.816C1176.75 354.114 1175.72 360.8 1184.03 361.512C1192.33 362.224 1206.82 356.698 1207.53 348.4C1207.8 344.455 1206.51 340.56 1203.94 337.556C1201.37 334.551 1197.72 332.678 1193.77 332.339C1189.83 332 1185.91 333.223 1182.86 335.744C1179.82 338.265 1177.88 341.882 1177.47 345.816Z" fill="#FFD3CF"/>
<path d="M1134.8 439.544C1134.65 439.541 1134.5 439.491 1134.38 439.4L1114.04 423.892C1113.94 423.851 1113.85 423.787 1113.77 423.704C1113.69 423.621 1113.64 423.522 1113.61 423.414C1113.58 423.306 1113.57 423.193 1113.6 423.083C1113.62 422.973 1113.66 422.87 1113.73 422.781C1113.8 422.693 1113.89 422.621 1113.99 422.572C1114.09 422.524 1114.2 422.499 1114.31 422.501C1114.43 422.502 1114.54 422.53 1114.63 422.582C1114.73 422.633 1114.82 422.707 1114.89 422.798L1134.64 437.86L1147.34 419.207C1147.46 419.11 1147.61 419.055 1147.76 419.049C1147.92 419.043 1148.07 419.086 1148.2 419.174C1148.32 419.261 1148.42 419.386 1148.47 419.532C1148.52 419.678 1148.52 419.837 1148.48 419.984L1135.37 439.242C1135.26 439.397 1135.1 439.503 1134.91 439.537L1134.8 439.544Z" fill="white"/>
<path d="M1122.87 372.256C1122.87 372.256 1146.9 376.272 1165.48 363.988C1165.48 363.988 1161.05 380.691 1122.12 381.979L1122.87 372.256Z" fill="#FFB2A9"/>
<path d="M1144.04 305.516C1144.54 306.682 1148.12 306.307 1151.54 307.675C1155.04 308.862 1157.5 311.489 1158.64 310.942C1159.85 310.517 1158.52 305.321 1153.17 303.314C1147.82 301.306 1143.4 304.407 1144.04 305.516ZM1112.29 305.674C1113.08 306.667 1116.43 305.343 1120.1 305.768C1123.79 305.969 1126.87 307.84 1127.82 307.005C1128.77 306.171 1126.19 301.622 1120.5 301.126C1114.8 300.629 1111.37 304.782 1112.29 305.674Z" fill="#FF9D5A"/>
<path d="M1115.43 322.687C1114.9 325.177 1115.75 327.472 1117.33 327.811C1118.92 328.149 1120.62 326.371 1121.16 323.903C1121.69 321.434 1120.84 319.11 1119.26 318.772C1117.67 318.434 1115.97 320.189 1115.43 322.687ZM1145.05 328.401C1144.52 330.898 1145.37 333.194 1146.94 333.532C1148.52 333.87 1150.23 332.093 1150.77 329.617C1151.3 327.141 1150.45 324.824 1148.87 324.493C1147.28 324.162 1145.57 325.896 1145.05 328.401Z" fill="#454545"/>
<path d="M1127.88 347.054C1127.77 347.053 1127.66 347.031 1127.56 346.989C1126.98 346.766 1121.93 344.722 1121.8 341.801C1121.73 340.361 1122.75 339.145 1124.83 338.094C1131.73 334.626 1131.82 320.866 1131.82 320.729C1131.82 320.496 1131.91 320.272 1132.08 320.106C1132.24 319.94 1132.47 319.846 1132.7 319.844C1132.93 319.846 1133.16 319.94 1133.32 320.106C1133.49 320.272 1133.58 320.496 1133.58 320.729C1133.58 321.341 1133.48 335.712 1125.66 339.663C1124.87 340.059 1123.55 340.858 1123.59 341.714C1123.65 343.003 1126.34 344.593 1128.24 345.356C1128.43 345.429 1128.59 345.568 1128.69 345.748C1128.79 345.928 1128.82 346.138 1128.79 346.341C1128.75 346.543 1128.64 346.726 1128.48 346.856C1128.32 346.987 1128.12 347.057 1127.91 347.054H1127.88Z" fill="#FF7867"/>
<path d="M1151.08 344.499C1148.59 344.493 1146.14 343.903 1143.92 342.776C1141.7 341.649 1139.78 340.017 1138.31 338.011C1136.84 336.006 1135.86 333.683 1135.45 331.23C1135.04 328.777 1135.21 326.262 1135.95 323.889C1136.83 321.083 1138.47 318.574 1140.68 316.643C1142.9 314.712 1145.61 313.434 1148.51 312.95C1151.41 312.467 1154.39 312.798 1157.12 313.905C1159.84 315.013 1162.2 316.855 1163.94 319.225C1165.68 321.595 1166.73 324.402 1166.97 327.331C1167.2 330.261 1166.62 333.199 1165.29 335.819C1163.96 338.438 1161.92 340.637 1159.41 342.17C1156.9 343.702 1154.02 344.509 1151.08 344.499ZM1151.08 314.109C1147.99 314.121 1144.98 315.115 1142.5 316.947C1140.01 318.779 1138.18 321.354 1137.25 324.299C1136.11 327.969 1136.47 331.944 1138.25 335.349C1140.04 338.754 1143.11 341.31 1146.78 342.456C1150.45 343.601 1154.43 343.241 1157.83 341.456C1161.24 339.67 1163.8 336.605 1164.95 332.935C1165.51 331.116 1165.72 329.203 1165.54 327.306C1165.37 325.409 1164.82 323.564 1163.94 321.878C1163.05 320.192 1161.84 318.696 1160.37 317.478C1158.91 316.26 1157.22 315.342 1155.4 314.778C1153.98 314.333 1152.51 314.107 1151.03 314.109H1151.08ZM1114.09 339.347C1112.48 339.346 1110.87 339.103 1109.33 338.627C1105.82 337.534 1102.8 335.258 1100.78 332.187C1098.75 329.115 1097.86 325.438 1098.25 321.782C1098.64 318.125 1100.28 314.717 1102.9 312.136C1105.52 309.556 1108.96 307.964 1112.62 307.63C1116.28 307.297 1119.95 308.244 1122.99 310.31C1126.03 312.375 1128.27 315.432 1129.31 318.958C1130.35 322.484 1130.13 326.262 1128.7 329.648C1127.27 333.034 1124.7 335.818 1121.45 337.526C1119.18 338.723 1116.65 339.348 1114.09 339.347ZM1114.09 308.956C1110.62 308.959 1107.27 310.203 1104.64 312.462C1102.01 314.722 1100.28 317.847 1099.76 321.273C1099.23 324.698 1099.96 328.197 1101.79 331.137C1103.63 334.076 1106.46 336.261 1109.77 337.296C1111.76 337.912 1113.86 338.091 1115.93 337.821C1118 337.551 1119.99 336.839 1121.75 335.731C1123.52 334.624 1125.03 333.149 1126.17 331.406C1127.32 329.663 1128.08 327.694 1128.39 325.633C1128.7 323.571 1128.57 321.467 1128 319.462C1127.42 317.457 1126.42 315.6 1125.06 314.017C1123.71 312.434 1122.02 311.162 1120.13 310.289C1118.23 309.415 1116.17 308.961 1114.09 308.956Z" fill="white"/>
<path d="M1135.85 328.984H1135.74L1128.7 327.775C1128.53 327.736 1128.37 327.633 1128.27 327.485C1128.16 327.337 1128.12 327.155 1128.14 326.976C1128.18 326.799 1128.28 326.643 1128.43 326.539C1128.58 326.435 1128.76 326.39 1128.94 326.414L1135.97 327.623C1136.11 327.68 1136.24 327.782 1136.32 327.913C1136.4 328.045 1136.44 328.199 1136.42 328.354C1136.41 328.508 1136.35 328.654 1136.25 328.77C1136.14 328.886 1136.01 328.966 1135.85 328.998V328.984ZM1140.4 353.243C1140.04 356.153 1138.56 358.809 1136.28 360.653C1134 362.496 1131.09 363.384 1128.17 363.128C1125.25 362.873 1122.54 361.494 1120.61 359.283C1118.69 357.071 1117.69 354.199 1117.84 351.271L1140.4 353.243Z" fill="white"/>
<path d="M1135.39 277.5C1135.39 277.5 1137.65 291.123 1103.36 295.707C1103.36 295.707 1093.72 273.75 1104.42 256.025L1135.39 277.5Z" fill="#FF9D5A"/>
<path d="M1424.29 387.88C1422.73 387.601 1421.12 387.881 1419.75 388.671C1418.38 389.462 1417.34 390.711 1416.8 392.198L1409.81 404.986L1388.7 368.73C1388.48 368.348 1388.19 368.016 1387.83 367.754C1387.48 367.492 1387.08 367.306 1386.65 367.208C1386.22 367.11 1385.77 367.102 1385.34 367.184C1384.91 367.266 1384.5 367.438 1384.14 367.687C1383.53 368.125 1383.08 368.759 1382.88 369.483C1382.68 370.206 1382.74 370.977 1383.03 371.666L1394.05 398.293L1371.38 371.731C1371.11 371.414 1370.78 371.153 1370.41 370.964C1370.04 370.776 1369.63 370.663 1369.22 370.632C1368.81 370.601 1368.39 370.653 1368 370.785C1367.6 370.917 1367.24 371.126 1366.93 371.4C1366.31 371.95 1365.93 372.714 1365.86 373.535C1365.79 374.357 1366.04 375.173 1366.55 375.819L1366.72 376.071C1366.63 376.006 1387.83 402.77 1387.83 402.77L1365.79 381.051C1365.35 380.621 1364.78 380.349 1364.18 380.279C1363.57 380.209 1362.95 380.343 1362.43 380.662C1362.11 380.865 1361.83 381.134 1361.61 381.451C1361.39 381.769 1361.25 382.128 1361.18 382.506C1361.11 382.884 1361.12 383.272 1361.22 383.645C1361.31 384.018 1361.48 384.367 1361.71 384.67L1380.78 409.297L1359.75 395.271C1358.49 394.465 1357.5 394.343 1356.48 395.458C1356.26 395.681 1356.1 395.942 1355.98 396.228C1355.79 396.797 1355.77 397.41 1355.91 397.992C1356.06 398.574 1356.38 399.101 1356.82 399.51L1395.61 445.467L1422.13 436.111C1422.25 431.068 1422.07 426.021 1421.59 420.999C1420.79 411.535 1424.29 387.88 1424.29 387.88Z" fill="#FFD3CF"/>
<path d="M1580.59 156.058C1580.59 156.058 1562.11 244.892 1615.16 252.312L1615.23 279.968L1648.22 302.868L1693.13 274.017L1703.47 277.514L1688.58 168.048L1580.59 156.058Z" fill="#FFCEC8"/>
<path d="M1580.59 156.058C1580.59 156.058 1594.5 180.728 1625.44 164.572C1625.44 164.572 1636.43 160.218 1640.93 173.085C1642.51 177.619 1644.71 182.901 1649.03 185.499C1649.79 185.988 1650.64 186.306 1651.54 186.43C1652.43 186.554 1653.34 186.482 1654.2 186.219C1655.4 185.787 1656.36 184.888 1657.43 184.182C1662.52 180.793 1669.99 182.412 1673.94 187.061C1682.1 196.712 1675.68 211.659 1663.08 212.306C1660.86 212.423 1658.63 212.356 1656.42 212.105C1656.42 212.105 1658.29 235.573 1697.21 231.435L1690.68 158.793C1690.68 158.793 1691.66 140.464 1675.56 148.344L1676.58 136.11C1676.58 136.11 1660.61 151.985 1631.11 138.42C1601.62 124.854 1585.94 114.75 1573.24 130.647C1560.54 146.545 1570.21 163.226 1578.76 166.205L1580.59 156.058Z" fill="#464646"/>
<path d="M1615.13 252.326C1615.13 252.326 1646.52 252.729 1661.94 235.997C1661.94 235.997 1654.25 258.386 1615.13 264.467V252.326Z" fill="#FFB6AD"/>
<path d="M1628.39 199.892C1628.71 201.893 1627.76 203.714 1626.27 203.944C1624.79 204.174 1623.32 202.742 1623.01 200.734C1622.7 198.727 1623.65 196.913 1625.13 196.683C1626.61 196.453 1628.07 197.885 1628.39 199.892Z" fill="#464646"/>
<path d="M1625.55 209.867C1622.97 209.861 1620.47 208.932 1618.5 207.248C1616.54 205.563 1615.24 203.233 1614.85 200.677L1613.52 192.25L1640.57 187.997L1641.89 196.424C1642.12 197.832 1642.06 199.271 1641.73 200.657C1641.39 202.044 1640.79 203.351 1639.95 204.504C1639.11 205.657 1638.05 206.633 1636.83 207.377C1635.62 208.12 1634.26 208.617 1632.86 208.838L1627.26 209.716C1626.7 209.809 1626.13 209.86 1625.55 209.867ZM1615.35 193.603L1616.43 200.454C1616.81 202.877 1618.14 205.05 1620.13 206.494C1622.11 207.938 1624.59 208.535 1627.02 208.154L1632.6 207.276C1633.8 207.088 1634.96 206.664 1635.99 206.031C1637.03 205.397 1637.94 204.565 1638.65 203.583C1639.37 202.601 1639.88 201.487 1640.17 200.305C1640.45 199.124 1640.5 197.898 1640.31 196.697L1639.23 189.853L1615.35 193.603Z" fill="white"/>
<path d="M1601.37 204.138C1601.69 206.139 1600.74 207.96 1599.25 208.19C1597.76 208.42 1596.3 206.988 1595.99 204.98C1595.67 202.973 1596.62 201.159 1598.15 200.929C1599.67 200.698 1601.06 202.116 1601.37 204.138Z" fill="#464646"/>
<path d="M1591.38 215.243C1588.79 215.235 1586.3 214.307 1584.33 212.625C1582.37 210.944 1581.07 208.619 1580.67 206.067L1579.35 197.64L1606.39 193.394L1607.72 201.821C1608.17 204.664 1607.46 207.567 1605.77 209.893C1604.07 212.219 1601.52 213.778 1598.68 214.228L1593.09 215.106C1592.53 215.194 1591.95 215.24 1591.38 215.243ZM1581.18 198.971L1582.26 205.822C1582.64 208.246 1583.97 210.419 1585.95 211.863C1587.94 213.307 1590.42 213.904 1592.84 213.523L1598.43 212.645C1600.85 212.262 1603.03 210.933 1604.47 208.95C1605.92 206.966 1606.52 204.49 1606.14 202.066L1605.06 195.222L1581.18 198.971ZM1611.61 224.375C1612.32 227.736 1614.31 230.688 1617.16 232.61C1620.01 234.531 1623.5 235.273 1626.88 234.678C1630.27 234.083 1633.29 232.197 1635.32 229.419C1637.34 226.641 1638.2 223.187 1637.73 219.784L1611.61 224.375Z" fill="white"/>
<path d="M1609.74 190.278L1604.43 214.746L1615.68 215.861L1609.74 190.278Z" fill="#FFCEC8"/>
<path d="M1615.68 216.66H1615.6L1604.35 215.545C1604.24 215.532 1604.13 215.497 1604.04 215.442C1603.94 215.386 1603.85 215.311 1603.79 215.221C1603.72 215.129 1603.68 215.025 1603.65 214.915C1603.63 214.805 1603.63 214.691 1603.65 214.581L1608.96 190.112C1609.02 189.919 1609.15 189.756 1609.32 189.654C1609.5 189.552 1609.7 189.52 1609.9 189.564C1610.1 189.607 1610.27 189.723 1610.39 189.889C1610.5 190.054 1610.55 190.257 1610.53 190.458L1605.44 214.041L1615.8 215.063C1616.01 215.073 1616.21 215.167 1616.35 215.325C1616.49 215.482 1616.57 215.689 1616.56 215.901C1616.55 216.113 1616.45 216.312 1616.29 216.454C1616.14 216.597 1615.93 216.671 1615.72 216.66H1615.68Z" fill="#FF7867"/>
<path d="M1630.64 181.966C1630.64 182.397 1630.48 182.811 1630.18 183.127C1629.89 183.443 1629.49 183.637 1629.06 183.671L1619.7 184.391C1619.04 184.391 1618.4 184.129 1617.94 183.662C1617.47 183.195 1617.21 182.562 1617.21 181.901C1617.21 181.553 1617.28 181.21 1617.42 180.891C1617.56 180.573 1617.76 180.288 1618.02 180.053C1618.28 179.819 1618.58 179.641 1618.91 179.53C1619.24 179.42 1619.59 179.379 1619.94 179.411L1629.07 180.268C1629.49 180.303 1629.89 180.497 1630.18 180.812C1630.48 181.126 1630.64 181.537 1630.64 181.966ZM1592.18 190.976C1592.28 191.394 1592.54 191.756 1592.91 191.991C1593.27 192.226 1593.7 192.316 1594.13 192.243L1603.35 190.602C1603.67 190.521 1603.97 190.379 1604.23 190.182C1604.5 189.986 1604.72 189.74 1604.89 189.458C1605.05 189.176 1605.17 188.863 1605.21 188.538C1605.26 188.214 1605.24 187.883 1605.16 187.565C1605.07 187.229 1604.92 186.914 1604.7 186.641C1604.49 186.369 1604.22 186.144 1603.91 185.98C1603.6 185.817 1603.27 185.72 1602.92 185.694C1602.57 185.668 1602.23 185.715 1601.9 185.83L1593.26 188.918C1592.86 189.061 1592.52 189.348 1592.32 189.723C1592.12 190.099 1592.07 190.535 1592.18 190.947V190.976Z" fill="#464646"/>
<path d="M1639.52 190.458L1581.04 199.648C1580.85 199.678 1580.66 199.672 1580.47 199.628C1580.29 199.584 1580.11 199.504 1579.96 199.392C1579.81 199.28 1579.68 199.139 1579.58 198.977C1579.48 198.814 1579.41 198.634 1579.38 198.446C1579.35 198.258 1579.36 198.065 1579.4 197.88C1579.45 197.694 1579.53 197.519 1579.64 197.365C1579.75 197.211 1579.9 197.081 1580.06 196.983C1580.22 196.884 1580.4 196.819 1580.59 196.791L1639.08 187.601C1639.26 187.57 1639.46 187.577 1639.64 187.621C1639.83 187.666 1640 187.747 1640.16 187.859C1640.31 187.972 1640.44 188.114 1640.54 188.277C1640.64 188.44 1640.7 188.621 1640.73 188.81C1640.76 188.997 1640.75 189.189 1640.71 189.374C1640.66 189.558 1640.58 189.732 1640.47 189.886C1640.36 190.039 1640.22 190.168 1640.05 190.266C1639.89 190.365 1639.71 190.43 1639.52 190.458Z" fill="#FFA680"/>
<path d="M1636.93 601.912C1637.44 604.051 1637.66 606.248 1637.6 608.446V608.497L1641.99 651.201H1739.83L1723.18 483.09L1723.1 482.291L1722.92 480.442L1722.83 479.621L1722.69 478.182L1722.57 476.951L1722.47 475.915L1722.4 475.195V475.124L1722.29 474.03L1722.23 473.476L1722.11 472.166L1722.06 471.77L1721.81 469.215L1721.77 468.769L1701.81 267.266L1649.91 298.758L1615.14 276.37L1615.23 267.266L1603.59 276.91L1636.54 598.098L1636.93 601.912Z" fill="#FF7867"/>
<path d="M1490.81 509.616L1436.81 420.444L1376.89 451.389L1438.14 565.512C1438.14 565.512 1443.04 574.371 1443.45 575.263C1459.68 610.771 1503.29 613.693 1532.25 587.497C1533.13 586.698 1534.03 585.828 1534.93 584.978L1491.72 508.753L1490.81 509.616Z" fill="#464646"/>
<path d="M1535.18 651.179H1642.07C1635.59 583.431 1605.91 276.391 1603.58 276.866C1523.13 293.246 1473.65 339.476 1457.54 405.792C1448.52 442.919 1449.54 547.333 1449.69 559.841L1534.83 585.468C1535.08 571.017 1533.1 550.687 1534.28 530.666L1535.18 651.179Z" fill="#464646"/>
<path d="M1534.28 568.419C1534.07 568.419 1533.87 568.337 1533.72 568.19C1533.57 568.044 1533.48 567.844 1533.48 567.635L1529.25 384.469C1529.25 384.257 1529.34 384.054 1529.49 383.904C1529.64 383.754 1529.84 383.67 1530.05 383.67C1530.26 383.67 1530.47 383.754 1530.62 383.904C1530.77 384.054 1530.85 384.257 1530.85 384.469L1535.08 567.635C1535.08 567.74 1535.06 567.844 1535.02 567.942C1534.99 568.04 1534.93 568.13 1534.86 568.206C1534.79 568.282 1534.7 568.343 1534.6 568.386C1534.51 568.429 1534.4 568.452 1534.3 568.455L1534.28 568.419Z" fill="#333333"/>
<path d="M1860.35 651.179C1860.64 640.86 1860.92 630.545 1861.2 620.234C1872.84 620.06 1884.11 616.205 1893.41 609.224C1893.71 609.008 1894 608.785 1894.28 608.562C1900.46 603.63 1905.3 597.221 1908.36 589.926C1911.41 582.631 1912.57 574.685 1911.74 566.822L1899.66 448.237C1898.25 436.979 1896.09 425.828 1893.18 414.86C1877.43 356.194 1840.8 309.855 1782.72 292.008L1712.54 270.483L1701.8 267.281L1739.56 651.179H1860.35Z" fill="#464646"/>
<path d="M1679.47 647.639C1679.23 647.638 1679 647.552 1678.82 647.396C1678.64 647.241 1678.52 647.025 1678.49 646.79C1678.07 643.976 1677.9 641.299 1677.77 638.708C1677.68 637.182 1677.59 635.599 1677.43 633.994C1677.04 629.036 1676.53 623.991 1676.04 619.119C1675.56 614.247 1675.05 609.18 1674.66 604.208C1674.55 602.682 1674.48 601.142 1674.4 599.652C1674.28 595.093 1673.83 590.549 1673.08 586.051C1672.47 582.381 1670.62 579.452 1668.66 576.343C1668.2 575.623 1667.72 574.86 1667.26 574.097C1666.76 573.424 1666.42 572.648 1666.26 571.827C1666.1 571.005 1666.13 570.158 1666.34 569.348C1666.8 567.93 1667.43 566.576 1668.23 565.318C1668.95 564.215 1669.51 563.025 1669.92 561.777C1670.47 559.618 1668.42 558.359 1665.68 556.991C1664.73 556.568 1663.89 555.953 1663.2 555.184C1662.51 554.416 1661.99 553.511 1661.67 552.529C1661.45 551.701 1661.41 550.835 1661.55 549.99C1661.69 549.145 1662.01 548.34 1662.49 547.629C1662.53 547.563 1662.58 547.502 1662.63 547.449C1662.94 547.053 1663.15 546.585 1663.23 546.089C1663.33 545.69 1663.47 545.302 1663.64 544.93C1663.67 544.856 1663.72 544.788 1663.77 544.728C1666.43 541.627 1668.1 539.079 1669.07 536.496C1665.14 487.394 1660.84 437.615 1656.67 389.478C1654.11 359.835 1651.45 329.185 1648.92 298.981C1648.91 298.851 1648.92 298.719 1648.96 298.593C1649 298.468 1649.07 298.352 1649.15 298.251C1649.24 298.151 1649.34 298.068 1649.46 298.007C1649.57 297.947 1649.7 297.91 1649.83 297.898C1649.96 297.887 1650.09 297.902 1650.22 297.941C1650.34 297.981 1650.46 298.045 1650.56 298.129C1650.66 298.214 1650.74 298.317 1650.81 298.434C1650.87 298.55 1650.9 298.678 1650.91 298.809C1653.45 329.034 1656.11 359.663 1658.67 389.305C1662.84 437.522 1667.15 487.386 1671.09 536.568C1671.1 536.712 1671.08 536.857 1671.03 536.992C1669.96 539.871 1668.22 542.605 1665.38 545.923C1665.29 546.158 1665.22 546.399 1665.16 546.643C1665.01 547.437 1664.65 548.18 1664.13 548.802C1663.82 549.27 1663.62 549.799 1663.52 550.353C1663.43 550.908 1663.46 551.475 1663.6 552.018C1663.85 552.729 1664.24 553.38 1664.75 553.932C1665.26 554.484 1665.88 554.926 1666.57 555.228C1669.07 556.48 1672.85 558.366 1671.86 562.324C1671.4 563.742 1670.77 565.096 1669.97 566.354C1669.26 567.458 1668.69 568.648 1668.28 569.895C1668.13 570.434 1668.12 570.999 1668.24 571.545C1668.35 572.091 1668.59 572.603 1668.94 573.04C1669.38 573.759 1669.86 574.544 1670.32 575.27C1672.3 578.401 1674.35 581.647 1675.02 585.698C1675.79 590.277 1676.24 594.903 1676.38 599.544C1676.45 601.027 1676.52 602.56 1676.62 604.057C1677.02 609.001 1677.52 614.038 1678.01 618.917C1678.5 623.797 1679 628.849 1679.4 633.814C1679.55 635.441 1679.65 637.038 1679.74 638.578C1679.9 641.248 1680.04 643.767 1680.46 646.494C1680.48 646.624 1680.47 646.757 1680.44 646.884C1680.41 647.012 1680.35 647.132 1680.27 647.237C1680.2 647.343 1680.1 647.432 1679.98 647.5C1679.87 647.567 1679.75 647.612 1679.62 647.632L1679.47 647.639Z" fill="white"/>
<path d="M1627.04 313.065C1626.89 313.065 1626.73 313.028 1626.59 312.957C1626.45 312.886 1626.33 312.782 1626.24 312.655L1603.09 280.904C1602.94 280.689 1602.87 280.421 1602.91 280.158C1602.96 279.896 1603.1 279.661 1603.31 279.504C1603.53 279.347 1603.8 279.283 1604.06 279.324C1604.32 279.365 1604.56 279.509 1604.71 279.724L1627.32 310.748L1649.37 298.024C1649.53 297.939 1649.7 297.895 1649.87 297.895C1650.05 297.895 1650.22 297.939 1650.37 298.024L1668.43 308.452L1702.85 283.423C1702.96 283.345 1703.08 283.289 1703.21 283.258C1703.34 283.227 1703.47 283.222 1703.6 283.242C1703.73 283.263 1703.85 283.309 1703.97 283.377C1704.08 283.446 1704.18 283.536 1704.25 283.642C1704.33 283.748 1704.39 283.869 1704.42 283.997C1704.45 284.125 1704.45 284.257 1704.43 284.387C1704.41 284.517 1704.37 284.642 1704.3 284.754C1704.23 284.867 1704.14 284.964 1704.03 285.042L1669.09 310.453C1668.93 310.565 1668.74 310.63 1668.55 310.64C1668.36 310.651 1668.16 310.605 1667.99 310.51L1649.87 300.047L1627.55 312.935C1627.39 313.02 1627.22 313.065 1627.04 313.065Z" fill="white"/>
<path d="M1643.34 334.619C1645.8 334.619 1647.79 332.627 1647.79 330.171C1647.79 327.715 1645.8 325.724 1643.34 325.724C1640.88 325.724 1638.89 327.715 1638.89 330.171C1638.89 332.627 1640.88 334.619 1643.34 334.619Z" fill="white"/>
<path d="M1650.75 433.189C1653.21 433.189 1655.2 431.198 1655.2 428.742C1655.2 426.286 1653.21 424.294 1650.75 424.294C1648.29 424.294 1646.3 426.286 1646.3 428.742C1646.3 431.198 1648.29 433.189 1650.75 433.189Z" fill="white"/>
<path d="M1662.61 522.362C1662.61 523.243 1662.35 524.105 1661.86 524.837C1661.37 525.57 1660.67 526.141 1659.85 526.478C1659.04 526.815 1658.14 526.903 1657.28 526.73C1656.41 526.558 1655.62 526.133 1655 525.509C1654.37 524.885 1653.95 524.091 1653.78 523.226C1653.61 522.362 1653.7 521.466 1654.04 520.652C1654.37 519.838 1654.95 519.143 1655.68 518.654C1656.41 518.166 1657.28 517.906 1658.16 517.907C1658.74 517.907 1659.32 518.022 1659.86 518.246C1660.4 518.47 1660.89 518.798 1661.31 519.212C1661.72 519.626 1662.05 520.117 1662.27 520.657C1662.49 521.198 1662.61 521.777 1662.61 522.362ZM1673.01 632.159C1673.01 633.04 1672.75 633.901 1672.26 634.634C1671.77 635.367 1671.08 635.937 1670.26 636.275C1669.45 636.612 1668.55 636.7 1667.69 636.528C1666.82 636.356 1666.03 635.932 1665.4 635.309C1664.78 634.686 1664.36 633.892 1664.18 633.028C1664.01 632.164 1664.1 631.268 1664.44 630.454C1664.78 629.64 1665.35 628.945 1666.08 628.455C1666.81 627.966 1667.67 627.704 1668.56 627.704C1669.74 627.704 1670.87 628.174 1671.71 629.009C1672.54 629.845 1673.01 630.978 1673.01 632.159Z" fill="white"/>
<path d="M1389.55 462.242C1388.82 461.502 1388.32 460.563 1388.13 459.542C1387.93 458.522 1388.04 457.466 1388.45 456.509C1388.85 455.551 1389.53 454.735 1390.4 454.164C1391.27 453.592 1392.29 453.291 1393.33 453.298C1394.37 453.305 1395.38 453.62 1396.24 454.203C1397.1 454.786 1397.77 455.612 1398.16 456.574C1398.55 457.537 1398.65 458.594 1398.44 459.612C1398.23 460.63 1397.72 461.563 1396.98 462.292C1395.99 463.268 1394.65 463.811 1393.26 463.801C1391.86 463.792 1390.53 463.231 1389.55 462.242ZM1395.89 455.995C1395.38 455.485 1394.73 455.137 1394.02 454.997C1393.32 454.856 1392.58 454.928 1391.92 455.204C1391.25 455.48 1390.68 455.948 1390.28 456.548C1389.88 457.148 1389.66 457.854 1389.66 458.575C1389.66 459.297 1389.88 460.002 1390.28 460.602C1390.68 461.202 1391.25 461.67 1391.92 461.946C1392.58 462.222 1393.32 462.294 1394.02 462.154C1394.73 462.013 1395.38 461.665 1395.89 461.155C1396.23 460.817 1396.5 460.416 1396.69 459.973C1396.87 459.531 1396.97 459.056 1396.97 458.577C1396.97 458.097 1396.88 457.622 1396.69 457.179C1396.51 456.736 1396.24 456.334 1395.9 455.995H1395.89ZM1391.88 481.039C1391.83 480.985 1391.78 480.925 1391.75 480.859C1391.65 480.672 1391.62 480.453 1391.68 480.249C1391.75 480.046 1391.88 479.874 1392.07 479.773L1443.64 451.836C1443.83 451.734 1444.06 451.713 1444.26 451.777C1444.47 451.84 1444.64 451.983 1444.74 452.174C1444.84 452.365 1444.87 452.588 1444.8 452.794C1444.74 453.001 1444.6 453.174 1444.41 453.275L1392.83 481.219C1392.68 481.297 1392.5 481.322 1392.33 481.289C1392.16 481.257 1392 481.169 1391.88 481.039Z" fill="#333333"/>
<path d="M1787.3 630.302L1688.63 643.681L1677.59 575.544L1793.73 552.393L1787.3 630.302Z" fill="#464646"/>
<path d="M1706.14 570.65C1705.96 570.649 1705.78 570.585 1705.64 570.468C1705.5 570.352 1705.4 570.19 1705.36 570.01C1705.34 569.906 1705.34 569.799 1705.36 569.696C1705.38 569.592 1705.42 569.494 1705.48 569.406C1705.54 569.318 1705.61 569.243 1705.7 569.185C1705.79 569.127 1705.89 569.087 1705.99 569.067L1817.71 546.758L1788.34 370.709C1788.32 370.606 1788.33 370.5 1788.35 370.397C1788.37 370.295 1788.42 370.198 1788.48 370.113C1788.54 370.027 1788.61 369.955 1788.7 369.899C1788.79 369.843 1788.89 369.805 1789 369.788C1789.1 369.77 1789.2 369.773 1789.31 369.797C1789.41 369.82 1789.51 369.864 1789.59 369.925C1789.68 369.985 1789.75 370.062 1789.81 370.151C1789.86 370.24 1789.9 370.339 1789.92 370.443L1819.44 547.297C1819.48 547.502 1819.43 547.713 1819.31 547.884C1819.19 548.055 1819.01 548.173 1818.81 548.211L1706.32 570.636L1706.14 570.65ZM1689.33 644.451C1689.13 644.451 1688.93 644.374 1688.78 644.236C1688.64 644.097 1688.55 643.908 1688.53 643.706C1688.52 643.504 1688.58 643.304 1688.71 643.147C1688.84 642.99 1689.02 642.887 1689.22 642.86L1861.07 619.435C1861.27 619.427 1861.46 619.494 1861.62 619.623C1861.77 619.752 1861.87 619.933 1861.9 620.132C1861.93 620.331 1861.88 620.533 1861.76 620.698C1861.65 620.864 1861.48 620.98 1861.28 621.026L1689.42 644.443L1689.33 644.451ZM1699.41 632.281C1699.04 632.279 1698.67 632.238 1698.3 632.159C1697.29 631.941 1696.36 631.426 1695.63 630.68C1694.91 629.934 1694.43 628.99 1694.24 627.968C1694.05 626.946 1694.18 625.892 1694.59 624.939C1695 623.986 1695.69 623.178 1696.57 622.616C1697.14 622.238 1697.79 621.98 1698.47 621.856C1699.15 621.733 1699.85 621.746 1700.52 621.897C1701.78 622.174 1702.9 622.908 1703.66 623.958C1704.41 625.007 1704.76 626.299 1704.62 627.585C1704.48 628.871 1703.87 630.062 1702.91 630.928C1701.95 631.795 1700.71 632.277 1699.41 632.281ZM1699.41 623.372C1698.53 623.405 1697.69 623.753 1697.05 624.354C1696.41 624.954 1696 625.765 1695.91 626.64C1695.82 627.514 1696.04 628.393 1696.55 629.114C1697.05 629.836 1697.8 630.352 1698.65 630.568C1699.59 630.765 1700.58 630.581 1701.38 630.057C1702.19 629.533 1702.76 628.71 1702.97 627.769C1703.17 626.826 1702.98 625.843 1702.46 625.034C1701.93 624.225 1701.11 623.656 1700.17 623.451C1699.92 623.398 1699.66 623.371 1699.4 623.372H1699.41Z" fill="#333333"/>
<path d="M1719.34 640.385C1719.15 640.384 1718.97 640.315 1718.82 640.191C1718.68 640.068 1718.58 639.896 1718.55 639.708L1708.96 579.3C1708.94 579.197 1708.95 579.09 1708.97 578.988C1709 578.886 1709.04 578.789 1709.1 578.704C1709.16 578.619 1709.24 578.546 1709.33 578.491C1709.42 578.436 1709.52 578.399 1709.63 578.383C1709.73 578.366 1709.84 578.371 1709.94 578.395C1710.04 578.42 1710.14 578.464 1710.22 578.526C1710.31 578.588 1710.38 578.666 1710.43 578.755C1710.49 578.845 1710.53 578.945 1710.54 579.049L1720.13 639.456C1720.17 639.666 1720.12 639.881 1719.99 640.053C1719.87 640.226 1719.68 640.342 1719.47 640.377L1719.34 640.385Z" fill="#333333"/>
<path d="M1612.16 638.542L1618.24 630.684L1617.76 648.675C1617.76 649.158 1617.86 649.636 1618.07 650.071C1618.28 650.507 1618.58 650.889 1618.96 651.186H1622.9C1623.47 650.744 1623.87 650.119 1624.03 649.416L1626.53 637.643L1637.09 623.71L1627.61 636.786L1628.15 651.222H1634.42L1637.06 640.284L1644.56 630.281C1644.64 630.182 1644.74 630.11 1644.85 630.075C1644.97 630.04 1645.1 630.044 1645.21 630.086C1645.29 630.115 1645.36 630.16 1645.42 630.219C1645.47 630.277 1645.52 630.347 1645.55 630.425C1645.57 630.502 1645.59 630.585 1645.58 630.667C1645.57 630.748 1645.55 630.828 1645.51 630.899L1639.98 640.636L1637.69 651.222H1645.53L1649.39 644.263L1654.31 636.067L1661.99 631.799C1674.02 636.239 1680.36 629.266 1680.36 629.266L1686.41 630.173L1680.14 590.973C1676.17 591.964 1672.25 593.18 1668.41 594.615L1635.81 606.431L1619.53 616.19C1617.85 617.205 1616.5 618.691 1615.65 620.464L1608.16 636.095C1607.91 636.621 1607.87 637.217 1608.04 637.772C1608.21 638.326 1608.57 638.8 1609.06 639.104C1609.56 639.408 1610.14 639.521 1610.71 639.421C1611.28 639.322 1611.8 639.017 1612.16 638.564V638.542Z" fill="#FFCEC8"/>
<path d="M1618.86 631.216H1618.81C1618.75 631.209 1618.7 631.192 1618.66 631.165C1618.61 631.139 1618.57 631.103 1618.54 631.061C1618.51 631.019 1618.48 630.971 1618.47 630.92C1618.46 630.869 1618.45 630.815 1618.46 630.763L1618.59 629.777C1618.78 628.358 1619.45 627.047 1620.49 626.063L1632.58 614.693C1632.66 614.618 1632.76 614.576 1632.87 614.576C1632.97 614.576 1633.07 614.618 1633.15 614.693C1633.19 614.729 1633.22 614.773 1633.24 614.821C1633.26 614.869 1633.27 614.921 1633.27 614.974C1633.27 615.026 1633.26 615.078 1633.24 615.126C1633.22 615.174 1633.19 615.218 1633.15 615.254L1621.07 626.632C1620.16 627.486 1619.57 628.627 1619.4 629.863L1619.27 630.856C1619.27 630.907 1619.26 630.957 1619.23 631.003C1619.21 631.049 1619.18 631.09 1619.14 631.123C1619.1 631.157 1619.06 631.182 1619.01 631.198C1618.96 631.214 1618.91 631.22 1618.86 631.216ZM1627.81 637.297C1627.77 637.307 1627.72 637.307 1627.68 637.297C1627.63 637.28 1627.58 637.254 1627.54 637.219C1627.5 637.183 1627.47 637.14 1627.45 637.093C1627.43 637.045 1627.41 636.993 1627.41 636.94C1627.41 636.888 1627.42 636.835 1627.44 636.786L1627.82 635.75C1627.83 635.71 1627.86 635.673 1627.89 635.642L1636.82 624.387C1636.85 624.337 1636.89 624.295 1636.94 624.262C1636.99 624.23 1637.04 624.208 1637.1 624.197C1637.15 624.187 1637.21 624.189 1637.27 624.203C1637.32 624.217 1637.37 624.242 1637.42 624.278C1637.46 624.314 1637.5 624.358 1637.53 624.409C1637.55 624.46 1637.57 624.517 1637.57 624.574C1637.57 624.631 1637.56 624.688 1637.54 624.742C1637.52 624.795 1637.49 624.843 1637.45 624.883L1628.55 636.067L1628.19 637.038C1628.16 637.115 1628.11 637.18 1628.04 637.227C1627.98 637.273 1627.9 637.298 1627.81 637.297Z" fill="#FF7867"/>
<path d="M1510.65 547.132C1510.49 547.131 1510.32 547.087 1510.18 547.003C1510.04 546.92 1509.92 546.801 1509.84 546.657L1453.51 449.569C1453.44 449.461 1453.4 449.343 1453.39 449.22C1453.37 449.097 1453.38 448.973 1453.41 448.853C1453.44 448.733 1453.5 448.621 1453.58 448.523C1453.65 448.425 1453.74 448.342 1453.85 448.281C1453.96 448.219 1454.08 448.178 1454.2 448.162C1454.32 448.146 1454.45 448.154 1454.57 448.186C1454.69 448.219 1454.8 448.274 1454.9 448.349C1455 448.425 1455.08 448.519 1455.14 448.626L1511.5 545.714C1511.63 545.93 1511.66 546.187 1511.6 546.428C1511.53 546.668 1511.38 546.875 1511.16 547.002C1511.01 547.092 1510.83 547.137 1510.65 547.132Z" fill="#333333"/>
</g>
<defs>
<filter id="filter0_df_1_110" x="-4" y="0" width="1928" height="689.212" filterUnits="userSpaceOnUse" color-interpolation-filters="sRGB">
<feFlood flood-opacity="0" result="BackgroundImageFix"/>
<feColorMatrix in="SourceAlpha" type="matrix" values="0 0 0 0 0 0 0 0 0 0 0 0 0 0 0 0 0 0 127 0" result="hardAlpha"/>
<feOffset dy="6"/>
<feGaussianBlur stdDeviation="3"/>
<feComposite in2="hardAlpha" operator="out"/>
<feColorMatrix type="matrix" values="0 0 0 0 0 0 0 0 0 0 0 0 0 0 0 0 0 0 0.25 0"/>
<feBlend mode="normal" in2="BackgroundImageFix" result="effect1_dropShadow_1_110"/>
<feBlend mode="normal" in="SourceGraphic" in2="effect1_dropShadow_1_110" result="shape"/>
<feGaussianBlur stdDeviation="6" result="effect2_foregroundBlur_1_110"/>
</filter>
</defs>
</svg>
