<svg width="475" height="299" viewBox="0 0 475 299" fill="none" xmlns="http://www.w3.org/2000/svg">
<path d="M40.1546 296.983C40.1546 296.983 40.1546 284.138 34.093 265.625C28.0314 247.113 -3.04735 243.398 0.243242 216.858C17.666 223.15 31.3653 249.048 34.3874 256.929C24.1693 217.092 31.3653 188.928 31.3653 188.928C31.3653 188.928 45.307 218.724 40.1979 257.128C58.4953 211.06 72.9826 204.759 72.9826 204.759C72.9826 204.759 69.2071 232.688 59.2227 247.356C49.2384 262.023 41.5661 261.789 41.5661 261.789C41.5661 261.789 41.7999 285.891 46.2162 297L40.1546 296.983Z" fill="white"/>
<path d="M440.81 296.983C440.81 296.983 440.81 284.138 434.748 265.625C428.687 247.113 397.591 243.381 400.838 216.84C418.261 223.133 431.96 249.031 434.982 256.911C424.764 217.075 431.96 188.911 431.96 188.911C431.96 188.911 445.902 218.706 440.784 257.111C459.133 211.025 473.595 204.742 473.595 204.742C473.595 204.742 469.819 232.671 459.835 247.338C449.851 262.006 442.178 261.772 442.178 261.772C442.178 261.772 442.412 285.873 446.828 296.983H440.81Z" fill="white"/>
<path d="M133.469 269.939L135.348 284.372L131.166 291.593L121.06 287.635L117.908 273.549" fill="#F0C9CF"/>
<path d="M156.919 294.492L134.88 281.699L130.698 287.635H121.06L120.021 296.592H156.39C156.634 296.583 156.868 296.495 157.057 296.342C157.246 296.188 157.381 295.977 157.44 295.74C157.5 295.504 157.481 295.254 157.387 295.029C157.293 294.804 157.129 294.615 156.919 294.492Z" fill="#1F2251"/>
<path d="M55.0835 269.939L52.2952 284.372L56.469 291.593L66.5746 287.635L70.6359 273.549" fill="#F0C9CF"/>
<path d="M144.467 129.225L127.962 150.992C127.381 151.742 127.037 152.649 126.974 153.596L125.563 172.976L119.64 132.237L128.005 118.194L127.139 115.399L123.987 104.898L140.267 98.7357L141.254 101.669L146.45 117.031C147.141 119.071 147.322 121.25 146.976 123.376C146.63 125.502 145.768 127.511 144.467 129.225Z" fill="#F0C9CF"/>
<path d="M141.28 101.713L127.165 115.443L124.013 104.933L140.292 98.7704L141.28 101.713Z" fill="#D683A7"/>
<path d="M136.482 273.671L116.514 276.925L100.823 209.376L96.9261 192.617L96.8309 192.2L71.3808 278.626L51.3601 273.124L69.9693 153.032L71.3808 143.928L122.082 143.172L122.627 148.137L136.482 273.671Z" fill="#99A3CA"/>
<path d="M122.627 148.137L69.969 153.032L70.7224 148.137L71.3805 143.928L122.082 143.172L122.532 147.286L122.627 148.137Z" fill="#7988B8"/>
<path d="M122.532 147.286C111.526 148.883 78.5162 148.293 70.7227 148.154L71.3721 143.954L122.082 143.198L122.532 147.286Z" fill="#1F2251"/>
<path d="M142.873 97.7983L131.14 104.794L129.633 105.662L126.091 107.779V107.875L126.022 109.385L125.485 121.718L125.407 123.237L124.87 135.57L124.81 137.08L124.636 140.959C124.636 140.959 126.732 143.285 126.143 145.299C126.005 145.776 122.515 146.167 117.319 146.41L115.812 146.479C112.219 146.627 107.967 146.731 103.507 146.774H101.992C97.9046 146.774 93.6788 146.774 89.6868 146.696H88.1801C83.504 146.592 79.2089 146.418 75.8663 146.141C75.3352 146.106 74.833 146.063 74.3596 146.011C71.0084 145.698 68.9647 145.273 69.008 144.735C69.1816 143.02 69.87 141.398 70.9824 140.083V135.63L71.0343 123.297V121.779L71.0776 109.446V108.647L69.8307 107.918L62.0372 103.353L60.5218 102.485L50.7712 96.7916L51.3081 95.5939L51.9922 94.0837L57.5343 81.7421L58.2097 80.2406L60.5304 75.0332L61.0154 73.957C61.3358 73.254 61.6735 72.5596 62.0458 71.8914C62.8211 70.4727 63.7194 69.1252 64.7303 67.8643C65.1373 67.3435 65.5962 66.8315 66.0119 66.3454C68.3812 63.7407 71.2115 61.5984 74.3596 60.0271C74.8532 59.7754 75.3641 59.5497 75.8663 59.3328C78.0644 58.3814 80.3751 57.7163 82.7419 57.3539L86.3616 56.7811L88.1801 56.5034L89.6868 56.2691H89.7388L101.992 57.2845L103.507 57.4147L107.214 57.7272L110.348 58.1611C110.539 58.1611 110.738 58.2132 110.928 58.2566C112.59 58.5177 114.224 58.9272 115.812 59.4803C116.323 59.6539 116.826 59.8448 117.319 60.0618C120.847 61.5041 124.048 63.6441 126.732 66.3541C127.208 66.8402 127.684 67.3522 128.126 67.873C128.568 68.3937 129.157 69.1228 129.633 69.7737C130.175 70.5252 130.678 71.3045 131.14 72.1083C131.654 72.9815 132.119 73.8826 132.534 74.8075L134.958 80.2146L135.642 81.7161L141.193 94.0664L141.877 95.5765L142.873 97.7983Z" fill="#647BF4"/>
<g style="mix-blend-mode:overlay" opacity="0.25">
<path d="M141.193 94.049H131.139V81.7421H135.642L134.958 80.2406H131.139V72.1344C130.678 71.3305 130.175 70.5512 129.633 69.7997V80.2146H117.319V67.8556H128.126C127.684 67.3349 127.208 66.8228 126.732 66.3368H117.319V60.0445C116.825 59.8275 116.323 59.6365 115.812 59.463V66.3368H103.507V57.4407L101.992 57.3106V66.3802H89.6867V56.2604L88.1799 56.4947V66.3368H75.8662V59.3241C75.3639 59.5411 74.853 59.7667 74.3594 60.0184V66.3368H66.055C65.6047 66.8228 65.1891 67.3349 64.7734 67.8556H74.4027V80.1972H62.0457V71.8827C61.6733 72.551 61.3356 73.2453 61.0152 73.9483L60.5303 75.0245V80.2319H58.2096L57.5341 81.7334H60.5303V94.0837H52.0008L51.3167 95.5939H60.5303V102.485L62.0457 103.353V95.5418H74.3594V107.883H69.8565L71.1035 108.612V109.394H74.3594V121.727H71.0602V123.245H74.3681V135.578H71.0082V137.088H74.3768V145.967C74.8501 146.019 75.3524 146.063 75.8835 146.097V137.106H88.1972V146.653H89.704V137.106H101.992V146.774H103.507V137.106H115.812V146.471L117.319 146.401V137.106H124.809L124.87 135.596H117.319V123.263H125.407L125.485 121.744H117.319V109.411H126.022L126.091 107.901H117.319V95.5592H129.633V105.688L131.139 104.82V95.5592H141.877L141.193 94.049ZM74.3594 94.049H62.0457V81.7421H74.3594V94.049ZM88.2146 135.596H75.8662V123.263H88.1799L88.2146 135.596ZM88.2146 121.709H75.8662V109.411H88.1799L88.2146 121.709ZM88.2146 107.823H75.8662V95.5592H88.1799L88.2146 107.823ZM88.2146 93.9362H75.8662V81.7421H88.1799L88.2146 93.9362ZM88.2146 80.0497H75.8662V67.8556H88.1799L88.2146 80.0497ZM102.026 135.448H89.6867V123.263H101.992L102.026 135.448ZM102.026 121.562H89.6867V109.411H101.992L102.026 121.562ZM102.026 107.675H89.6867V95.5592H101.992L102.026 107.675ZM102.026 93.7886H89.6867V81.7421H101.992L102.026 93.7886ZM102.026 79.9021H89.6867V67.8556H101.992L102.026 79.9021ZM115.881 135.301H103.507V123.263H115.812L115.881 135.301ZM115.881 121.414H103.507V109.411H115.812L115.881 121.414ZM115.881 107.528H103.507V95.5592H115.812L115.881 107.528ZM115.881 93.6411H103.507V81.7421H115.812L115.881 93.6411ZM115.881 79.7546H103.507V67.8556H115.812L115.881 79.7546ZM129.737 93.6411H117.319V81.7421H129.633L129.737 93.6411Z" fill="white"/>
</g>
<path d="M110.928 58.2392C109.751 63.2036 106.98 68.0552 100.606 68.0031C90.215 67.9077 87.1756 59.9924 86.3616 56.7724L89.7388 56.2517L107.214 57.7098L110.348 58.1437C110.539 58.1698 110.738 58.1958 110.928 58.2392Z" fill="white"/>
<path d="M124.013 104.933L122.688 84.8058" stroke="#1F2251" stroke-width="0.53" stroke-linecap="round" stroke-linejoin="round"/>
<path d="M115.353 24.3909C115.353 24.3909 117.518 26.7603 115.812 30.8742C114.211 34.5047 113.292 38.4003 113.102 42.3652C112.972 45.5678 99.0389 47.4598 94.2503 48.0066C93.2631 48.1281 92.6656 48.1802 92.6656 48.1802L88.8728 40.7162C88.3705 39.3883 87.1409 36.8887 86.1017 33.9986C84.3698 29.3119 83.045 23.5837 85.7727 20.2423C90.189 14.8092 95.0989 17.2133 102.633 13.4987C110.166 9.78405 113.959 6.30375 118.289 11.3984C122.619 16.493 115.353 24.3909 115.353 24.3909Z" fill="#1F2251"/>
<path d="M95.497 46.3923L94.2154 48.0066C93.2283 48.1281 92.6308 48.1802 92.6308 48.1802L88.8379 40.7162C88.3357 39.3883 87.106 36.8887 86.0669 33.9986C89.8078 32.4711 92.3969 28.5482 92.3969 28.5482L95.497 46.3923Z" fill="#161937"/>
<path d="M107.213 57.7098C107.213 57.7098 107.568 65.0957 99.5927 64.8006C91.6174 64.5055 89.7383 56.2517 89.7383 56.2517L91.9551 55.783C91.9551 55.783 92.7604 46.9912 91.9551 40.7162L107.222 48.5273C107.073 48.6718 106.937 48.8286 106.815 48.996C105.083 51.4435 105.239 57.0241 105.239 57.0241L107.213 57.7098Z" fill="#F0C9CF"/>
<path d="M105.239 57.0068C95.4106 57.2932 92.6655 45.7761 92.6655 45.7761L106.815 48.9787C105.023 51.4262 105.239 57.0068 105.239 57.0068Z" fill="#D683A7"/>
<path d="M114.124 41.3671C114.155 42.737 114.074 44.1071 113.881 45.4636C113.085 50.7665 110.262 54.5246 103.438 53.9778C93.3756 53.162 91.5398 43.2505 91.5398 43.2505C90.8064 43.8549 89.8718 44.1587 88.924 44.1008C87.9762 44.0428 87.0855 43.6274 86.4308 42.938C83.9195 40.4558 85.1925 36.6891 87.6344 36.2639C88.9507 36.0382 90.2323 37.3748 91.1588 38.6593C91.2451 38.7807 91.3676 38.8716 91.5087 38.9187C91.6499 38.9658 91.8023 38.9667 91.944 38.9213C92.0857 38.8759 92.2093 38.7866 92.2969 38.6661C92.3846 38.5457 92.4319 38.4004 92.4318 38.2514V28.5482C92.4318 28.5482 104.694 29.0602 111.976 26.3784H112.106C113.187 27.4598 113.807 28.9187 113.838 30.4489C114.011 32.6447 113.621 35.0835 113.838 37.1491C114.008 38.549 114.103 39.957 114.124 41.3671Z" fill="#F0C9CF"/>
<path d="M106.815 43.3286L107.785 42.7558C108.1 42.5715 108.336 42.2781 108.449 41.9311C108.563 41.584 108.545 41.2074 108.4 40.8724L106.815 37.2012" stroke="#C85E8B" stroke-width="0.53" stroke-miterlimit="9" stroke-linecap="round"/>
<path d="M103.291 39.8049C103.261 39.9357 103.196 40.0555 103.101 40.1505C103.007 40.2456 102.888 40.312 102.758 40.3421C102.627 40.3723 102.491 40.3649 102.365 40.3209C102.238 40.2768 102.127 40.1979 102.044 40.0933C101.96 39.9886 101.908 39.8624 101.892 39.7292C101.877 39.596 101.9 39.4612 101.958 39.3404C102.016 39.2196 102.107 39.1176 102.22 39.0462C102.333 38.9748 102.464 38.937 102.598 38.937C102.803 38.9631 102.99 39.0683 103.12 39.2303C103.249 39.3923 103.31 39.5984 103.291 39.8049Z" fill="black"/>
<path d="M110.937 40.2649C111.319 40.2649 111.63 39.8724 111.63 39.3883C111.63 38.9042 111.319 38.5117 110.937 38.5117C110.554 38.5117 110.244 38.9042 110.244 39.3883C110.244 39.8724 110.554 40.2649 110.937 40.2649Z" fill="black"/>
<path d="M86.8379 38.937C88.3187 38.0691 90.1198 39.5185 89.7648 41.6362" stroke="#C85E8B" stroke-width="0.53" stroke-miterlimit="9" stroke-linecap="round"/>
<path d="M103.507 47.2862C104.106 47.8542 104.878 48.2047 105.699 48.2818C106.519 48.3589 107.342 48.1581 108.036 47.7115" stroke="#C85E8B" stroke-width="0.53" stroke-miterlimit="9" stroke-linecap="round"/>
<path d="M99.2466 36.0209C99.7328 35.3672 100.421 34.8934 101.205 34.6736C101.988 34.4537 102.822 34.5002 103.576 34.8058" stroke="#1F2251" stroke-width="0.79" stroke-linecap="round" stroke-linejoin="round"/>
<path d="M113.102 34.9186C113.102 34.9186 111.37 33.0179 108.625 34.7624" stroke="#1F2251" stroke-width="0.79" stroke-linecap="round" stroke-linejoin="round"/>
<path d="M99.6016 45.7761C100.95 45.7761 102.044 44.6803 102.044 43.3286C102.044 41.9769 100.95 40.8811 99.6016 40.8811C98.253 40.8811 97.1597 41.9769 97.1597 43.3286C97.1597 44.6803 98.253 45.7761 99.6016 45.7761Z" fill="#EAB7C0"/>
<path d="M114.124 41.3671C114.155 42.737 114.074 44.1071 113.881 45.4637C113.515 45.6652 113.104 45.7725 112.686 45.7761C112.038 45.7761 111.417 45.5182 110.959 45.0592C110.501 44.6002 110.244 43.9777 110.244 43.3286C110.244 42.6795 110.501 42.057 110.959 41.598C111.417 41.139 112.038 40.8811 112.686 40.8811C113.206 40.8771 113.712 41.0483 114.124 41.3671Z" fill="#EAB7C0"/>
<path d="M119.319 123.671H106.755C106.415 123.684 106.078 123.617 105.769 123.475C105.46 123.333 105.189 123.121 104.978 122.855C104.766 122.589 104.62 122.276 104.551 121.943C104.482 121.61 104.492 121.265 104.581 120.937L109.898 94.6739C110.07 93.9205 110.485 93.2448 111.078 92.7508C111.671 92.2568 112.409 91.9719 113.18 91.94H127.537C127.876 91.9269 128.214 91.9939 128.523 92.1356C128.831 92.2774 129.102 92.4899 129.314 92.756C129.525 93.0221 129.672 93.3343 129.74 93.6675C129.809 94.0007 129.799 94.3454 129.711 94.6739L122.593 120.937C122.421 121.689 122.008 122.363 121.416 122.857C120.825 123.351 120.088 123.637 119.319 123.671Z" fill="#2A3551"/>
<path d="M121.121 124.79H108.573C108.234 124.803 107.896 124.736 107.588 124.595C107.279 124.453 107.008 124.24 106.796 123.974C106.585 123.708 106.439 123.396 106.37 123.063C106.301 122.73 106.311 122.385 106.4 122.056L111.716 95.7935C111.889 95.0401 112.303 94.3644 112.896 93.8704C113.489 93.3764 114.228 93.0915 114.998 93.0596H127.537C127.877 93.0465 128.214 93.1135 128.523 93.2552C128.831 93.397 129.102 93.6095 129.314 93.8756C129.526 94.1417 129.672 94.4539 129.741 94.7871C129.81 95.1203 129.799 95.465 129.711 95.7935L124.394 122.056C124.222 122.808 123.809 123.483 123.218 123.977C122.626 124.471 121.89 124.756 121.121 124.79Z" fill="#364380"/>
<path d="M118.063 119.487C118.063 122.091 114.955 124.374 114.955 124.374C114.955 124.374 115.691 127.906 109.854 129.104C104.018 130.301 98.0948 125.233 98.0948 125.233L60.3656 133.209C57.7804 133.759 55.0935 133.575 52.6065 132.68C50.1195 131.784 47.9308 130.211 46.2859 128.138C44.6411 126.065 43.6052 123.573 43.2946 120.943C42.984 118.313 43.4109 115.648 44.5275 113.247L49.9829 101.452L51.8707 97.347L71.112 108.63L69.7351 110.999L67.7434 114.471L98.2853 113.386C100.212 112.011 101.943 110.379 103.429 108.534C105.455 105.853 106.183 105.236 107.759 106.243C109.335 107.25 107.612 111.832 106.252 113.577C111.127 116.293 116.981 114.193 119.336 114.54C121.692 114.887 121.735 117.665 118.063 119.487Z" fill="#F0C9CF"/>
<path d="M118.055 119.487C115.059 120.789 107.664 119.626 105.594 118.229" stroke="#C85E8B" stroke-width="0.53" stroke-miterlimit="9" stroke-linecap="round"/>
<path d="M114.964 124.374C110.824 125.189 106.174 124.92 103.81 122.551" stroke="#C85E8B" stroke-width="0.53" stroke-miterlimit="9" stroke-linecap="round"/>
<path d="M113.621 104.507C113.445 104.514 113.27 104.48 113.11 104.407C112.95 104.334 112.809 104.224 112.698 104.087C112.588 103.949 112.511 103.787 112.475 103.615C112.438 103.442 112.442 103.263 112.487 103.093L113.492 97.9806C113.577 97.5909 113.79 97.2407 114.095 96.9847C114.401 96.7288 114.782 96.5815 115.18 96.5659C115.356 96.5588 115.531 96.5931 115.692 96.6661C115.852 96.7391 115.993 96.8489 116.103 96.9865C116.214 97.1241 116.29 97.2857 116.327 97.4584C116.364 97.631 116.359 97.8099 116.315 97.9806L115.31 103.093C115.224 103.482 115.012 103.833 114.706 104.088C114.401 104.344 114.019 104.492 113.621 104.507Z" fill="#445EC7"/>
<path d="M67.7349 114.445H57.5947" stroke="#C85E8B" stroke-width="0.53" stroke-miterlimit="9" stroke-linecap="round"/>
<path d="M128.005 118.229L133.391 111.65" stroke="#C85E8B" stroke-width="0.53" stroke-miterlimit="9" stroke-linecap="round"/>
<path d="M71.1035 108.621L82.0923 87.4442" stroke="#1F2251" stroke-width="0.53" stroke-linecap="round" stroke-linejoin="round"/>
<path d="M71.1034 108.63L69.7266 110.999L49.9744 101.487L51.8621 97.3904L71.1034 108.63Z" fill="#D683A7"/>
<path d="M96.8308 192.192L103.81 169.383" stroke="#1F2251" stroke-width="0.53" stroke-linecap="round" stroke-linejoin="round"/>
<path d="M30.716 294.492L52.7543 281.699L56.9368 287.635H66.5747L67.6225 296.592H31.2528C31.0088 296.585 30.7738 296.498 30.5832 296.345C30.3925 296.192 30.2567 295.981 30.1961 295.744C30.1355 295.507 30.1535 295.257 30.2472 295.031C30.341 294.805 30.5055 294.616 30.716 294.492Z" fill="#1F2251"/>
<path d="M72.6132 271.353L53.2156 267.351C51.8993 267.08 50.6127 267.929 50.3417 269.248L49.7081 272.334C49.4372 273.653 50.2846 274.943 51.6009 275.214L70.9985 279.216C72.3147 279.487 73.6014 278.638 73.8723 277.319L74.506 274.233C74.7769 272.914 73.9295 271.624 72.6132 271.353Z" fill="#99A3CA"/>
<path d="M52.8062 267.309L72.9567 271.466" stroke="#1F2251" stroke-width="0.53" stroke-linecap="round" stroke-linejoin="round"/>
<path d="M135.283 267.622L115.81 271.236C114.488 271.481 113.615 272.753 113.86 274.078L114.432 277.175C114.677 278.5 115.947 279.375 117.268 279.129L136.741 275.516C138.063 275.27 138.935 273.998 138.691 272.674L138.118 269.576C137.874 268.251 136.604 267.377 135.283 267.622Z" fill="#99A3CA"/>
<path d="M115.466 271.319L135.694 267.561" stroke="#1F2251" stroke-width="0.53" stroke-linecap="round" stroke-linejoin="round"/>
<path d="M76.6021 138.451L120.809 131.933" stroke="#1F2251" stroke-width="0.53" stroke-linecap="round" stroke-linejoin="round"/>
<path d="M103.273 172.178L100.823 209.376L96.926 192.617L96.952 191.766L103.273 172.178Z" fill="#7988B8"/>
<path d="M274.436 60.8516L264.815 97.1735C264.451 98.5468 263.814 99.8325 262.944 100.954C262.073 102.075 260.985 103.009 259.746 103.7C258.507 104.391 257.142 104.825 255.732 104.976C254.322 105.126 252.897 104.99 251.54 104.577L245.054 102.572L264.642 56.3819L274.436 60.8516Z" fill="#F0C9CF"/>
<path d="M268.548 50.7752C267.777 49.8032 261.663 53.0665 260.191 53.3789C258.719 53.6914 260.035 57.406 262.746 57.0415C265.456 56.677 266.305 53.8129 266.305 53.8129L268.548 50.7752Z" fill="#D683A7"/>
<path d="M264.053 42.9641L263.863 66.7186L266.417 66.1805V42.9727C266.417 42.7228 266.338 42.4793 266.192 42.2767C266.046 42.0742 265.84 41.9229 265.603 41.8445C265.426 41.7873 265.238 41.7727 265.055 41.8017C264.871 41.8307 264.697 41.9026 264.546 42.0116C264.395 42.1206 264.272 42.2635 264.186 42.429C264.101 42.5944 264.055 42.7777 264.053 42.9641Z" fill="#2A3551"/>
<path d="M267.699 51.1831C267.699 51.1831 259.905 59.0377 261.386 61.3116C262.867 63.5855 267.716 59.4456 268.643 58.1698C268.53 60.7735 271.873 63.247 273.838 62.9433C276.861 62.4746 278.073 59.3935 277.146 57.9962C276.22 56.5989 270.582 53.3355 270.582 53.3355C270.582 53.3355 269.197 49.0915 267.699 51.1831Z" fill="#F0C9CF"/>
<path d="M191.366 269.939L188.577 284.372L192.76 291.593L202.857 287.635L206.927 273.549" fill="#F0C9CF"/>
<path d="M167.007 294.492L189.019 281.699L193.193 287.635H202.874L203.922 296.592H167.552C167.308 296.587 167.071 296.501 166.879 296.349C166.687 296.197 166.55 295.986 166.488 295.748C166.427 295.511 166.444 295.26 166.538 295.033C166.631 294.806 166.796 294.616 167.007 294.492Z" fill="#1F2251"/>
<path d="M286.204 269.939L288.992 284.372L284.81 291.593L274.704 287.635L270.643 273.549" fill="#F0C9CF"/>
<path d="M310.563 294.492L288.525 281.699L284.343 287.635H274.748L273.709 296.592H310.078C310.318 296.575 310.546 296.481 310.729 296.324C310.912 296.167 311.039 295.956 311.094 295.721C311.148 295.486 311.126 295.24 311.03 295.019C310.935 294.798 310.771 294.613 310.563 294.492Z" fill="#1F2251"/>
<path d="M288.023 264.827L267.197 269.392L235.408 162.709L210.036 267.561L189.392 264.514L202.649 153.049L204.684 135.882L235.555 133.521L256.286 131.933L256.667 133.521L256.883 134.441L288.023 264.827Z" fill="#647BF4"/>
<path d="M256.883 134.441L202.649 153.049L204.684 135.882L235.555 133.521H256.667L256.883 134.441Z" fill="#4257B2"/>
<path d="M258.295 131.091C258.379 131.737 258.207 132.39 257.814 132.91C257.422 133.429 256.842 133.774 256.199 133.869L206.477 141.202C206.079 141.26 205.674 141.229 205.29 141.112C204.906 140.996 204.552 140.795 204.254 140.526C203.956 140.257 203.72 139.925 203.564 139.555C203.408 139.184 203.335 138.784 203.351 138.382L204.78 99.3259L205.819 70.8586L213.413 54.2382L214.989 50.7665H232.429L234.334 51.0269C234.802 51.0877 235.278 51.1571 235.737 51.2526C239.453 51.9781 242.952 53.5518 245.963 55.8516C248.974 58.1515 251.416 61.1156 253.099 64.5142L263.846 86.2118L253.619 96.6267L258.295 131.091Z" fill="#EBAF65"/>
<path d="M212.174 66.4669C211.853 67.2466 211.717 68.0904 211.776 68.9318L213.69 94.049L212.088 94.9863L204.762 99.3258L195.574 104.724L194.033 105.592L191.123 80.5704C190.502 75.2223 191.585 69.8143 194.217 65.1204C196.849 60.4265 200.894 56.6872 205.775 54.4378L211.984 51.5737L214.989 50.185L217.145 50.7665L218.418 51.1137L215.959 57.189L212.174 66.4669Z" fill="#EBAF65"/>
<path d="M238.863 91.2891L249.48 67.8035C249.68 67.3563 249.977 66.9589 250.348 66.6394C250.719 66.3199 251.156 66.0862 251.627 65.9549L294.812 54.0906C295.539 53.891 297.029 55.6962 296.7 56.3732L280.983 85.6043C280.484 86.6337 279.61 87.4321 278.541 87.8348L237.928 103.266L238.863 91.2891Z" fill="#2A3551"/>
<path d="M239.634 93.0249L250.25 69.5393C250.455 69.0945 250.754 68.6996 251.126 68.3819C251.499 68.0642 251.935 67.8314 252.406 67.6994L295.582 55.8351C295.746 55.7847 295.92 55.7839 296.084 55.8328C296.248 55.8816 296.394 55.9781 296.503 56.1099C296.612 56.2417 296.68 56.403 296.698 56.5734C296.716 56.7438 296.683 56.9158 296.604 57.0675L281.762 87.3401C281.262 88.3723 280.384 89.1713 279.311 89.5706L238.707 105.002L239.634 93.0249Z" fill="#364380"/>
<path d="M250.12 98.5534C250.12 98.5534 250.986 100.593 246.7 104.551C242.413 108.508 235.893 105.948 235.893 105.948L218.643 119.062C216.778 120.453 214.594 121.352 212.291 121.675C209.988 121.998 207.642 121.735 205.467 120.91C203.293 120.085 201.36 118.725 199.848 116.955C198.335 115.185 197.292 113.063 196.813 110.782L196.7 110.183L195.574 104.698L204.762 99.2998L212.088 94.9603L212.339 96.3316L213.482 102.667L232.239 93.4675C232.239 93.4675 236.014 87.3922 237.815 85.2571C239.616 83.1221 241.643 82.7662 242.284 84.1549C242.924 85.5435 238.863 91.263 238.863 91.263C238.863 91.263 240.37 91.1415 244.925 89.5272C249.48 87.9129 252.415 84.7017 253.636 85.6911C254.857 86.6805 254.164 89.5272 252.536 91.7664C252.613 93.0027 252.438 94.2417 252.023 95.4084C251.608 96.575 250.961 97.645 250.12 98.5534Z" fill="#F0C9CF"/>
<path d="M212.339 96.3576L196.7 110.183L195.574 104.698L204.762 99.2998L212.088 94.9863L212.339 96.3576Z" fill="#D683A7"/>
<path d="M235.72 51.2613C235.001 55.3317 232.715 59.4543 226.549 60.1226C221.683 60.6607 218.297 59.1852 215.959 57.1717C214.961 56.3098 214.087 55.3139 213.361 54.2121C212.811 53.3901 212.338 52.5184 211.949 51.6084L214.954 50.2198L217.11 50.8013H232.377L234.282 51.0616C234.784 51.0963 235.261 51.1658 235.72 51.2613Z" fill="white"/>
<path d="M227.017 57.3539C218.462 58.3086 214.998 50.1937 214.998 50.1937L216.73 49.4387C216.892 45.8448 216.776 42.2438 216.383 38.6679L218.825 39.3015L230.836 42.3999C229.728 45.0037 230.022 48.6489 230.161 49.8205C230.161 50.0549 230.204 50.1937 230.204 50.1937L232.403 50.7752C232.403 50.7752 232.767 56.7117 227.017 57.3539Z" fill="#F0C9CF"/>
<path d="M230.169 49.8205C225.354 49.9334 219.241 48.2496 217.362 41.9486C217.248 41.6795 217.196 41.3878 217.212 41.0958C217.227 40.8038 217.309 40.5192 217.451 40.2638C217.593 40.0083 217.792 39.7889 218.031 39.6221C218.271 39.4553 218.545 39.3456 218.834 39.3015L230.845 42.3999C229.719 45.0036 230.031 48.6489 230.169 49.8205Z" fill="#D683A7"/>
<path d="M214.357 34.3631L209.984 28.9821C208.897 27.6373 208.351 25.9343 208.452 24.2069C208.553 22.4794 209.294 20.852 210.529 19.6434C209.974 18.3146 209.717 16.88 209.775 15.4407C209.834 14.0014 210.206 12.5924 210.867 11.3131C211.527 10.0337 212.46 8.91513 213.598 8.03613C214.737 7.15713 216.054 6.53911 217.457 6.22563L221.925 5.2449C222.72 5.07172 223.47 4.73154 224.125 4.24681L228.411 1.11367C228.916 0.74084 229.522 0.529048 230.149 0.50583C230.776 0.482611 231.395 0.64904 231.927 0.983478C232.604 1.40352 233.096 2.06539 233.305 2.83541C233.514 3.60544 233.424 4.42625 233.052 5.13207L231.736 7.62296C231.702 7.68733 231.689 7.76142 231.701 7.83356C231.713 7.90571 231.749 7.97183 231.802 8.02152C231.856 8.07121 231.924 8.10165 231.997 8.10806C232.07 8.11446 232.142 8.09647 232.204 8.05691L239.997 3.20532C240.482 2.90289 241.057 2.78066 241.622 2.85998C242.187 2.9393 242.706 3.21514 243.089 3.63927C243.458 4.05236 243.676 4.57867 243.707 5.13209C243.738 5.6855 243.582 6.23322 243.262 6.68562L237.91 14.193C237.869 14.2503 237.846 14.3196 237.847 14.3905C237.848 14.4614 237.871 14.5303 237.914 14.5868C237.957 14.6433 238.017 14.6845 238.085 14.7043C238.153 14.724 238.225 14.7212 238.291 14.6964L239.599 14.2277C240.25 13.998 240.96 13.9984 241.61 14.2289C242.261 14.4594 242.813 14.9062 243.175 15.4949C243.522 16.0589 243.673 16.7218 243.606 17.3808C243.539 18.0397 243.256 18.6581 242.803 19.1401C240.248 21.8653 235.451 27.3157 234.81 30.4228C233.927 34.6582 214.357 34.3631 214.357 34.3631Z" fill="#1F2251"/>
<path d="M235.425 25.9618C235.216 27.2586 235.121 28.5713 235.139 29.8847C235.139 31.0824 235.373 33.0786 235.408 35.2571C235.448 36.8235 235.314 38.3895 235.01 39.9264C234.248 43.4675 232.152 46.4704 226.844 46.4704C215.985 46.4704 214.885 35.7084 214.885 35.7084C214.875 36.0213 214.78 36.3256 214.612 36.5891C214.443 36.8525 214.206 37.0654 213.927 37.205C213.647 37.3447 213.335 37.406 213.024 37.3824C212.712 37.3588 212.413 37.2512 212.157 37.071C210.33 36.1597 209.715 32.0024 211.768 30.9957C212.98 30.4142 214.27 31.204 215.136 31.9504C215.216 32.0177 215.314 32.0597 215.418 32.0712C215.522 32.0826 215.627 32.063 215.72 32.0146C215.812 31.9663 215.889 31.8916 215.939 31.7998C215.989 31.708 216.011 31.6034 216.002 31.499L215.569 26.4131C218.531 27.281 229.156 24.2954 233.33 20.1642C233.539 21.3619 234.052 22.4855 234.819 23.4275C235.088 23.7858 235.28 24.1956 235.385 24.6316C235.489 25.0675 235.503 25.5203 235.425 25.9618Z" fill="#F0C9CF"/>
<path d="M227.753 37.8087L228.723 37.2446C229.038 37.0588 229.274 36.7638 229.388 36.4153C229.501 36.0668 229.483 35.6888 229.337 35.3525L227.753 31.6813" stroke="#C85E8B" stroke-width="0.53" stroke-miterlimit="9" stroke-linecap="round"/>
<path d="M224.263 33.4171C224.234 33.5479 224.168 33.6677 224.074 33.7628C223.98 33.8578 223.86 33.9242 223.73 33.9544C223.6 33.9845 223.464 33.9771 223.337 33.9331C223.211 33.889 223.099 33.8102 223.016 33.7055C222.932 33.6008 222.88 33.4746 222.865 33.3414C222.85 33.2082 222.872 33.0734 222.93 32.9526C222.988 32.8318 223.079 32.7298 223.192 32.6584C223.306 32.5871 223.437 32.5492 223.57 32.5492C223.776 32.5753 223.963 32.6805 224.092 32.8425C224.222 33.0045 224.283 33.2106 224.263 33.4171Z" fill="black"/>
<path d="M232.567 32.9224C232.538 33.0532 232.472 33.173 232.378 33.2681C232.284 33.3631 232.165 33.4295 232.034 33.4597C231.904 33.4898 231.768 33.4824 231.641 33.4384C231.515 33.3944 231.404 33.3155 231.32 33.2108C231.237 33.1061 231.184 32.9799 231.169 32.8467C231.154 32.7135 231.177 32.5787 231.235 32.4579C231.293 32.3371 231.383 32.2351 231.497 32.1637C231.61 32.0924 231.741 32.0545 231.875 32.0545C232.08 32.0806 232.267 32.1858 232.396 32.3478C232.526 32.5098 232.587 32.7159 232.567 32.9224Z" fill="black"/>
<path d="M220.193 30.5357C220.68 29.882 221.368 29.4082 222.152 29.1884C222.935 28.9686 223.769 29.0151 224.523 29.3206" stroke="#1F2251" stroke-width="0.79" stroke-linecap="round" stroke-linejoin="round"/>
<path d="M234.048 29.3987C234.048 29.3987 232.316 27.498 229.571 29.2425" stroke="#1F2251" stroke-width="0.79" stroke-linecap="round" stroke-linejoin="round"/>
<path d="M224.523 39.9177L228.636 40.1087C228.625 40.3869 228.559 40.6601 228.441 40.9122C228.323 41.1642 228.155 41.39 227.949 41.5761C227.742 41.7622 227.5 41.9049 227.237 41.9957C226.975 42.0865 226.697 42.1236 226.419 42.1049C226.148 42.0956 225.882 42.0305 225.637 41.9136C225.392 41.7967 225.174 41.6304 224.996 41.4252C224.818 41.22 224.684 40.9802 224.603 40.7208C224.522 40.4615 224.494 40.1881 224.523 39.9177Z" fill="white"/>
<path d="M211.534 33.0526C212.755 32.2975 213.854 33.2609 213.629 35.0922" stroke="#C85E8B" stroke-width="0.53" stroke-miterlimit="9" stroke-linecap="round"/>
<path d="M223.882 37.5397C223.882 38.0237 223.739 38.4969 223.471 38.8994C223.202 39.3019 222.821 39.6156 222.375 39.8009C221.929 39.9861 221.438 40.0346 220.964 39.9401C220.49 39.8457 220.055 39.6126 219.714 39.2703C219.372 38.928 219.139 38.4919 219.045 38.0171C218.951 37.5424 218.999 37.0503 219.184 36.6031C219.369 36.1558 219.682 35.7736 220.084 35.5047C220.485 35.2357 220.957 35.0922 221.44 35.0922C221.761 35.091 222.079 35.1536 222.376 35.2761C222.673 35.3987 222.943 35.579 223.17 35.8065C223.397 36.034 223.576 36.3042 223.699 36.6017C223.821 36.8992 223.883 37.2179 223.882 37.5397Z" fill="#EAB7C0"/>
<path d="M235.408 35.2571C235.448 36.8235 235.314 38.3895 235.009 39.9264C234.853 39.9618 234.693 39.9793 234.533 39.9785C234.201 39.9984 233.868 39.9499 233.555 39.8361C233.242 39.7223 232.956 39.5455 232.713 39.3167C232.471 39.0879 232.278 38.8118 232.146 38.5055C232.014 38.1992 231.946 37.869 231.946 37.5353C231.946 37.2017 232.014 36.8715 232.146 36.5652C232.278 36.2588 232.471 35.9827 232.713 35.7539C232.956 35.5251 233.242 35.3484 233.555 35.2346C233.868 35.1208 234.201 35.0723 234.533 35.0922C234.832 35.094 235.128 35.1498 235.408 35.2571Z" fill="#EAB7C0"/>
<path d="M213.482 102.685L206.58 106.182" stroke="#C85E8B" stroke-width="0.53" stroke-miterlimit="9" stroke-linecap="round"/>
<path d="M252.502 91.8011C250.995 94.8301 242.673 96.0018 242.673 96.0018" stroke="#C85E8B" stroke-width="0.53" stroke-miterlimit="9" stroke-linecap="round"/>
<path d="M250.12 98.5534C246.761 102.164 241.184 101.287 241.184 101.287" stroke="#C85E8B" stroke-width="0.53" stroke-miterlimit="9" stroke-linecap="round"/>
<path d="M212.088 94.995L209.213 74.0264" stroke="#1F2251" stroke-width="0.53" stroke-linecap="round" stroke-linejoin="round"/>
<path d="M247.592 111.65L226.549 129.425" stroke="#1F2251" stroke-width="0.53" stroke-linecap="round" stroke-linejoin="round"/>
<path d="M209.43 266.694L189.789 264.151C188.456 263.978 187.236 264.921 187.064 266.257L186.661 269.382C186.489 270.718 187.43 271.94 188.763 272.113L208.404 274.656C209.736 274.828 210.956 273.885 211.129 272.549L211.531 269.425C211.703 268.089 210.763 266.866 209.43 266.694Z" fill="#647BF4"/>
<path d="M189.435 264.124L209.836 266.762" stroke="#1F2251" stroke-width="0.53" stroke-linecap="round" stroke-linejoin="round"/>
<path d="M287.077 262.849L268.066 268.41C266.776 268.788 266.036 270.142 266.412 271.435L267.293 274.459C267.669 275.752 269.02 276.494 270.31 276.117L289.321 270.556C290.612 270.179 291.352 268.825 290.976 267.532L290.095 264.507C289.718 263.214 288.367 262.472 287.077 262.849Z" fill="#647BF4"/>
<path d="M267.725 268.533L287.477 262.752" stroke="#1F2251" stroke-width="0.53" stroke-linecap="round" stroke-linejoin="round"/>
<g style="mix-blend-mode:overlay" opacity="0.25">
<path d="M252.667 71.2231C253.818 70.3552 255.264 70.3552 255.923 71.2231C256.581 72.091 256.156 73.497 255.005 74.3475C253.853 75.1981 252.407 75.2154 251.749 74.3475C251.091 73.4796 251.515 72.0736 252.667 71.2231Z" fill="white"/>
</g>
<g style="mix-blend-mode:overlay" opacity="0.25">
<path d="M253.238 71.9868C253.337 71.8574 253.464 71.7527 253.61 71.6811C253.756 71.6096 253.917 71.573 254.079 71.5744C254.242 71.5757 254.402 71.615 254.546 71.689C254.691 71.763 254.817 71.8698 254.913 72.0009C255.01 72.132 255.075 72.2838 255.103 72.4443C255.13 72.6048 255.121 72.7696 255.074 72.9257C255.027 73.0818 254.945 73.2248 254.834 73.3436C254.723 73.4623 254.585 73.5535 254.433 73.6098C254.334 73.7393 254.207 73.8439 254.061 73.9155C253.915 73.9871 253.754 74.0236 253.592 74.0223C253.429 74.0209 253.269 73.9817 253.124 73.9076C252.979 73.8336 252.854 73.7268 252.757 73.5957C252.661 73.4646 252.596 73.3128 252.568 73.1523C252.54 72.9918 252.55 72.827 252.597 72.671C252.643 72.5149 252.725 72.3718 252.837 72.2531C252.948 72.1343 253.085 72.0432 253.238 71.9868Z" fill="white"/>
</g>
<path d="M237.07 153.032L231.58 178.514" stroke="#1F2251" stroke-width="0.53" stroke-linecap="round" stroke-linejoin="round"/>
<path d="M311.022 83.3911H310.451C310.638 83.3434 310.835 83.3434 311.022 83.3911Z" fill="#364380"/>
<path d="M353.635 244.787L352.241 284.78L356.415 292.001L366.521 288.043L369.188 248.397" fill="#F0C9CF"/>
<path d="M330.662 294.9L352.683 282.107L356.865 288.043H366.538L367.568 296.983H331.199C330.96 296.97 330.731 296.881 330.546 296.729C330.361 296.577 330.229 296.37 330.169 296.138C330.109 295.906 330.125 295.661 330.213 295.438C330.302 295.216 330.459 295.027 330.662 294.9Z" fill="#EBAF65"/>
<path d="M421.023 244.787L433.718 284.78L429.544 292.001L419.439 288.043L405.462 248.397" fill="#F0C9CF"/>
<path d="M455.297 294.9L433.259 282.107L429.076 288.043H419.438L418.391 296.983H454.76C454.999 296.97 455.228 296.881 455.413 296.729C455.598 296.577 455.73 296.37 455.79 296.138C455.85 295.906 455.834 295.661 455.746 295.438C455.657 295.216 455.5 295.027 455.297 294.9Z" fill="#EBAF65"/>
<path d="M354.874 113.16L349.678 264.124L370.348 265.643L378.246 171.241L409.368 268.524L427.717 262.752C427.717 262.752 402.865 160.071 400.076 145.403C397.288 130.735 398.682 123.054 394.274 112.813L354.874 113.16Z" fill="#292F69"/>
<path d="M371.396 11.7889C365.438 10.1572 360.909 18.8884 362.303 29.7112C363.697 40.5339 354.406 50.8967 355.454 55.3144C356.501 59.732 377.172 65.9115 390.957 65.79C404.743 65.6685 409.073 59.6192 406.544 55.3144C404.016 51.0096 399.929 46.8176 400.275 33.8424C400.621 20.8672 391.65 -3.31265 371.396 11.7889Z" fill="#1F2251"/>
<path d="M342.906 73.5925L335.243 90.8117L323.397 62.9693C323.397 62.9693 321.89 53.4223 320.669 50.7752C319.448 48.1281 319.855 44.5523 318.236 44.0229C316.616 43.4935 316.027 46.4097 316.027 48.9179C316.013 50.5545 315.877 52.1878 315.62 53.8042C315.62 53.8042 308.823 47.8677 308.424 45.9931C308.026 44.1184 308.243 37.7914 306.736 36.9755C305.229 36.1597 303.541 38.0257 303.194 43.4328C302.848 48.8398 313.715 64.627 313.715 64.627L321.665 103.266L343.963 107.345L357.203 85.5782L342.906 73.5925Z" fill="#F0C9CF"/>
<path d="M411.195 78.6697L402.994 84.6409L402.215 85.1964L396.093 89.6574L395.166 113.959L391.434 113.889H390.654L379.865 113.672H379.094L368.27 113.438H367.499L356.709 113.221H355.939H354.839C355.023 108.315 354.595 103.405 353.566 98.6055C351.834 89.9264 354.25 83.9726 354.25 83.9726L342.872 73.6445L348.708 64.5576C350.482 61.7897 352.984 59.567 355.939 58.1351C356.19 58.0049 356.45 57.8834 356.709 57.7792C357.55 57.4185 358.419 57.1282 359.307 56.9113L367.464 54.811L367.906 54.6895L368.235 54.6114L371.006 53.891H379.025H379.795H388.541L390.585 54.9672L391.364 55.3838L398.708 59.2373C399.952 59.8754 401.115 60.6623 402.171 61.5806C402.444 61.8009 402.704 62.0356 402.951 62.2837C404.763 64.0409 406.18 66.1654 407.107 68.5152L411.195 78.6697Z" fill="#647BF4"/>
<g style="mix-blend-mode:overlay" opacity="0.25">
<path d="M356.744 57.7271V113.204H355.973V58.083C356.225 57.9528 356.484 57.8313 356.744 57.7271Z" fill="white"/>
</g>
<g style="mix-blend-mode:overlay" opacity="0.25">
<path d="M368.304 54.5246V113.447L367.534 113.421V54.7242L367.984 54.6114L368.304 54.5246Z" fill="white"/>
</g>
<g style="mix-blend-mode:overlay" opacity="0.25">
<path d="M379.864 53.8303V113.672L379.094 113.664V53.8303H379.864Z" fill="white"/>
</g>
<g style="mix-blend-mode:overlay" opacity="0.25">
<path d="M391.434 55.3491V113.907L390.654 113.889V54.9412L391.434 55.3491Z" fill="white"/>
</g>
<g style="mix-blend-mode:overlay" opacity="0.25">
<path d="M402.994 62.2576V84.6409L402.215 85.1964V61.5546C402.487 61.7749 402.747 62.0095 402.994 62.2576Z" fill="white"/>
</g>
<path d="M391.451 55.3578C389.052 60.2614 382.722 63.1689 374.998 62.6135C368.486 62.1708 367.69 57.8226 368.01 54.6027L371.11 53.8042L388.645 53.8563L391.451 55.3578Z" fill="white"/>
<path d="M388.611 53.8563C387.458 55.8469 385.793 57.4912 383.79 58.6177C381.787 59.7443 379.52 60.3119 377.224 60.2614C369.032 60.2614 371.076 53.8042 371.076 53.8042L373.388 53.0491L373.258 49.0481L373.05 43.2071L386.983 38.963C386.649 39.7211 386.433 40.5261 386.342 41.3498C385.701 45.7587 386.403 53.0491 386.403 53.0491L388.611 53.8563Z" fill="#F0C9CF"/>
<path d="M386.983 38.963C386.649 39.7211 386.433 40.5261 386.342 41.3498C382.437 49.239 375.847 49.3258 373.266 49.0307L373.059 43.1897L386.983 38.963Z" fill="#D683A7"/>
<path d="M371.673 17.9597C372.963 24.8335 387.623 29.5896 388.663 30.3708C389.24 31.026 389.549 31.8752 389.529 32.7488C389.54 32.7815 389.561 32.8099 389.588 32.83C389.616 32.8501 389.65 32.8609 389.684 32.8609C389.719 32.8609 389.752 32.8501 389.78 32.83C389.808 32.8099 389.829 32.7815 389.84 32.7488C390.204 31.7334 390.949 30.284 392.196 30.1451C394.135 29.9195 396.006 32.367 394.906 35.3525C393.806 38.3381 389.364 36.7325 389.364 36.7325C389.364 36.7325 385.762 45.5418 377.457 45.7848C369.153 46.0278 367.326 38.9804 367.932 34.6495C368.487 31.6716 368.554 28.6229 368.131 25.6233C367.793 23.063 370.98 21.2664 371.673 17.9597Z" fill="#F0C9CF"/>
<path d="M392.845 31.8722C392.144 32.0805 391.373 33.9812 391.685 34.8665" stroke="#C85E8B" stroke-width="0.53" stroke-miterlimit="9" stroke-linecap="round"/>
<path d="M376.211 37.3574L375.241 36.7933C374.926 36.6075 374.689 36.3125 374.576 35.964C374.463 35.6155 374.48 35.2375 374.626 34.9012L376.211 31.23" stroke="#C85E8B" stroke-width="0.53" stroke-miterlimit="9" stroke-linecap="round"/>
<path d="M379.7 32.9658C379.674 33.0708 379.672 33.1805 379.694 33.2865C379.716 33.3925 379.762 33.492 379.829 33.5775C379.895 33.6629 379.98 33.7321 380.077 33.7796C380.174 33.8272 380.281 33.8519 380.389 33.8519C380.497 33.8519 380.603 33.8272 380.701 33.7796C380.798 33.7321 380.883 33.6629 380.949 33.5775C381.015 33.492 381.061 33.3925 381.084 33.2865C381.106 33.1805 381.104 33.0708 381.077 32.9658C381.104 32.8608 381.106 32.7511 381.084 32.6451C381.061 32.5391 381.015 32.4396 380.949 32.3542C380.883 32.2687 380.798 32.1996 380.701 32.152C380.603 32.1045 380.497 32.0797 380.389 32.0797C380.281 32.0797 380.174 32.1045 380.077 32.152C379.98 32.1996 379.895 32.2687 379.829 32.3542C379.762 32.4396 379.716 32.5391 379.694 32.6451C379.672 32.7511 379.674 32.8608 379.7 32.9658Z" fill="black"/>
<path d="M371.396 32.4711C371.425 32.6019 371.491 32.7217 371.585 32.8168C371.68 32.9118 371.799 32.9782 371.929 33.0084C372.059 33.0385 372.196 33.0311 372.322 32.9871C372.448 32.9431 372.56 32.8641 372.643 32.7595C372.727 32.6548 372.779 32.5286 372.794 32.3954C372.809 32.2622 372.787 32.1274 372.729 32.0066C372.671 31.8858 372.58 31.7838 372.467 31.7124C372.354 31.6411 372.222 31.6032 372.089 31.6032C371.883 31.6293 371.696 31.7345 371.567 31.8965C371.438 32.0585 371.376 32.2646 371.396 32.4711Z" fill="black"/>
<path d="M383.32 28.2531C382.743 27.6839 381.995 27.3217 381.191 27.2228C380.388 27.124 379.574 27.2939 378.877 27.7063" stroke="#1F2251" stroke-width="0.79" stroke-linecap="round" stroke-linejoin="round"/>
<path d="M369.846 28.175C369.846 28.175 371.578 26.2742 374.323 28.0187" stroke="#1F2251" stroke-width="0.79" stroke-linecap="round" stroke-linejoin="round"/>
<path d="M374.392 32.6968C374.394 33.402 374.186 34.0919 373.796 34.6787C373.406 35.2656 372.85 35.723 372.2 35.9929C371.55 36.2628 370.835 36.333 370.145 36.1945C369.455 36.0561 368.821 35.7153 368.325 35.2153C367.829 34.7154 367.492 34.079 367.357 33.3867C367.222 32.6945 367.296 31.9778 367.568 31.3276C367.841 30.6773 368.3 30.1229 368.887 29.7346C369.475 29.3464 370.164 29.1419 370.868 29.147C371.803 29.1539 372.698 29.5306 373.358 30.1953C374.018 30.86 374.39 31.759 374.392 32.6968V32.6968Z" stroke="#647BF4" stroke-width="0.79" stroke-miterlimit="10"/>
<path d="M384.229 32.6967C384.231 33.4009 384.024 34.0897 383.635 34.676C383.246 35.2624 382.692 35.7198 382.044 35.9905C381.395 36.2611 380.681 36.3328 379.992 36.1965C379.302 36.0602 378.669 35.722 378.172 35.2247C377.674 34.7274 377.335 34.0933 377.198 33.4028C377.06 32.7123 377.13 31.9964 377.398 31.3457C377.667 30.695 378.122 30.1387 378.706 29.7473C379.29 29.3559 379.976 29.147 380.679 29.147C381.618 29.1493 382.519 29.5237 383.184 30.1887C383.849 30.8537 384.225 31.7552 384.229 32.6967V32.6967Z" stroke="#647BF4" stroke-width="0.79" stroke-miterlimit="10"/>
<path d="M374.332 31.8722C374.524 31.6783 374.753 31.5244 375.004 31.4194C375.256 31.3144 375.527 31.2603 375.799 31.2603C376.072 31.2603 376.342 31.3144 376.594 31.4194C376.846 31.5244 377.075 31.6783 377.267 31.8722" stroke="#647BF4" stroke-width="0.79" stroke-miterlimit="10"/>
<path d="M377.232 40.5339C377.916 40.7903 378.655 40.8643 379.376 40.7487C380.097 40.633 380.775 40.3318 381.345 39.8743" stroke="#C85E8B" stroke-width="0.53" stroke-miterlimit="9" stroke-linecap="round"/>
<path d="M352.128 112.813H317.724C317.45 112.826 317.179 112.748 316.954 112.591C316.728 112.434 316.561 112.207 316.477 111.945L309.099 85.1096C309.055 84.9512 309.042 84.7854 309.061 84.6219C309.08 84.4584 309.132 84.3003 309.212 84.1567C309.293 84.0132 309.4 83.887 309.53 83.7854C309.659 83.6838 309.807 83.6088 309.965 83.5647L310.39 83.4432H344.889L352.128 112.813Z" fill="#99A3CA"/>
<path d="M331.631 99.4213C331.633 99.9521 331.478 100.471 331.185 100.914C330.892 101.356 330.474 101.701 329.986 101.905C329.497 102.11 328.958 102.164 328.439 102.061C327.919 101.959 327.442 101.704 327.067 101.329C326.691 100.955 326.436 100.477 326.332 99.9564C326.228 99.4359 326.28 98.8963 326.483 98.4057C326.685 97.9152 327.028 97.4958 327.468 97.2008C327.908 96.9057 328.426 96.7482 328.956 96.7482C329.664 96.7482 330.343 97.0295 330.845 97.5306C331.346 98.0317 331.629 98.7116 331.631 99.4213Z" fill="#E6E9FC"/>
<path d="M379.441 109.845H352.129C351.44 109.845 350.882 110.404 350.882 111.095V111.563C350.882 112.254 351.44 112.813 352.129 112.813H379.441C380.129 112.813 380.688 112.254 380.688 111.563V111.095C380.688 110.404 380.129 109.845 379.441 109.845Z" fill="#7988B8"/>
<path d="M353.658 110.662L346.4 84.2721C346.217 83.6067 345.531 83.216 344.867 83.3994L344.416 83.5239C343.752 83.7073 343.362 84.3954 343.545 85.0609L350.803 111.451C350.986 112.116 351.672 112.507 352.336 112.323L352.787 112.199C353.451 112.015 353.841 111.327 353.658 110.662Z" fill="#7988B8"/>
<path d="M423.604 120.494C423.606 122.578 423.041 124.623 421.968 126.408C420.894 128.193 419.355 129.65 417.516 130.621C415.676 131.592 413.607 132.041 411.531 131.919C409.456 131.797 407.453 131.109 405.739 129.928L386.611 116.727C386.611 116.727 376.219 119.019 371.517 118.593C366.815 118.168 361.836 115.686 361.801 114.714C361.767 113.742 380.653 111.763 379.761 110.991C378.869 110.218 370.435 110.123 370.314 108.317C370.192 106.512 372.331 105.87 375.847 105.636C379.363 105.401 383.866 107.189 383.866 107.189L403.012 109.845L397.573 93.9448L396.093 89.6574L411.195 78.6697L412.182 81.8549L423.093 117.127C423.432 118.217 423.604 119.352 423.604 120.494Z" fill="#F0C9CF"/>
<path d="M411.195 78.6697L412.182 81.8636L397.573 93.9535L396.093 89.6574L411.195 78.6697Z" fill="#D683A7"/>
<path d="M403.003 109.845L411.195 110.956" stroke="#C85E8B" stroke-width="0.53" stroke-miterlimit="9" stroke-linecap="round"/>
<path d="M357.645 111.329C357.645 111.418 357.618 111.506 357.569 111.58C357.519 111.654 357.449 111.712 357.367 111.746C357.284 111.78 357.194 111.789 357.107 111.772C357.019 111.754 356.939 111.711 356.876 111.648C356.813 111.585 356.77 111.505 356.753 111.417C356.735 111.329 356.744 111.239 356.778 111.156C356.813 111.074 356.87 111.003 356.944 110.954C357.018 110.904 357.105 110.878 357.194 110.878C357.314 110.878 357.428 110.925 357.513 111.01C357.597 111.095 357.645 111.209 357.645 111.329Z" fill="#1F2251"/>
<path d="M359.472 111.329C359.472 111.418 359.445 111.506 359.396 111.58C359.346 111.654 359.276 111.712 359.194 111.746C359.112 111.78 359.021 111.789 358.934 111.772C358.846 111.754 358.766 111.711 358.703 111.648C358.64 111.585 358.597 111.505 358.58 111.417C358.563 111.329 358.571 111.239 358.606 111.156C358.64 111.074 358.697 111.003 358.771 110.954C358.845 110.904 358.933 110.878 359.022 110.878C359.141 110.878 359.256 110.925 359.34 111.01C359.424 111.095 359.472 111.209 359.472 111.329Z" fill="#1F2251"/>
<path d="M371.511 261.55L351.707 260.954C350.363 260.914 349.241 261.973 349.201 263.32L349.106 266.47C349.066 267.817 350.123 268.942 351.467 268.982L371.271 269.578C372.615 269.618 373.737 268.559 373.777 267.212L373.871 264.062C373.912 262.715 372.855 261.59 371.511 261.55Z" fill="#99A3CA"/>
<path d="M426.891 258.926L407.92 264.623C406.633 265.01 405.902 266.369 406.288 267.659L407.19 270.677C407.576 271.968 408.932 272.7 410.219 272.314L429.19 266.616C430.478 266.23 431.208 264.87 430.823 263.58L429.92 260.562C429.535 259.272 428.178 258.539 426.891 258.926Z" fill="#99A3CA"/>
<path d="M372.253 151.53L381.839 182.575" stroke="#1F2251" stroke-width="0.53" stroke-linecap="round" stroke-linejoin="round"/>
<path d="M356.744 97.8591C361.836 102.572 370.868 103.266 370.868 103.266" stroke="#1F2251" stroke-width="0.53" stroke-linecap="round" stroke-linejoin="round"/>
<path d="M396.102 89.6574L389.598 78.6697" stroke="#1F2251" stroke-width="0.53" stroke-linecap="round" stroke-linejoin="round"/>
<path d="M354.293 83.9205C357.082 78.3573 357.644 71.145 357.644 71.145" stroke="#1F2251" stroke-width="0.53" stroke-linecap="round" stroke-linejoin="round"/>
<path d="M18.3154 297H473.075" stroke="#97A2D4" stroke-width="2.1" stroke-linecap="round" stroke-linejoin="round"/>
<path d="M344.396 0.506134V37.1491L335.208 27.9406H299.999V0.506134H344.396Z" fill="white"/>
<path d="M311.966 7.93541H332.42" stroke="#647BF4" stroke-linecap="round" stroke-linejoin="round"/>
<path opacity="0.25" d="M315.352 12.1448H332.42" stroke="#647BF4" stroke-linecap="round" stroke-linejoin="round"/>
<path opacity="0.25" d="M311.966 16.3541H332.42" stroke="#647BF4" stroke-linecap="round" stroke-linejoin="round"/>
<path opacity="0.25" d="M318.08 20.5634H332.42" stroke="#647BF4" stroke-linecap="round" stroke-linejoin="round"/>
<path d="M139.097 21.7959V58.4301L148.285 49.2303H183.494V21.7959H139.097Z" fill="white"/>
<path d="M171.518 29.2251H151.073" stroke="#EBAF65" stroke-linecap="round" stroke-linejoin="round"/>
<path opacity="0.25" d="M168.133 33.4345H151.073" stroke="#647BF4" stroke-linecap="round" stroke-linejoin="round"/>
<path opacity="0.25" d="M171.518 37.6438H151.073" stroke="#647BF4" stroke-linecap="round" stroke-linejoin="round"/>
<path opacity="0.25" d="M165.414 41.8532H151.073" stroke="#647BF4" stroke-linecap="round" stroke-linejoin="round"/>
</svg>
