<svg width="411" height="360" viewBox="0 0 411 360" fill="none" xmlns="http://www.w3.org/2000/svg">
<g opacity="0.7">
<path d="M301.165 47.1812C295.675 37.5341 291.451 24.5675 300.079 14.8605C315.665 -2.67232 346.834 -6.56916 354.628 20.7072C357.851 31.99 355.575 40.76 351.797 47.1637C348.297 53.0952 352.611 60.5716 359.498 60.5716H409.176V126.854C409.176 132.839 402.453 136.265 397.534 132.847C364.208 109.716 346.831 137 346.795 149.278C346.752 162.916 352.679 195.061 374.109 194.086C383.902 193.647 392.069 190.348 398.049 186.903C403.001 184.05 409.176 187.524 409.176 193.24V255.023H357.765C351.661 255.023 348.021 261.765 351.341 266.886C355.156 272.771 358.349 281.303 358.523 293.446C358.962 324.355 311.768 318.772 300.079 309.031C291.73 302.073 291.387 279.764 297.887 265.967C300.288 260.87 296.339 255.023 290.703 255.023H240.661V187.419C240.661 182.49 235.308 179.46 231.071 181.977C222.458 187.093 209.156 193.513 195.853 194.09C173.45 195.065 170.528 169.739 169.553 150.257C168.693 133.05 201.496 105.198 227.39 122.179C231.629 124.956 240.342 129.032 240.342 123.959V60.5702H293.446C300.324 60.5702 304.568 53.158 301.165 47.1812Z" fill="url(#paint0_linear_9_888)"/>
<path d="M328.697 317.713C325.991 317.709 323.287 317.534 320.603 317.191C311.686 316.067 303.578 313.23 299.448 309.788C290.438 302.279 290.568 279.186 296.995 265.547C297.961 263.501 297.803 261.202 296.564 259.248C295.941 258.256 295.076 257.438 294.051 256.872C293.026 256.306 291.874 256.009 290.703 256.01H240.66C240.399 256.01 240.148 255.905 239.964 255.72C239.779 255.535 239.675 255.285 239.675 255.023V187.419C239.676 186.472 239.425 185.542 238.949 184.724C238.472 183.906 237.787 183.228 236.964 182.761C236.14 182.294 235.207 182.054 234.261 182.065C233.314 182.076 232.387 182.339 231.575 182.825C222.712 188.087 209.328 194.491 195.897 195.075C185.568 195.534 178.112 190.53 173.759 180.228C170.067 171.49 169.063 160.203 168.569 150.306C168.098 140.903 176.827 128.883 189.325 121.724C202.614 114.113 216.685 113.977 227.932 121.354C231.838 123.916 237.114 126.106 238.829 125.182C238.975 125.105 239.357 124.89 239.357 123.959V60.5702C239.357 60.3089 239.46 60.0583 239.645 59.8736C239.83 59.6888 240.081 59.585 240.342 59.585H293.448C294.833 59.5944 296.196 59.2359 297.398 58.5462C298.6 57.8564 299.597 56.8601 300.288 55.659C300.999 54.4483 301.375 53.0708 301.379 51.6671C301.383 50.2634 301.014 48.8839 300.31 47.6694C292.467 33.8916 292.132 22.3195 299.344 14.2057C308.871 3.48867 324.01 -2.06133 336.15 0.705633C345.662 2.87477 352.561 9.8806 355.576 20.4383C358.419 30.3909 357.434 39.5512 352.653 47.6679C351.948 48.8726 351.574 50.2423 351.568 51.6381C351.563 53.0339 351.927 54.4063 352.622 55.6164C353.318 56.8265 354.321 57.8313 355.53 58.529C356.739 59.2267 358.111 59.5925 359.507 59.5894H409.175C409.436 59.5894 409.687 59.6931 409.872 59.8779C410.057 60.0626 410.161 60.3132 410.161 60.5746V126.857C410.177 128.378 409.768 129.873 408.982 131.174C408.196 132.476 407.062 133.532 405.709 134.226C404.341 134.941 402.803 135.268 401.262 135.169C399.722 135.07 398.238 134.55 396.972 133.666C380.435 122.187 368.883 123.991 362.104 127.527C352.361 132.606 347.797 143.518 347.78 149.293C347.747 159.847 351.141 178.846 360.612 187.926C364.444 191.6 368.958 193.335 374.059 193.112C382.163 192.746 390.067 190.373 397.551 186.061C398.833 185.309 400.293 184.91 401.779 184.908C403.266 184.905 404.727 185.298 406.011 186.047C407.279 186.772 408.332 187.821 409.06 189.087C409.789 190.353 410.167 191.791 410.157 193.251V255.023C410.157 255.285 410.053 255.536 409.868 255.721C409.683 255.906 409.432 256.01 409.17 256.01H357.764C356.559 256.009 355.376 256.333 354.34 256.95C353.305 257.566 352.455 258.451 351.881 259.511C351.308 260.571 351.031 261.767 351.082 262.971C351.132 264.175 351.507 265.343 352.168 266.351C356.886 273.629 359.356 282.74 359.51 293.432C359.646 302.974 355.294 310.127 346.927 314.12C341.961 316.49 335.662 317.713 328.697 317.713ZM241.647 254.038H290.703C292.206 254.036 293.686 254.417 295.002 255.143C296.319 255.87 297.429 256.919 298.229 258.192C299.007 259.4 299.466 260.785 299.562 262.219C299.658 263.653 299.389 265.087 298.778 266.388C292.155 280.442 293.148 301.972 300.709 308.275C308.456 314.733 331.866 319.122 346.078 312.342C353.809 308.652 357.665 302.3 357.538 293.46C357.392 283.145 355.027 274.385 350.514 267.423C349.661 266.117 349.177 264.605 349.112 263.046C349.048 261.488 349.406 259.941 350.149 258.569C350.892 257.198 351.992 256.052 353.333 255.255C354.673 254.457 356.204 254.037 357.764 254.038H408.192V193.244C408.2 192.13 407.912 191.034 407.356 190.068C406.801 189.102 405.999 188.301 405.032 187.747C404.046 187.173 402.926 186.873 401.785 186.875C400.645 186.878 399.526 187.184 398.542 187.761C390.782 192.232 382.578 194.692 374.156 195.07C368.511 195.33 363.485 193.397 359.247 189.337C349.326 179.827 345.774 160.169 345.806 149.275C345.825 142.834 350.612 131.282 361.192 125.767C368.452 121.981 380.749 119.996 398.095 132.036C399.061 132.724 400.199 133.13 401.382 133.208C402.565 133.285 403.747 133.031 404.794 132.475C405.826 131.945 406.69 131.139 407.29 130.146C407.889 129.153 408.2 128.013 408.188 126.853V61.5554H359.498C357.754 61.5586 356.041 61.101 354.531 60.2288C353.022 59.3566 351.769 58.1008 350.901 56.5888C350.033 55.0768 349.58 53.3622 349.588 51.6187C349.596 49.8752 350.065 48.1648 350.947 46.6608C355.449 39.0294 356.368 30.3865 353.68 20.9762C350.08 8.37653 341.921 4.0441 335.711 2.62774C324.236 0.00840645 309.883 5.30992 300.82 15.5124C296.219 20.6883 292.693 30.2988 302.026 46.6915C302.902 48.2052 303.361 49.9244 303.356 51.6734C303.351 53.4225 302.881 55.1388 301.995 56.647C301.133 58.1478 299.887 59.3926 298.386 60.2544C296.885 61.1162 295.181 61.5642 293.45 61.5524H241.33V123.956C241.33 125.71 240.481 126.528 239.767 126.913C236.004 128.946 227.225 123.244 226.853 123C216.249 116.044 202.927 116.202 190.311 123.438C178.618 130.137 170.117 141.648 170.544 150.211C171.03 159.931 172.005 171.009 175.582 179.465C179.637 189.061 186.252 193.523 195.818 193.108C208.841 192.542 221.907 186.285 230.575 181.132C231.686 180.468 232.954 180.111 234.249 180.096C235.543 180.081 236.819 180.41 237.945 181.049C239.071 181.688 240.007 182.614 240.659 183.733C241.311 184.851 241.654 186.123 241.654 187.418L241.647 254.038Z" fill="#FCFCFC"/>
<path d="M51.1889 184.125C45.3422 188.048 37.6318 191.861 28.9378 192.731C9.68745 194.656 1.98732 173.481 1.01969 155.192C0.0520547 136.903 16.4243 119.584 30.8628 121.503C37.664 122.409 45.1039 126.733 51.0734 131.052C55.897 134.543 62.6207 131.111 62.6207 125.159V59.4725H129.075C134.613 59.4725 138.283 53.7544 135.969 48.7218C130.755 37.3894 124.898 20.1694 133.066 12.7367C145.761 1.18945 180.051 1.18945 185.833 18.5118C189.068 28.213 184.674 39.8845 180.182 48.2775C177.472 53.3378 181.128 59.4462 186.868 59.4462H243.581V120.278C243.581 126.768 236.242 130.802 230.949 127.046C206.415 109.633 179.621 128 177.159 148.455C174.271 172.517 189.671 192.731 206.035 190.806C214.345 189.828 223.894 185.129 231.282 180.738C236.708 177.513 243.574 181.385 243.574 187.698V254.89H178.257C170.782 254.89 165.783 247.094 169.022 240.357C172.884 232.329 188.708 222.475 187.757 214.869C185.832 199.469 151.542 195.659 133.072 198.526C118.976 200.719 125.983 222.766 133.996 240.437C137.066 247.211 132.175 254.89 124.739 254.89H62.6266V190.107C62.6266 184.227 56.0738 180.849 51.1889 184.125Z" fill="url(#paint1_linear_9_888)"/>
<path d="M243.584 255.875H178.257C176.356 255.879 174.486 255.398 172.824 254.477C171.161 253.557 169.761 252.227 168.756 250.613C167.752 249.031 167.168 247.219 167.06 245.349C166.952 243.478 167.323 241.611 168.138 239.924C169.797 236.475 173.546 232.733 177.156 229.108C182.135 224.129 187.283 218.981 186.783 214.981C186.412 212.018 184.678 209.349 181.628 207.049C174.679 201.808 153.993 196.265 133.227 199.488C130.422 199.927 128.487 201.193 127.313 203.365C124.097 209.312 126.72 221.986 134.895 240.018C135.676 241.721 136.017 243.592 135.886 245.461C135.755 247.33 135.157 249.136 134.146 250.714C133.136 252.291 131.745 253.589 130.102 254.489C128.458 255.389 126.616 255.862 124.742 255.864H62.6265C62.3653 255.864 62.1147 255.76 61.9299 255.575C61.7452 255.39 61.6414 255.14 61.6414 254.879V190.107C61.6533 188.972 61.3515 187.856 60.7694 186.882C60.1873 185.908 59.3474 185.114 58.3424 184.586C57.3155 184.032 56.1555 183.772 54.9902 183.835C53.8249 183.897 52.6996 184.281 51.7385 184.943C44.1889 190.011 36.5502 192.96 29.0357 193.713C22.8265 194.334 17.3978 192.69 12.8871 188.816C9.39802 185.822 1.16146 176.556 0.0403528 155.245C-0.47562 145.451 3.98689 134.943 11.6841 127.838C17.6317 122.35 24.6711 119.686 30.9929 120.53C36.8615 121.312 43.8118 124.584 51.6523 130.257C52.5907 130.942 53.7006 131.353 54.8586 131.445C56.0165 131.537 57.1774 131.306 58.2121 130.778C59.2469 130.25 60.1152 129.446 60.7205 128.455C61.3259 127.463 61.6446 126.323 61.6414 125.162V59.4725C61.6414 59.2112 61.7452 58.9606 61.9299 58.7758C62.1147 58.5911 62.3653 58.4873 62.6265 58.4873H129.08C130.187 58.4886 131.277 58.2111 132.248 57.6804C133.219 57.1498 134.042 56.3831 134.639 55.4511C135.236 54.5191 135.589 53.4517 135.664 52.3474C135.74 51.2432 135.537 50.1375 135.073 49.1325C129.227 36.4159 124.008 19.6475 132.404 12.0059C140.443 4.68433 157.129 1.65719 170.374 5.11699C178.868 7.33435 184.688 11.9869 186.761 18.1976C190.132 28.3138 185.513 40.3917 181.043 48.7467C180.503 49.752 180.233 50.8804 180.259 52.0215C180.285 53.1625 180.607 54.2772 181.194 55.2565C181.78 56.2357 182.61 57.0461 183.604 57.6083C184.597 58.1705 185.719 58.4653 186.861 58.4639H243.574C243.835 58.4639 244.086 58.5679 244.271 58.7529C244.456 58.9379 244.56 59.1889 244.56 59.4505V120.283C244.56 121.974 244.093 123.633 243.21 125.075C242.326 126.518 241.062 127.689 239.556 128.458C236.536 130.018 233.102 129.791 230.372 127.853C219.989 120.47 208.296 119.048 197.48 123.845C186.983 128.496 179.397 138.201 178.152 148.572C176.576 161.696 180.615 174.882 188.689 182.971C193.805 188.099 199.925 190.535 205.937 189.828C214.321 188.841 224.082 183.879 230.794 179.889C232.176 179.062 233.752 178.616 235.362 178.597C236.972 178.578 238.558 178.986 239.959 179.78C241.36 180.573 242.525 181.724 243.336 183.115C244.148 184.506 244.575 186.087 244.576 187.697V254.889C244.576 255.019 244.551 255.148 244.501 255.268C244.451 255.388 244.378 255.497 244.285 255.589C244.193 255.68 244.084 255.753 243.963 255.802C243.843 255.851 243.714 255.876 243.584 255.875ZM145.711 196.677C158.635 196.677 174.233 199.016 182.813 205.488C186.304 208.119 188.296 211.237 188.734 214.748C189.356 219.706 183.861 225.201 178.546 230.515C175.038 234.016 171.425 237.638 169.911 240.785C169.242 242.172 168.937 243.707 169.026 245.244C169.116 246.782 169.596 248.271 170.421 249.571C171.25 250.901 172.405 251.997 173.777 252.756C175.148 253.514 176.69 253.91 178.257 253.907H242.599V187.698C242.598 186.436 242.263 185.197 241.627 184.107C240.991 183.017 240.077 182.115 238.978 181.494C237.88 180.872 236.636 180.553 235.375 180.569C234.113 180.586 232.878 180.936 231.795 181.586C224.926 185.678 214.89 190.758 206.161 191.785C199.549 192.564 192.84 189.927 187.29 184.363C178.798 175.851 174.544 162.047 176.19 148.337C177.516 137.291 185.557 126.97 196.676 122.043C208.163 116.954 220.539 118.445 231.524 126.242C233.642 127.745 236.311 127.917 238.661 126.702C239.846 126.098 240.842 125.177 241.537 124.042C242.232 122.907 242.599 121.602 242.599 120.271V60.4313H186.866C185.385 60.4319 183.929 60.0484 182.64 59.3182C181.351 58.5881 180.273 57.5362 179.512 56.2653C178.751 54.9944 178.332 53.548 178.297 52.067C178.262 50.5861 178.611 49.1213 179.311 47.8156C183.598 39.807 188.047 28.2758 184.897 18.8261C183.043 13.2615 177.71 9.07229 169.882 7.02887C157.215 3.72255 141.338 6.5509 133.736 13.469C130.34 16.5576 126.233 25.1917 136.871 48.3125C137.473 49.6184 137.736 51.0546 137.637 52.489C137.537 53.9233 137.078 55.3095 136.302 56.5198C135.526 57.73 134.457 58.7254 133.195 59.4141C131.933 60.1028 130.518 60.4627 129.08 60.4606H63.6117V125.162C63.613 126.686 63.1926 128.18 62.3972 129.48C61.6018 130.78 60.4623 131.835 59.1048 132.527C57.7473 133.22 56.2247 133.524 54.7054 133.405C53.186 133.286 51.7292 132.749 50.4961 131.853C43.0313 126.445 36.1965 123.212 30.7327 122.483C24.9927 121.717 18.535 124.199 13.0215 129.288C5.74236 136.012 1.52249 145.913 2.00777 155.142C2.75908 169.401 7.30636 181.429 14.1719 187.321C18.2558 190.829 23.1919 192.32 28.8398 191.753C36.0284 191.035 43.3631 188.194 50.6408 183.309C51.9015 182.457 53.3701 181.965 54.8893 181.884C56.4085 181.804 57.921 182.138 59.2647 182.851C60.5868 183.544 61.692 184.588 62.458 185.869C63.2241 187.15 63.6213 188.618 63.6059 190.11V253.912H124.733C126.278 253.911 127.797 253.522 129.151 252.78C130.506 252.038 131.652 250.968 132.484 249.667C133.316 248.366 133.808 246.877 133.914 245.337C134.02 243.796 133.737 242.253 133.091 240.851C124.532 221.97 122.001 209.049 125.571 202.447C127.033 199.732 129.509 198.089 132.916 197.56C136.485 196.999 140.913 196.676 145.711 196.676V196.677Z" fill="#FCFCFC"/>
<path d="M180.697 157.697C180.697 157.697 178.406 151.671 175.727 152.223C173.048 152.776 170.127 154.83 170.127 154.83L165.831 160.64C165.831 160.64 177.892 165.39 182.132 162.667C182.132 162.667 194.451 164.795 210.006 162.243C207.754 157.49 206.412 152.729 205.621 149.035C197.751 153.495 189.265 156.826 180.697 157.697Z" fill="url(#paint2_linear_9_888)"/>
<path d="M245.948 113.983C245.948 113.983 228.311 136.2 205.63 149.035C206.418 152.729 207.76 157.49 210.015 162.243C221.78 160.312 235.397 155.705 246.942 145.467L245.948 113.983Z" fill="url(#paint3_linear_9_888)"/>
<path d="M267.941 212.439C264.493 196.056 261.044 186.567 249.495 155.518C245.861 145.747 242.561 135.858 244.155 125.554L245.947 113.981C245.947 113.981 268.39 106.381 293.269 113.663C293.269 113.663 327.211 128.407 304.156 201.229C293.765 212.855 281.604 216.169 267.941 212.439Z" fill="url(#paint4_linear_9_888)"/>
<path d="M249.767 99.2141L255.587 113.195C255.768 113.629 256.056 114.011 256.424 114.304C256.792 114.597 257.228 114.791 257.692 114.87C261.047 115.445 269.162 116.343 274.493 112.84C274.643 112.74 274.771 112.611 274.871 112.461C274.97 112.311 275.039 112.143 275.073 111.966C275.106 111.789 275.104 111.607 275.067 111.431C275.029 111.254 274.957 111.088 274.854 110.94L264.103 95.5029L249.767 99.2141Z" fill="url(#paint5_linear_9_888)"/>
<path d="M255.786 77.8239C255.542 78.0533 245.471 97.8299 245.471 97.8299L256.885 103.34L269.214 86.0136C269.214 86.0136 259.877 73.9709 255.786 77.8239Z" fill="url(#paint6_linear_9_888)"/>
<path d="M264.028 88.0936L258.335 97.5829C258.249 97.7262 258.144 97.8571 258.022 97.9717C257.345 98.6017 255.026 100.436 253.234 97.9395C251.706 95.8099 250.272 93.8746 248.736 93.0765C248.522 92.967 248.288 92.9011 248.049 92.8825C247.809 92.8639 247.568 92.893 247.34 92.9682C247.111 93.0434 246.9 93.1631 246.718 93.3205C246.537 93.4778 246.388 93.6696 246.281 93.8848C245.342 95.7441 243.525 99.5327 242.384 103.127C242.248 103.562 242.281 104.033 242.477 104.444C242.672 104.856 243.016 105.179 243.439 105.349C245.75 106.286 250.318 107.98 254.371 108.538C254.697 108.584 255.03 108.54 255.333 108.411C255.636 108.282 255.899 108.074 256.093 107.807C257.837 105.419 262.752 98.7449 264.424 97.0713C265.983 95.519 268.859 96.1036 270.156 96.4764C270.398 96.5467 270.653 96.5659 270.903 96.533C271.153 96.5 271.394 96.4156 271.61 96.2849C272.925 95.4927 275.22 93.5209 273.12 90.1809C272.874 89.7761 272.795 89.2912 272.9 88.8291C273.005 88.3671 273.287 87.9643 273.684 87.7063C275.146 86.7401 276.745 84.9291 275.228 81.9911C273.691 79.0195 270.946 78.752 269.078 78.9815C268.673 79.0358 268.261 78.9578 267.903 78.7589C267.545 78.5601 267.261 78.2511 267.093 77.878C267.015 77.6835 266.887 77.513 266.723 77.3832C266.558 77.2535 266.362 77.1691 266.155 77.1383C265.924 77.0978 265.703 77.0116 265.506 76.8849C265.308 76.7582 265.138 76.5934 265.005 76.4003C264.872 76.2071 264.778 75.9894 264.73 75.7597C264.682 75.5301 264.68 75.2932 264.724 75.0628C265.054 73.3804 264.806 71.1966 262.121 69.7203C257.196 67.0118 252.882 71.4246 251.785 75.149C250.689 78.8734 256.194 81.5044 259.658 81.9444C262.203 82.2674 263.604 85.0446 264.158 86.496C264.26 86.7547 264.301 87.033 264.278 87.3099C264.256 87.5868 264.17 87.8548 264.028 88.0936Z" fill="url(#paint7_linear_9_888)"/>
<path d="M262.032 99.9099C262.032 99.9099 264.482 94.1464 267.285 94.3818C270.089 94.6171 272.294 97.4104 268.82 100.549C264.499 104.454 262.032 99.9099 262.032 99.9099Z" fill="url(#paint8_linear_9_888)"/>
<path d="M265.74 356.823C271.16 357.291 280.567 358.053 287.984 358.379C292.442 358.576 295.009 358.139 296.488 357.547C296.488 357.714 296.488 357.871 296.473 358.018C296.453 358.397 296.292 358.756 296.022 359.023C295.751 359.291 295.391 359.449 295.012 359.466C280.998 360.248 269.853 359.736 265.885 359.495C265.697 359.486 265.516 359.428 265.357 359.328C265.198 359.229 265.068 359.089 264.979 358.925C264.889 358.76 264.844 358.575 264.847 358.387C264.849 358.2 264.9 358.016 264.995 357.854C265.219 357.493 265.468 357.149 265.74 356.823Z" fill="url(#paint9_linear_9_888)"/>
<path d="M287.976 358.379C280.56 358.053 271.153 357.291 265.733 356.823C271.062 350.285 287.976 345.878 287.976 345.878H292.755C296.041 350.614 296.516 355.123 296.481 357.547C295.001 358.139 292.435 358.576 287.976 358.379Z" fill="url(#paint10_linear_9_888)"/>
<path d="M293.559 338.079L293.112 346.925C293.089 347.393 292.905 347.838 292.59 348.184C292.275 348.531 291.85 348.758 291.387 348.825C290.184 349.007 288.956 348.907 287.798 348.533C287.39 348.399 287.025 348.158 286.742 347.835C286.46 347.511 286.269 347.118 286.19 346.695L284.646 338.083L293.559 338.079Z" fill="url(#paint11_linear_9_888)"/>
<path d="M355.611 358.313C357.963 357.986 359.026 356.764 359.472 355.458L359.481 355.493C359.827 356.87 359.024 358.298 357.422 358.977C355.484 359.797 353.366 359.937 351.722 359.87C349.958 359.797 348.338 359.066 347.448 357.898L347.435 357.88C349.202 358.757 351.687 358.861 355.611 358.313Z" fill="url(#paint12_linear_9_888)"/>
<path d="M344.524 338.022H348.471C354.473 337.899 358.241 350.557 359.474 355.458C359.029 356.763 357.966 357.985 355.614 358.313C351.694 358.859 349.209 358.751 347.438 357.874C344.196 353.608 342.588 347.359 341.816 343.712C340.933 339.567 344.524 338.022 344.524 338.022Z" fill="url(#paint13_linear_9_888)"/>
<path d="M347.963 329.81L350.155 338.511C350.284 339.031 350.232 339.578 350.009 340.065C349.785 340.551 349.404 340.947 348.926 341.188C347.702 341.816 345.979 342.476 344.395 342.286C344.031 342.237 343.688 342.088 343.404 341.856C343.12 341.623 342.906 341.317 342.787 340.97L339.571 331.815L347.963 329.81Z" fill="url(#paint14_linear_9_888)"/>
<path d="M350.572 332.326C347.85 334.74 338.997 335.059 338.997 335.059C307.106 258.515 293.804 237.445 293.804 237.445C298.41 266.335 294.797 340.494 294.797 340.494C289.535 342.815 282.75 340.494 282.75 340.494C282.323 293.195 275.664 242.372 267.075 209.853C288.63 209.368 300.344 204.668 304.087 201.709C322.059 230.672 350.572 332.326 350.572 332.326Z" fill="url(#paint15_linear_9_888)"/>
<path d="M261.647 231.242L265.614 255.911C265.953 257.985 267.082 259.847 268.764 261.106C270.446 262.366 272.551 262.925 274.636 262.666L334.001 255.425C335.402 255.258 336.697 254.59 337.645 253.544C338.594 252.499 339.134 251.146 339.165 249.735C339.292 243.361 339.042 232.016 336.367 221.681L261.647 231.242Z" fill="url(#paint16_linear_9_888)"/>
<path d="M276.298 261.026C276.257 261.026 276.217 261.012 276.186 260.985C276.155 260.958 276.135 260.921 276.13 260.88C276.124 260.836 276.137 260.791 276.164 260.755C276.191 260.72 276.231 260.696 276.276 260.69L277.619 260.526C277.641 260.523 277.664 260.524 277.685 260.53C277.707 260.536 277.727 260.546 277.745 260.559C277.762 260.573 277.777 260.59 277.788 260.61C277.799 260.629 277.805 260.65 277.808 260.673C277.811 260.695 277.809 260.717 277.803 260.738C277.797 260.76 277.787 260.78 277.774 260.797C277.76 260.815 277.743 260.83 277.724 260.84C277.705 260.851 277.684 260.858 277.662 260.861L276.317 261.025L276.298 261.026ZM273.158 260.949C273.146 260.95 273.134 260.95 273.122 260.949C272.671 260.847 272.231 260.706 271.806 260.526C271.765 260.509 271.732 260.476 271.715 260.434C271.698 260.392 271.698 260.346 271.715 260.304C271.733 260.263 271.766 260.23 271.808 260.213C271.849 260.196 271.896 260.196 271.938 260.214C272.344 260.385 272.765 260.521 273.196 260.619C273.237 260.628 273.272 260.652 273.296 260.686C273.32 260.72 273.331 260.762 273.326 260.803C273.322 260.844 273.302 260.882 273.271 260.91C273.24 260.938 273.2 260.953 273.158 260.953V260.949ZM280.778 260.48C280.737 260.48 280.697 260.465 280.666 260.438C280.635 260.411 280.615 260.374 280.61 260.334C280.604 260.289 280.617 260.244 280.644 260.209C280.671 260.173 280.711 260.15 280.756 260.143L282.101 259.981C282.145 259.976 282.19 259.988 282.225 260.016C282.26 260.043 282.283 260.084 282.288 260.128C282.294 260.173 282.281 260.217 282.254 260.253C282.226 260.288 282.186 260.311 282.142 260.316L280.797 260.48H280.778ZM285.258 259.934C285.215 259.934 285.174 259.917 285.143 259.888C285.112 259.858 285.093 259.818 285.09 259.775C285.088 259.732 285.101 259.69 285.129 259.657C285.156 259.624 285.195 259.602 285.237 259.597L286.581 259.433C286.603 259.43 286.625 259.431 286.647 259.437C286.668 259.442 286.689 259.452 286.706 259.466C286.724 259.48 286.738 259.497 286.749 259.516C286.76 259.536 286.767 259.557 286.769 259.579C286.772 259.601 286.771 259.624 286.765 259.645C286.759 259.666 286.749 259.686 286.735 259.704C286.722 259.722 286.705 259.736 286.686 259.747C286.666 259.758 286.645 259.765 286.623 259.768L285.278 259.933L285.258 259.934ZM289.738 259.388C289.695 259.387 289.654 259.371 289.623 259.341C289.592 259.312 289.573 259.271 289.57 259.229C289.568 259.186 289.581 259.143 289.609 259.11C289.636 259.077 289.675 259.056 289.717 259.05L291.061 258.886C291.083 258.883 291.105 258.884 291.127 258.89C291.149 258.895 291.169 258.905 291.187 258.919C291.204 258.932 291.219 258.95 291.23 258.969C291.24 258.989 291.247 259.01 291.249 259.033C291.255 259.077 291.242 259.122 291.215 259.157C291.188 259.192 291.147 259.215 291.103 259.221L289.758 259.385L289.738 259.388ZM294.218 258.841C294.175 258.841 294.134 258.824 294.103 258.795C294.072 258.765 294.053 258.725 294.05 258.682C294.048 258.639 294.062 258.597 294.089 258.564C294.116 258.531 294.155 258.509 294.197 258.503L295.541 258.34C295.563 258.337 295.585 258.338 295.607 258.344C295.628 258.35 295.648 258.36 295.666 258.373C295.683 258.387 295.698 258.404 295.709 258.423C295.72 258.443 295.727 258.464 295.729 258.486C295.735 258.53 295.722 258.575 295.695 258.61C295.668 258.646 295.627 258.669 295.583 258.675L294.238 258.838L294.218 258.841ZM269.286 258.758C269.24 258.757 269.197 258.739 269.165 258.707C268.846 258.373 268.556 258.013 268.299 257.629C268.278 257.592 268.272 257.548 268.282 257.507C268.292 257.465 268.317 257.429 268.352 257.405C268.388 257.381 268.431 257.372 268.473 257.378C268.515 257.385 268.554 257.407 268.58 257.441C268.825 257.808 269.102 258.153 269.409 258.471C269.441 258.503 269.458 258.546 269.458 258.591C269.458 258.636 269.441 258.679 269.409 258.711C269.376 258.742 269.332 258.759 269.286 258.758ZM298.698 258.294C298.655 258.294 298.614 258.277 298.583 258.248C298.552 258.218 298.533 258.178 298.53 258.135C298.528 258.092 298.542 258.05 298.569 258.017C298.596 257.984 298.635 257.962 298.678 257.957L300.021 257.793C300.043 257.79 300.065 257.791 300.087 257.797C300.108 257.802 300.129 257.812 300.146 257.826C300.164 257.84 300.179 257.857 300.189 257.876C300.2 257.896 300.207 257.917 300.209 257.939C300.215 257.984 300.202 258.028 300.175 258.064C300.148 258.099 300.107 258.122 300.063 258.128L298.718 258.292L298.698 258.294ZM303.178 257.748C303.135 257.747 303.094 257.731 303.063 257.701C303.032 257.672 303.013 257.631 303.01 257.589C303.008 257.546 303.022 257.503 303.049 257.47C303.076 257.437 303.115 257.416 303.158 257.41L304.501 257.246C304.544 257.243 304.587 257.257 304.621 257.285C304.654 257.312 304.676 257.352 304.681 257.395C304.686 257.438 304.675 257.482 304.649 257.517C304.623 257.552 304.585 257.575 304.542 257.583L303.199 257.746L303.178 257.748ZM307.658 257.201C307.636 257.202 307.614 257.199 307.593 257.192C307.572 257.185 307.553 257.174 307.536 257.159C307.52 257.144 307.506 257.127 307.496 257.107C307.487 257.087 307.481 257.065 307.48 257.043C307.478 257.021 307.481 256.999 307.489 256.978C307.496 256.957 307.507 256.938 307.522 256.921C307.536 256.905 307.554 256.891 307.574 256.882C307.594 256.872 307.616 256.866 307.638 256.865L308.981 256.7C309.025 256.696 309.068 256.709 309.102 256.737C309.136 256.764 309.158 256.804 309.164 256.848C309.169 256.891 309.158 256.935 309.131 256.97C309.105 257.005 309.067 257.029 309.023 257.036L307.679 257.2L307.658 257.201ZM312.138 256.654C312.094 256.657 312.05 256.642 312.016 256.612C311.983 256.583 311.963 256.541 311.96 256.497C311.957 256.452 311.972 256.408 312.002 256.375C312.031 256.341 312.073 256.321 312.118 256.318L313.461 256.155C313.483 256.151 313.505 256.153 313.527 256.158C313.549 256.164 313.569 256.174 313.586 256.187C313.604 256.201 313.619 256.218 313.63 256.238C313.64 256.257 313.647 256.279 313.65 256.301C313.652 256.323 313.651 256.345 313.645 256.366C313.639 256.388 313.629 256.408 313.616 256.425C313.602 256.443 313.585 256.458 313.566 256.469C313.547 256.48 313.525 256.487 313.503 256.489L312.159 256.653L312.138 256.654ZM316.618 256.109C316.575 256.109 316.534 256.092 316.503 256.063C316.472 256.033 316.453 255.993 316.451 255.95C316.448 255.907 316.462 255.865 316.489 255.832C316.516 255.799 316.555 255.777 316.598 255.772L317.941 255.608C317.963 255.604 317.986 255.605 318.007 255.611C318.029 255.617 318.049 255.627 318.067 255.64C318.085 255.654 318.099 255.671 318.11 255.691C318.121 255.71 318.127 255.732 318.13 255.754C318.132 255.776 318.131 255.798 318.125 255.82C318.119 255.841 318.109 255.861 318.096 255.879C318.082 255.896 318.065 255.911 318.046 255.922C318.027 255.933 318.005 255.94 317.983 255.943L316.639 256.108L316.618 256.109ZM321.098 255.563C321.055 255.562 321.014 255.545 320.983 255.516C320.952 255.486 320.933 255.446 320.931 255.403C320.928 255.36 320.942 255.318 320.969 255.285C320.996 255.252 321.035 255.231 321.078 255.225L322.421 255.061C322.465 255.056 322.51 255.068 322.546 255.095C322.581 255.123 322.604 255.163 322.61 255.207C322.615 255.252 322.603 255.297 322.576 255.332C322.548 255.367 322.508 255.39 322.463 255.396L321.119 255.561L321.098 255.563ZM325.578 255.016C325.535 255.016 325.494 254.999 325.463 254.969C325.432 254.94 325.413 254.899 325.411 254.857C325.408 254.814 325.422 254.772 325.449 254.739C325.476 254.705 325.515 254.684 325.558 254.678L326.903 254.515C326.924 254.512 326.947 254.513 326.968 254.519C326.989 254.525 327.009 254.535 327.027 254.549C327.044 254.562 327.059 254.579 327.069 254.598C327.08 254.618 327.087 254.639 327.09 254.661C327.095 254.705 327.083 254.75 327.055 254.785C327.028 254.82 326.988 254.843 326.943 254.849L325.6 255.013L325.578 255.016ZM267.267 254.789C267.227 254.789 267.188 254.774 267.157 254.747C267.127 254.72 267.107 254.683 267.101 254.643L266.885 253.304C266.877 253.26 266.888 253.215 266.914 253.179C266.94 253.142 266.98 253.118 267.024 253.111C267.068 253.103 267.114 253.114 267.15 253.14C267.186 253.166 267.211 253.206 267.218 253.25L267.434 254.585C267.442 254.629 267.432 254.674 267.406 254.711C267.38 254.748 267.341 254.773 267.297 254.781L267.267 254.789ZM330.058 254.463C330.015 254.463 329.974 254.446 329.943 254.417C329.912 254.387 329.893 254.347 329.891 254.304C329.888 254.261 329.902 254.219 329.929 254.186C329.957 254.153 329.995 254.131 330.038 254.126L331.381 253.962C331.403 253.959 331.426 253.96 331.447 253.966C331.469 253.971 331.489 253.981 331.507 253.995C331.524 254.009 331.539 254.026 331.55 254.045C331.561 254.065 331.567 254.086 331.57 254.108C331.575 254.153 331.563 254.197 331.535 254.233C331.508 254.268 331.468 254.291 331.424 254.297L330.079 254.46L330.058 254.463ZM334.427 253.49C334.39 253.489 334.354 253.477 334.325 253.454C334.296 253.431 334.275 253.399 334.266 253.364C334.257 253.328 334.259 253.29 334.273 253.256C334.287 253.222 334.312 253.193 334.344 253.174C334.724 252.957 335.077 252.695 335.393 252.392C335.41 252.377 335.429 252.365 335.449 252.357C335.47 252.349 335.492 252.345 335.515 252.345C335.537 252.346 335.559 252.351 335.579 252.36C335.599 252.369 335.618 252.382 335.633 252.398C335.649 252.414 335.661 252.433 335.669 252.454C335.677 252.475 335.68 252.497 335.68 252.519C335.679 252.541 335.674 252.563 335.665 252.584C335.656 252.604 335.643 252.622 335.627 252.638C335.29 252.959 334.915 253.238 334.511 253.468C334.486 253.484 334.457 253.494 334.427 253.496V253.49ZM266.55 250.334C266.509 250.334 266.47 250.319 266.439 250.292C266.409 250.265 266.389 250.228 266.383 250.188L266.168 248.852C266.165 248.83 266.165 248.807 266.171 248.785C266.176 248.762 266.186 248.742 266.2 248.724C266.213 248.705 266.231 248.69 266.25 248.679C266.27 248.668 266.292 248.66 266.314 248.658C266.337 248.653 266.36 248.654 266.382 248.659C266.405 248.664 266.425 248.674 266.444 248.688C266.462 248.702 266.477 248.719 266.488 248.739C266.5 248.759 266.507 248.781 266.509 248.804L266.724 250.14C266.727 250.162 266.727 250.185 266.721 250.207C266.716 250.229 266.706 250.25 266.692 250.268C266.679 250.286 266.661 250.302 266.642 250.313C266.622 250.324 266.6 250.332 266.578 250.334H266.55ZM337.077 249.991C337.064 249.992 337.05 249.992 337.036 249.991C337.015 249.985 336.995 249.976 336.977 249.963C336.959 249.95 336.944 249.933 336.932 249.914C336.921 249.895 336.913 249.874 336.91 249.852C336.907 249.83 336.908 249.808 336.914 249.786C337.008 249.399 337.06 249.003 337.069 248.605V248.484C337.069 248.439 337.087 248.397 337.119 248.365C337.151 248.334 337.193 248.316 337.238 248.316C337.283 248.316 337.326 248.335 337.358 248.367C337.389 248.4 337.407 248.443 337.406 248.488V248.612C337.397 249.036 337.342 249.457 337.241 249.868C337.232 249.905 337.211 249.938 337.182 249.961C337.152 249.984 337.115 249.997 337.077 249.997V249.991ZM265.834 245.878C265.793 245.878 265.753 245.863 265.722 245.836C265.691 245.809 265.671 245.772 265.665 245.731L265.448 244.411C265.441 244.367 265.451 244.322 265.477 244.286C265.504 244.249 265.543 244.225 265.587 244.218C265.631 244.211 265.677 244.221 265.713 244.247C265.749 244.274 265.774 244.313 265.781 244.357L265.996 245.695C265.999 245.717 265.998 245.74 265.992 245.762C265.987 245.784 265.977 245.804 265.963 245.823C265.95 245.841 265.933 245.856 265.913 245.867C265.894 245.879 265.872 245.886 265.85 245.889L265.834 245.878ZM337.26 245.49C337.238 245.49 337.216 245.486 337.195 245.478C337.175 245.469 337.156 245.457 337.14 245.441C337.124 245.426 337.112 245.407 337.103 245.387C337.095 245.366 337.09 245.344 337.09 245.322C337.09 244.884 337.085 244.433 337.074 243.97C337.074 243.948 337.078 243.926 337.086 243.905C337.094 243.884 337.106 243.865 337.122 243.849C337.137 243.833 337.156 243.82 337.176 243.812C337.197 243.803 337.219 243.798 337.241 243.798C337.263 243.796 337.286 243.8 337.307 243.808C337.328 243.816 337.347 243.828 337.364 243.843C337.38 243.859 337.393 243.878 337.401 243.899C337.41 243.919 337.414 243.942 337.414 243.964C337.421 244.428 337.425 244.881 337.428 245.319C337.428 245.341 337.424 245.364 337.416 245.384C337.407 245.405 337.395 245.424 337.38 245.439C337.364 245.455 337.345 245.468 337.325 245.477C337.304 245.485 337.282 245.49 337.26 245.49ZM265.117 241.421C265.076 241.421 265.037 241.406 265.006 241.379C264.975 241.352 264.955 241.315 264.949 241.275L264.734 239.937C264.731 239.915 264.732 239.892 264.737 239.87C264.743 239.848 264.753 239.828 264.766 239.81C264.78 239.792 264.797 239.777 264.817 239.765C264.836 239.754 264.858 239.747 264.881 239.744C264.903 239.74 264.926 239.741 264.948 239.746C264.97 239.752 264.991 239.762 265.009 239.775C265.028 239.789 265.043 239.806 265.054 239.826C265.065 239.846 265.073 239.868 265.075 239.89L265.29 241.226C265.293 241.249 265.292 241.272 265.287 241.294C265.281 241.316 265.271 241.336 265.258 241.355C265.244 241.373 265.227 241.388 265.207 241.399C265.188 241.411 265.166 241.418 265.144 241.421H265.117ZM337.152 240.982C337.108 240.982 337.066 240.966 337.034 240.935C337.003 240.905 336.984 240.864 336.982 240.82C336.963 240.382 336.943 239.926 336.918 239.47C336.917 239.447 336.92 239.425 336.927 239.404C336.934 239.383 336.946 239.364 336.96 239.347C336.975 239.33 336.993 239.317 337.013 239.307C337.033 239.298 337.055 239.292 337.077 239.291C337.1 239.288 337.123 239.291 337.144 239.297C337.166 239.304 337.186 239.316 337.202 239.331C337.219 239.346 337.233 239.364 337.242 239.385C337.251 239.406 337.256 239.428 337.256 239.451C337.28 239.908 337.301 240.361 337.32 240.806C337.321 240.828 337.318 240.85 337.31 240.871C337.303 240.892 337.291 240.911 337.276 240.927C337.262 240.944 337.243 240.957 337.223 240.967C337.203 240.976 337.181 240.981 337.159 240.982H337.152ZM264.401 236.972C264.36 236.971 264.321 236.956 264.29 236.929C264.26 236.902 264.239 236.866 264.233 236.825L264.018 235.488C264.012 235.444 264.023 235.399 264.049 235.363C264.076 235.327 264.115 235.303 264.159 235.296C264.203 235.289 264.248 235.3 264.284 235.325C264.32 235.351 264.345 235.39 264.353 235.434L264.568 236.771C264.571 236.794 264.57 236.816 264.565 236.838C264.559 236.86 264.549 236.881 264.536 236.899C264.522 236.917 264.505 236.932 264.485 236.943C264.466 236.954 264.444 236.962 264.422 236.964L264.401 236.972ZM336.876 236.476C336.833 236.476 336.793 236.46 336.761 236.431C336.73 236.402 336.711 236.363 336.708 236.321C336.672 235.875 336.633 235.426 336.591 234.973C336.587 234.929 336.6 234.884 336.629 234.85C336.658 234.815 336.699 234.793 336.744 234.789C336.766 234.787 336.788 234.788 336.809 234.794C336.83 234.8 336.85 234.81 336.867 234.824C336.884 234.837 336.898 234.854 336.909 234.873C336.919 234.893 336.926 234.914 336.928 234.935C336.969 235.388 337.008 235.839 337.045 236.286C337.049 236.331 337.035 236.375 337.005 236.409C336.976 236.444 336.935 236.465 336.89 236.469L336.876 236.476ZM263.683 232.515C263.643 232.515 263.603 232.5 263.573 232.473C263.542 232.446 263.522 232.409 263.517 232.369L263.274 230.859L263.971 230.77C263.993 230.766 264.016 230.768 264.038 230.773C264.059 230.779 264.079 230.789 264.097 230.802C264.115 230.816 264.129 230.833 264.14 230.853C264.151 230.872 264.158 230.894 264.16 230.916C264.163 230.938 264.162 230.96 264.156 230.982C264.15 231.004 264.14 231.024 264.127 231.041C264.113 231.059 264.096 231.074 264.077 231.085C264.057 231.096 264.036 231.103 264.014 231.106L263.664 231.151L263.852 232.32C263.855 232.343 263.854 232.366 263.849 232.388C263.843 232.41 263.833 232.43 263.82 232.449C263.806 232.467 263.789 232.482 263.769 232.493C263.75 232.505 263.728 232.512 263.705 232.515H263.683ZM336.418 231.986C336.377 231.986 336.338 231.971 336.307 231.944C336.276 231.917 336.256 231.88 336.25 231.84C336.194 231.394 336.135 230.948 336.073 230.498C336.07 230.476 336.071 230.453 336.077 230.432C336.083 230.41 336.093 230.39 336.106 230.372C336.12 230.354 336.137 230.34 336.156 230.329C336.176 230.317 336.197 230.31 336.219 230.308C336.241 230.304 336.264 230.305 336.286 230.311C336.308 230.316 336.328 230.326 336.346 230.34C336.364 230.354 336.378 230.371 336.389 230.39C336.4 230.41 336.407 230.432 336.409 230.454C336.472 230.904 336.531 231.351 336.588 231.799C336.593 231.843 336.581 231.888 336.553 231.923C336.526 231.958 336.486 231.981 336.441 231.987L336.418 231.986ZM267.127 230.711C267.084 230.711 267.043 230.695 267.011 230.665C266.98 230.636 266.961 230.595 266.958 230.553C266.955 230.51 266.969 230.467 266.996 230.434C267.024 230.401 267.063 230.379 267.105 230.373L268.447 230.201C268.469 230.197 268.492 230.198 268.514 230.204C268.536 230.209 268.556 230.219 268.574 230.233C268.592 230.246 268.607 230.264 268.617 230.283C268.628 230.303 268.635 230.325 268.637 230.347C268.643 230.392 268.631 230.437 268.603 230.472C268.576 230.508 268.536 230.531 268.491 230.537L267.148 230.71L267.127 230.711ZM271.603 230.138C271.56 230.138 271.518 230.122 271.487 230.092C271.456 230.063 271.437 230.023 271.434 229.98C271.431 229.937 271.445 229.894 271.472 229.861C271.499 229.828 271.538 229.806 271.581 229.801L272.924 229.63C272.946 229.626 272.969 229.626 272.991 229.632C273.013 229.637 273.034 229.647 273.051 229.661C273.069 229.674 273.084 229.692 273.095 229.712C273.106 229.731 273.112 229.753 273.114 229.776C273.12 229.82 273.107 229.865 273.08 229.9C273.053 229.935 273.012 229.958 272.968 229.964L271.625 230.137L271.603 230.138ZM276.08 229.565C276.037 229.565 275.996 229.549 275.964 229.519C275.933 229.49 275.914 229.45 275.911 229.407C275.908 229.364 275.922 229.321 275.949 229.288C275.976 229.255 276.015 229.233 276.058 229.228L277.401 229.055C277.423 229.052 277.446 229.053 277.468 229.059C277.489 229.064 277.51 229.074 277.527 229.088C277.545 229.101 277.56 229.119 277.571 229.138C277.582 229.157 277.589 229.179 277.591 229.201C277.597 229.246 277.584 229.29 277.557 229.326C277.53 229.361 277.489 229.384 277.445 229.39L276.102 229.562L276.08 229.565ZM280.557 228.992C280.514 228.992 280.473 228.976 280.441 228.946C280.41 228.917 280.391 228.877 280.388 228.834C280.385 228.791 280.399 228.748 280.426 228.715C280.454 228.682 280.493 228.66 280.535 228.655L281.878 228.484C281.901 228.48 281.923 228.48 281.945 228.486C281.967 228.491 281.987 228.501 282.005 228.515C282.023 228.529 282.038 228.546 282.048 228.566C282.059 228.585 282.065 228.607 282.067 228.63C282.07 228.652 282.068 228.674 282.063 228.695C282.057 228.717 282.047 228.737 282.033 228.754C282.02 228.772 282.003 228.787 281.983 228.798C281.964 228.809 281.943 228.816 281.921 228.818L280.578 228.991L280.557 228.992ZM285.033 228.419C284.99 228.419 284.948 228.403 284.917 228.373C284.886 228.344 284.867 228.304 284.864 228.261C284.861 228.218 284.875 228.175 284.902 228.142C284.929 228.109 284.968 228.087 285.011 228.082L286.354 227.911C286.376 227.907 286.399 227.907 286.421 227.913C286.443 227.918 286.463 227.928 286.481 227.942C286.499 227.955 286.514 227.973 286.525 227.993C286.536 228.012 286.542 228.034 286.544 228.057C286.55 228.101 286.537 228.146 286.51 228.181C286.482 228.216 286.442 228.239 286.398 228.245L285.055 228.418L285.033 228.419ZM289.51 227.846C289.467 227.846 289.425 227.83 289.394 227.8C289.363 227.771 289.344 227.731 289.341 227.688C289.338 227.645 289.352 227.602 289.379 227.569C289.406 227.536 289.445 227.514 289.488 227.509L290.831 227.338C290.853 227.334 290.876 227.335 290.898 227.341C290.92 227.346 290.94 227.356 290.958 227.37C290.975 227.384 290.99 227.401 291.001 227.42C291.012 227.44 291.019 227.461 291.021 227.484C291.027 227.528 291.014 227.573 290.987 227.609C290.96 227.644 290.919 227.668 290.875 227.674L289.532 227.845L289.51 227.846ZM335.749 227.522C335.708 227.522 335.668 227.507 335.638 227.48C335.607 227.453 335.587 227.416 335.582 227.376C335.503 226.934 335.421 226.492 335.335 226.048C335.331 226.027 335.331 226.004 335.335 225.982C335.34 225.96 335.348 225.94 335.361 225.921C335.373 225.903 335.39 225.887 335.408 225.875C335.427 225.862 335.448 225.854 335.469 225.85C335.491 225.845 335.514 225.845 335.535 225.85C335.557 225.854 335.578 225.863 335.596 225.876C335.614 225.888 335.63 225.904 335.642 225.923C335.654 225.941 335.663 225.962 335.667 225.984C335.754 226.423 335.836 226.873 335.915 227.317C335.923 227.361 335.913 227.407 335.887 227.443C335.861 227.48 335.822 227.505 335.778 227.513C335.77 227.517 335.763 227.52 335.754 227.522H335.749ZM293.987 227.273C293.944 227.273 293.903 227.257 293.871 227.227C293.84 227.198 293.821 227.158 293.818 227.115C293.815 227.072 293.829 227.029 293.856 226.996C293.884 226.963 293.922 226.941 293.965 226.936L295.308 226.765C295.331 226.761 295.353 226.761 295.375 226.767C295.397 226.772 295.418 226.782 295.436 226.796C295.453 226.81 295.468 226.827 295.479 226.847C295.49 226.866 295.496 226.888 295.498 226.911C295.504 226.955 295.492 227 295.464 227.036C295.437 227.071 295.397 227.095 295.352 227.101L294.009 227.272L293.987 227.273ZM298.464 226.7C298.42 226.703 298.376 226.688 298.342 226.659C298.308 226.629 298.288 226.588 298.285 226.543C298.282 226.499 298.297 226.455 298.327 226.421C298.356 226.388 298.398 226.367 298.442 226.364L299.785 226.192C299.808 226.188 299.83 226.189 299.852 226.194C299.874 226.2 299.894 226.21 299.912 226.223C299.93 226.237 299.944 226.254 299.955 226.274C299.966 226.294 299.972 226.315 299.974 226.338C299.98 226.382 299.968 226.427 299.94 226.463C299.913 226.499 299.872 226.522 299.828 226.528L298.485 226.699L298.464 226.7ZM302.94 226.127C302.897 226.127 302.855 226.111 302.824 226.081C302.793 226.052 302.774 226.012 302.771 225.969C302.768 225.926 302.782 225.883 302.809 225.85C302.836 225.817 302.875 225.795 302.918 225.79L304.261 225.619C304.283 225.615 304.306 225.616 304.328 225.621C304.35 225.627 304.37 225.637 304.388 225.65C304.406 225.664 304.421 225.681 304.432 225.701C304.442 225.721 304.449 225.742 304.451 225.765C304.457 225.809 304.444 225.854 304.417 225.89C304.39 225.925 304.349 225.949 304.305 225.955L302.962 226.126L302.94 226.127ZM307.417 225.554C307.395 225.556 307.373 225.553 307.352 225.546C307.331 225.539 307.311 225.527 307.295 225.513C307.278 225.498 307.265 225.481 307.255 225.461C307.245 225.441 307.239 225.419 307.238 225.397C307.236 225.375 307.239 225.353 307.246 225.332C307.254 225.311 307.265 225.292 307.279 225.275C307.294 225.258 307.312 225.245 307.331 225.235C307.351 225.225 307.373 225.22 307.395 225.218L308.738 225.046C308.76 225.042 308.783 225.044 308.805 225.049C308.826 225.055 308.847 225.065 308.864 225.078C308.882 225.092 308.897 225.109 308.908 225.129C308.919 225.148 308.926 225.17 308.928 225.192C308.934 225.236 308.922 225.281 308.895 225.317C308.867 225.353 308.827 225.376 308.782 225.382L307.439 225.553L307.417 225.554ZM311.894 224.981C311.849 224.984 311.806 224.969 311.772 224.94C311.738 224.91 311.718 224.869 311.715 224.824C311.712 224.78 311.727 224.736 311.756 224.702C311.786 224.669 311.828 224.648 311.872 224.645L313.215 224.473C313.238 224.469 313.26 224.471 313.282 224.476C313.303 224.482 313.324 224.492 313.341 224.505C313.359 224.519 313.374 224.536 313.385 224.556C313.396 224.575 313.403 224.597 313.405 224.619C313.411 224.663 313.399 224.708 313.372 224.744C313.344 224.78 313.304 224.803 313.259 224.809L311.917 224.98L311.894 224.981ZM316.37 224.41C316.327 224.409 316.286 224.393 316.255 224.363C316.223 224.334 316.205 224.293 316.202 224.251C316.2 224.208 316.213 224.165 316.241 224.132C316.268 224.099 316.307 224.078 316.349 224.072L317.691 223.9C317.713 223.896 317.736 223.896 317.758 223.901C317.78 223.907 317.801 223.916 317.819 223.93C317.837 223.944 317.852 223.961 317.862 223.981C317.873 224.001 317.879 224.023 317.881 224.046C317.887 224.09 317.875 224.136 317.847 224.171C317.82 224.207 317.779 224.23 317.735 224.236L316.392 224.408L316.37 224.41ZM320.847 223.837C320.806 223.837 320.767 223.822 320.736 223.795C320.705 223.768 320.685 223.731 320.679 223.691C320.673 223.646 320.686 223.602 320.713 223.566C320.74 223.531 320.781 223.508 320.825 223.502L322.168 223.33C322.19 223.326 322.213 223.326 322.235 223.332C322.257 223.337 322.278 223.347 322.295 223.361C322.313 223.375 322.328 223.392 322.339 223.412C322.35 223.431 322.356 223.453 322.358 223.476C322.364 223.52 322.352 223.565 322.324 223.601C322.297 223.637 322.257 223.66 322.212 223.666L320.869 223.838L320.847 223.837ZM325.324 223.264C325.281 223.264 325.24 223.247 325.208 223.218C325.177 223.188 325.158 223.148 325.155 223.105C325.152 223.062 325.166 223.02 325.193 222.987C325.22 222.953 325.259 222.932 325.302 222.926L326.645 222.754C326.667 222.75 326.69 222.751 326.712 222.757C326.734 222.762 326.754 222.772 326.772 222.786C326.79 222.8 326.804 222.817 326.815 222.836C326.826 222.856 326.833 222.878 326.835 222.9C326.841 222.944 326.828 222.989 326.801 223.024C326.774 223.06 326.733 223.083 326.689 223.088L325.347 223.261L325.324 223.264ZM334.825 223.103C334.787 223.103 334.75 223.091 334.721 223.067C334.691 223.044 334.67 223.011 334.661 222.974C334.59 222.682 334.515 222.39 334.443 222.097L334.297 222.116C334.275 222.12 334.253 222.119 334.231 222.113C334.21 222.107 334.189 222.097 334.172 222.084C334.154 222.07 334.139 222.053 334.129 222.033C334.118 222.014 334.111 221.992 334.109 221.97C334.106 221.948 334.107 221.926 334.113 221.904C334.118 221.883 334.128 221.862 334.142 221.845C334.156 221.827 334.173 221.812 334.192 221.801C334.211 221.79 334.233 221.783 334.255 221.78L334.693 221.723L334.73 221.869C334.819 222.21 334.904 222.552 334.987 222.893C334.998 222.936 334.991 222.982 334.967 223.021C334.944 223.059 334.906 223.087 334.863 223.097L334.825 223.103ZM329.797 222.691C329.754 222.691 329.712 222.674 329.681 222.645C329.65 222.616 329.631 222.575 329.628 222.532C329.625 222.489 329.639 222.447 329.666 222.414C329.693 222.381 329.732 222.359 329.775 222.353L331.118 222.181C331.14 222.177 331.163 222.178 331.184 222.184C331.206 222.189 331.226 222.199 331.244 222.213C331.262 222.227 331.276 222.244 331.287 222.264C331.298 222.283 331.304 222.305 331.307 222.327C331.31 222.349 331.308 222.372 331.303 222.393C331.297 222.415 331.287 222.435 331.273 222.453C331.26 222.47 331.243 222.485 331.223 222.496C331.204 222.507 331.183 222.514 331.16 222.517L329.819 222.689L329.797 222.691Z" fill="white"/>
<path d="M276.732 211.035L276.666 209.102C276.737 208.864 276.866 208.649 277.041 208.474C277.217 208.299 277.433 208.171 277.67 208.102C279.481 207.571 283.998 206.468 286.416 207.834L287.03 210.012L276.732 211.035Z" fill="url(#paint17_linear_9_888)"/>
<path d="M282.27 208.454C281.863 208.611 281.424 208.667 280.991 208.616C280.733 208.586 280.493 208.471 280.307 208.289C280.122 208.107 280.003 207.868 279.968 207.611L279.202 201.628L282.247 201.238L283.011 207.216C283.044 207.476 282.989 207.739 282.854 207.963C282.72 208.188 282.514 208.36 282.27 208.454Z" fill="url(#paint18_linear_9_888)"/>
<path d="M306.218 207.263L306.153 205.329C306.223 205.092 306.351 204.875 306.527 204.701C306.702 204.526 306.919 204.398 307.157 204.329C308.966 203.799 313.483 202.695 315.902 204.062L316.514 206.24L306.218 207.263Z" fill="url(#paint19_linear_9_888)"/>
<path d="M311.755 204.686C311.349 204.843 310.91 204.899 310.476 204.848C310.218 204.818 309.977 204.703 309.792 204.52C309.607 204.338 309.488 204.099 309.453 203.841L308.607 197.228L311.65 196.84L312.496 203.448C312.529 203.707 312.474 203.97 312.34 204.195C312.205 204.419 312 204.592 311.755 204.686Z" fill="url(#paint20_linear_9_888)"/>
<path d="M279.079 203.138L311.675 197.866C312.035 197.809 312.366 197.63 312.61 197.359C312.855 197.088 312.999 196.741 313.018 196.376C313.092 194.975 312.947 193.57 312.588 192.213C312.341 191.352 311.796 190.606 311.052 190.106C310.307 189.607 309.41 189.388 308.519 189.486C302.393 190.122 286.845 192.117 278.709 196.603C278.286 196.836 277.926 197.167 277.657 197.569C277.389 197.971 277.221 198.431 277.167 198.911C277.064 199.839 277.072 201.058 277.514 202.245C277.631 202.552 277.852 202.808 278.137 202.971C278.422 203.134 278.755 203.193 279.079 203.138Z" fill="url(#paint21_linear_9_888)"/>
<path opacity="0.58" d="M278.275 201.817C278.174 201.817 278.075 201.782 277.995 201.719C277.915 201.655 277.86 201.567 277.837 201.467C277.655 200.612 277.613 199.733 277.713 198.864C277.786 198.349 277.99 197.862 278.304 197.448C278.619 197.034 279.034 196.707 279.51 196.499C281.278 195.724 284.675 194.358 287.55 193.907C287.668 193.888 287.789 193.917 287.887 193.987C287.984 194.057 288.05 194.163 288.069 194.281C288.089 194.399 288.06 194.521 287.99 194.618C287.92 194.716 287.814 194.781 287.696 194.801C284.819 195.249 281.264 196.715 279.88 197.325C279.546 197.472 279.254 197.701 279.033 197.992C278.812 198.283 278.668 198.625 278.616 198.987C278.531 199.747 278.568 200.516 278.726 201.264C278.752 201.381 278.732 201.503 278.668 201.604C278.605 201.706 278.504 201.778 278.388 201.805C278.351 201.814 278.313 201.818 278.275 201.817Z" fill="white"/>
<path d="M261.447 212.234C272.006 210.746 317.7 204.411 331.197 204.313C331.762 204.307 332.316 204.476 332.78 204.799C333.245 205.121 333.598 205.579 333.79 206.111C335.031 209.561 337.665 217.607 338.524 225.807C338.577 226.351 338.443 226.896 338.142 227.352C337.842 227.808 337.394 228.148 336.874 228.314L307.269 237.936L296.492 239.315L263.344 237.026C262.778 236.988 262.24 236.762 261.817 236.385C261.393 236.007 261.108 235.498 261.006 234.94C260.275 230.847 258.707 221.245 259.024 214.89C259.055 214.234 259.315 213.61 259.757 213.126C260.2 212.641 260.797 212.326 261.447 212.234Z" fill="url(#paint22_linear_9_888)"/>
<path d="M296.415 236.837H296.405L295.053 236.743C295.008 236.74 294.966 236.719 294.937 236.685C294.908 236.651 294.893 236.607 294.896 236.562C294.902 236.519 294.923 236.479 294.956 236.45C294.99 236.421 295.032 236.405 295.076 236.406L296.426 236.499C296.469 236.504 296.507 236.525 296.535 236.557C296.562 236.59 296.577 236.631 296.576 236.674C296.574 236.716 296.557 236.756 296.527 236.787C296.497 236.817 296.457 236.835 296.415 236.837ZM297.65 236.679C297.607 236.679 297.566 236.663 297.534 236.633C297.503 236.604 297.484 236.563 297.481 236.521C297.478 236.478 297.492 236.435 297.519 236.402C297.546 236.369 297.585 236.347 297.628 236.341L298.971 236.17C298.993 236.166 299.016 236.167 299.038 236.172C299.06 236.177 299.081 236.187 299.098 236.201C299.116 236.215 299.131 236.232 299.142 236.252C299.152 236.272 299.158 236.294 299.16 236.317C299.165 236.361 299.153 236.406 299.126 236.442C299.098 236.477 299.058 236.5 299.014 236.507L297.67 236.678L297.65 236.679ZM291.913 236.533H291.904L290.553 236.439C290.531 236.438 290.51 236.432 290.49 236.423C290.47 236.413 290.452 236.399 290.437 236.383C290.422 236.366 290.411 236.346 290.404 236.325C290.397 236.304 290.394 236.282 290.396 236.26C290.401 236.216 290.423 236.175 290.456 236.146C290.49 236.117 290.533 236.101 290.577 236.102L291.927 236.195C291.97 236.2 292.008 236.221 292.036 236.253C292.063 236.286 292.078 236.327 292.076 236.369C292.075 236.412 292.058 236.452 292.028 236.483C291.998 236.513 291.958 236.531 291.916 236.533H291.913ZM287.411 236.222H287.399L286.049 236.13C286.004 236.126 285.962 236.105 285.932 236.071C285.903 236.037 285.888 235.993 285.891 235.948C285.897 235.905 285.919 235.865 285.952 235.837C285.985 235.808 286.027 235.791 286.071 235.79L287.421 235.884C287.463 235.889 287.502 235.91 287.53 235.942C287.557 235.974 287.572 236.015 287.571 236.057C287.569 236.1 287.552 236.14 287.523 236.171C287.493 236.201 287.453 236.219 287.411 236.222ZM302.126 236.113C302.083 236.113 302.042 236.096 302.01 236.067C301.979 236.037 301.961 235.997 301.958 235.954C301.955 235.911 301.969 235.869 301.996 235.836C302.024 235.803 302.063 235.781 302.105 235.776L303.448 235.605C303.471 235.601 303.493 235.602 303.515 235.607C303.537 235.612 303.557 235.622 303.575 235.636C303.593 235.65 303.608 235.667 303.618 235.687C303.629 235.707 303.635 235.729 303.637 235.751C303.642 235.795 303.63 235.84 303.603 235.876C303.575 235.911 303.535 235.935 303.491 235.941L302.148 236.112L302.126 236.113ZM282.907 235.912H282.897L281.545 235.82C281.501 235.816 281.459 235.795 281.43 235.761C281.401 235.727 281.386 235.683 281.389 235.638C281.395 235.595 281.417 235.555 281.45 235.526C281.482 235.497 281.525 235.481 281.569 235.481L282.919 235.574C282.964 235.576 283.007 235.595 283.037 235.628C283.068 235.661 283.084 235.705 283.083 235.749C283.081 235.794 283.062 235.837 283.029 235.868C282.996 235.898 282.952 235.915 282.907 235.913V235.912ZM278.405 235.6H278.394L277.043 235.507C276.998 235.503 276.957 235.483 276.927 235.449C276.897 235.415 276.882 235.371 276.885 235.326C276.892 235.282 276.914 235.243 276.947 235.214C276.98 235.185 277.023 235.169 277.067 235.169L278.417 235.263C278.459 235.268 278.498 235.289 278.526 235.321C278.553 235.353 278.568 235.395 278.566 235.437C278.565 235.479 278.547 235.52 278.518 235.55C278.488 235.58 278.448 235.598 278.405 235.6ZM306.603 235.54C306.56 235.54 306.519 235.523 306.488 235.494C306.456 235.464 306.438 235.424 306.435 235.381C306.433 235.338 306.446 235.296 306.474 235.263C306.501 235.23 306.54 235.208 306.582 235.203L306.668 235.193L307.838 234.808C307.859 234.799 307.883 234.795 307.906 234.795C307.93 234.795 307.953 234.801 307.974 234.811C307.995 234.82 308.015 234.834 308.03 234.852C308.046 234.87 308.057 234.89 308.065 234.912C308.072 234.935 308.074 234.958 308.072 234.982C308.07 235.005 308.062 235.028 308.051 235.048C308.039 235.069 308.024 235.086 308.005 235.1C307.986 235.114 307.964 235.124 307.942 235.13L306.626 235.539L306.603 235.54ZM273.903 235.289H273.892L272.541 235.196C272.519 235.194 272.497 235.189 272.477 235.179C272.457 235.169 272.439 235.155 272.425 235.139C272.41 235.122 272.399 235.102 272.392 235.081C272.385 235.06 272.382 235.038 272.383 235.016C272.389 234.972 272.41 234.932 272.443 234.903C272.477 234.874 272.519 234.858 272.563 234.858L273.914 234.951C273.958 234.955 274 234.976 274.029 235.009C274.059 235.043 274.074 235.087 274.072 235.131C274.067 235.173 274.048 235.211 274.017 235.239C273.985 235.267 273.945 235.282 273.903 235.282V235.289ZM269.4 234.978H269.394L268.044 234.886C267.999 234.882 267.957 234.861 267.928 234.827C267.899 234.793 267.884 234.749 267.887 234.704C267.893 234.661 267.914 234.62 267.947 234.591C267.98 234.562 268.023 234.546 268.067 234.547L269.418 234.64C269.46 234.645 269.498 234.666 269.526 234.698C269.554 234.73 269.568 234.772 269.567 234.814C269.565 234.857 269.548 234.897 269.518 234.927C269.488 234.958 269.448 234.976 269.406 234.978H269.4ZM264.898 234.668H264.886L263.445 234.568L263.42 234.44C263.411 234.394 263.42 234.346 263.444 234.306C263.468 234.266 263.507 234.237 263.552 234.224C263.575 234.218 263.598 234.217 263.622 234.221C263.645 234.225 263.667 234.234 263.686 234.247L264.91 234.33C264.955 234.332 264.997 234.351 265.028 234.384C265.059 234.417 265.075 234.461 265.073 234.506C265.072 234.551 265.053 234.593 265.02 234.624C264.987 234.654 264.943 234.671 264.898 234.669V234.668ZM310.899 234.161C310.858 234.16 310.82 234.146 310.789 234.12C310.759 234.094 310.739 234.057 310.732 234.018C310.726 233.978 310.734 233.938 310.755 233.903C310.776 233.869 310.808 233.843 310.846 233.83L312.134 233.412C312.177 233.399 312.223 233.403 312.263 233.424C312.302 233.444 312.333 233.479 312.347 233.522C312.361 233.565 312.357 233.611 312.337 233.651C312.317 233.691 312.282 233.721 312.239 233.735L310.951 234.153C310.936 234.155 310.921 234.155 310.906 234.153L310.899 234.161ZM315.192 232.766C315.151 232.766 315.113 232.751 315.082 232.725C315.052 232.699 315.032 232.663 315.025 232.623C315.019 232.584 315.027 232.543 315.048 232.509C315.069 232.474 315.101 232.449 315.139 232.436L316.427 232.018C316.469 232.005 316.515 232.009 316.555 232.029C316.595 232.049 316.625 232.084 316.64 232.126C316.647 232.147 316.649 232.17 316.648 232.192C316.646 232.214 316.64 232.236 316.63 232.255C316.619 232.275 316.605 232.293 316.588 232.307C316.571 232.322 316.552 232.333 316.53 232.339L315.243 232.757C315.226 232.761 315.209 232.761 315.192 232.759V232.766ZM263.052 231.42C263.011 231.42 262.972 231.405 262.941 231.378C262.91 231.351 262.89 231.314 262.884 231.274C262.817 230.846 262.745 230.397 262.675 229.933C262.672 229.911 262.673 229.889 262.679 229.867C262.684 229.845 262.694 229.825 262.708 229.807C262.722 229.789 262.738 229.774 262.758 229.762C262.777 229.751 262.799 229.744 262.821 229.741C262.866 229.735 262.911 229.747 262.947 229.774C262.984 229.801 263.007 229.842 263.014 229.887C263.084 230.35 263.16 230.797 263.222 231.226C263.225 231.248 263.224 231.271 263.218 231.293C263.213 231.315 263.203 231.335 263.189 231.353C263.176 231.371 263.159 231.386 263.139 231.397C263.119 231.409 263.098 231.416 263.075 231.419L263.052 231.42ZM319.483 231.372C319.443 231.371 319.404 231.357 319.374 231.331C319.343 231.305 319.323 231.269 319.317 231.229C319.31 231.189 319.318 231.149 319.339 231.114C319.36 231.08 319.392 231.054 319.43 231.041L320.718 230.622C320.739 230.615 320.762 230.613 320.784 230.614C320.806 230.616 320.828 230.622 320.848 230.633C320.867 230.643 320.885 230.657 320.899 230.674C320.914 230.691 320.925 230.71 320.932 230.732C320.939 230.753 320.941 230.775 320.94 230.797C320.938 230.819 320.932 230.84 320.922 230.86C320.912 230.88 320.898 230.897 320.881 230.912C320.864 230.926 320.845 230.937 320.823 230.944L319.536 231.363C319.518 231.366 319.501 231.367 319.483 231.364V231.372ZM323.775 229.976C323.734 229.976 323.696 229.961 323.665 229.935C323.635 229.909 323.615 229.873 323.608 229.833C323.602 229.793 323.61 229.753 323.631 229.718C323.652 229.684 323.684 229.658 323.722 229.646L325.01 229.227C325.052 229.214 325.099 229.218 325.138 229.238C325.178 229.258 325.209 229.293 325.223 229.336C325.23 229.357 325.233 229.379 325.231 229.401C325.23 229.423 325.224 229.445 325.214 229.465C325.204 229.485 325.19 229.502 325.173 229.517C325.156 229.531 325.136 229.542 325.115 229.549L323.827 229.967C323.808 229.971 323.788 229.972 323.769 229.969L323.775 229.976ZM328.067 228.581C328.027 228.581 327.989 228.567 327.958 228.54C327.928 228.514 327.908 228.478 327.901 228.439C327.895 228.399 327.903 228.358 327.924 228.324C327.944 228.29 327.977 228.264 328.015 228.251L329.303 227.833C329.324 227.824 329.347 227.82 329.37 227.821C329.394 227.821 329.416 227.827 329.438 227.837C329.459 227.846 329.477 227.86 329.493 227.878C329.508 227.895 329.52 227.916 329.527 227.938C329.534 227.96 329.537 227.983 329.535 228.006C329.533 228.029 329.526 228.052 329.515 228.072C329.503 228.092 329.488 228.11 329.47 228.124C329.451 228.139 329.43 228.149 329.408 228.155L328.12 228.573C328.103 228.576 328.085 228.576 328.067 228.574V228.581ZM332.36 227.187C332.325 227.187 332.29 227.176 332.261 227.155C332.232 227.134 332.211 227.104 332.2 227.07C332.192 227.049 332.189 227.027 332.191 227.004C332.192 226.982 332.198 226.96 332.209 226.94C332.219 226.921 332.233 226.903 332.25 226.888C332.267 226.874 332.286 226.863 332.308 226.857L333.596 226.437C333.637 226.428 333.68 226.434 333.717 226.455C333.754 226.476 333.782 226.51 333.795 226.55C333.808 226.591 333.806 226.635 333.788 226.673C333.77 226.712 333.739 226.742 333.699 226.759L332.412 227.178C332.395 227.182 332.377 227.182 332.36 227.18V227.187ZM262.4 226.95C262.359 226.951 262.32 226.936 262.289 226.909C262.258 226.882 262.238 226.845 262.233 226.804C262.175 226.366 262.119 225.912 262.064 225.459C262.059 225.415 262.071 225.371 262.099 225.335C262.126 225.3 262.166 225.277 262.21 225.271C262.232 225.268 262.254 225.269 262.276 225.275C262.297 225.281 262.317 225.291 262.335 225.305C262.352 225.318 262.367 225.335 262.378 225.354C262.389 225.374 262.396 225.395 262.399 225.417C262.453 225.869 262.51 226.317 262.567 226.759C262.57 226.781 262.568 226.803 262.563 226.825C262.557 226.846 262.547 226.867 262.533 226.884C262.52 226.902 262.503 226.917 262.483 226.928C262.464 226.939 262.443 226.946 262.421 226.949L262.4 226.95ZM335.787 225.236C335.746 225.236 335.706 225.221 335.675 225.194C335.644 225.167 335.624 225.13 335.619 225.089C335.563 224.642 335.503 224.195 335.437 223.751C335.434 223.728 335.435 223.706 335.441 223.684C335.446 223.662 335.456 223.642 335.47 223.624C335.484 223.606 335.501 223.591 335.52 223.58C335.54 223.569 335.561 223.562 335.583 223.559C335.606 223.555 335.629 223.556 335.651 223.561C335.673 223.567 335.694 223.576 335.712 223.59C335.73 223.604 335.745 223.621 335.756 223.641C335.767 223.661 335.774 223.683 335.776 223.705C335.841 224.154 335.902 224.601 335.958 225.051C335.96 225.073 335.959 225.096 335.953 225.117C335.947 225.139 335.937 225.159 335.924 225.176C335.91 225.194 335.893 225.208 335.874 225.219C335.855 225.23 335.833 225.237 335.811 225.24L335.787 225.236ZM261.902 222.458C261.859 222.459 261.818 222.443 261.787 222.414C261.756 222.385 261.737 222.346 261.734 222.304C261.693 221.852 261.656 221.4 261.621 220.951C261.619 220.929 261.622 220.907 261.629 220.886C261.636 220.864 261.647 220.845 261.662 220.828C261.676 220.811 261.694 220.797 261.714 220.787C261.734 220.777 261.756 220.771 261.778 220.769C261.8 220.768 261.823 220.771 261.844 220.778C261.865 220.785 261.885 220.796 261.902 220.81C261.919 220.825 261.932 220.843 261.942 220.863C261.952 220.883 261.958 220.904 261.96 220.927C261.993 221.374 262.03 221.823 262.07 222.274C262.074 222.318 262.061 222.361 262.034 222.395C262.006 222.429 261.967 222.451 261.924 222.457L261.902 222.458ZM335.076 220.776C335.037 220.776 334.999 220.762 334.968 220.737C334.938 220.712 334.917 220.677 334.91 220.639C334.822 220.193 334.732 219.752 334.641 219.314C334.631 219.27 334.64 219.224 334.664 219.187C334.689 219.149 334.727 219.123 334.771 219.113C334.815 219.104 334.861 219.113 334.899 219.137C334.937 219.162 334.963 219.2 334.972 219.244C335.065 219.683 335.155 220.121 335.241 220.574C335.25 220.618 335.241 220.664 335.216 220.701C335.191 220.738 335.152 220.764 335.108 220.773L335.076 220.776ZM261.63 217.955C261.585 217.955 261.543 217.938 261.511 217.906C261.479 217.875 261.461 217.833 261.46 217.788C261.451 217.423 261.447 217.058 261.447 216.708V216.429C261.447 216.385 261.465 216.342 261.497 216.311C261.528 216.279 261.571 216.261 261.615 216.261C261.637 216.261 261.66 216.265 261.68 216.274C261.701 216.283 261.719 216.295 261.735 216.311C261.751 216.327 261.763 216.346 261.771 216.367C261.78 216.387 261.784 216.41 261.783 216.432V216.708C261.783 217.059 261.788 217.417 261.796 217.781C261.797 217.826 261.78 217.869 261.749 217.902C261.719 217.934 261.676 217.953 261.631 217.955H261.63ZM334.095 216.372C334.058 216.372 334.021 216.359 333.991 216.336C333.962 216.313 333.941 216.28 333.932 216.243C333.821 215.799 333.708 215.361 333.594 214.928C333.588 214.906 333.587 214.884 333.589 214.862C333.592 214.84 333.599 214.819 333.611 214.8C333.622 214.78 333.637 214.764 333.654 214.75C333.672 214.737 333.692 214.727 333.714 214.722C333.757 214.711 333.803 214.717 333.842 214.739C333.881 214.762 333.91 214.798 333.922 214.842C334.034 215.27 334.148 215.708 334.259 216.157C334.265 216.179 334.266 216.201 334.263 216.223C334.259 216.245 334.252 216.266 334.24 216.285C334.229 216.304 334.214 216.321 334.196 216.334C334.178 216.347 334.158 216.356 334.136 216.362C334.123 216.365 334.109 216.366 334.095 216.365V216.372ZM263.3 214.812C263.257 214.813 263.216 214.797 263.184 214.767C263.152 214.738 263.133 214.698 263.13 214.655C263.127 214.612 263.141 214.569 263.168 214.536C263.195 214.502 263.234 214.48 263.277 214.475L264.619 214.288C264.642 214.282 264.666 214.282 264.689 214.287C264.712 214.291 264.734 214.3 264.753 214.314C264.772 214.327 264.789 214.344 264.801 214.364C264.813 214.385 264.821 214.407 264.824 214.43C264.828 214.454 264.826 214.477 264.819 214.5C264.813 214.523 264.802 214.544 264.787 214.562C264.772 214.58 264.753 214.594 264.732 214.605C264.711 214.615 264.688 214.621 264.664 214.622L263.324 214.811L263.3 214.812ZM267.772 214.191C267.729 214.191 267.687 214.175 267.656 214.145C267.625 214.116 267.606 214.076 267.603 214.033C267.6 213.99 267.614 213.947 267.641 213.914C267.668 213.881 267.707 213.859 267.75 213.854L269.09 213.669C269.112 213.666 269.135 213.667 269.157 213.672C269.179 213.678 269.199 213.688 269.217 213.702C269.235 213.715 269.25 213.732 269.261 213.752C269.272 213.772 269.279 213.793 269.282 213.816C269.285 213.838 269.283 213.86 269.278 213.882C269.272 213.903 269.262 213.923 269.248 213.941C269.235 213.959 269.218 213.974 269.198 213.985C269.179 213.996 269.158 214.003 269.135 214.006L267.794 214.191H267.772ZM272.246 213.579C272.203 213.579 272.162 213.562 272.13 213.533C272.099 213.503 272.08 213.463 272.077 213.42C272.074 213.377 272.088 213.335 272.115 213.302C272.142 213.268 272.181 213.247 272.224 213.241L273.566 213.06C273.589 213.055 273.613 213.054 273.636 213.059C273.659 213.063 273.681 213.072 273.7 213.086C273.719 213.099 273.736 213.117 273.748 213.137C273.76 213.157 273.768 213.179 273.771 213.202C273.775 213.226 273.773 213.249 273.766 213.272C273.76 213.295 273.749 213.316 273.734 213.334C273.718 213.352 273.7 213.367 273.679 213.377C273.658 213.388 273.635 213.393 273.611 213.395L272.269 213.577L272.246 213.579ZM276.72 212.975C276.677 212.975 276.636 212.959 276.604 212.929C276.573 212.9 276.554 212.859 276.551 212.817C276.548 212.774 276.562 212.731 276.589 212.698C276.617 212.665 276.656 212.643 276.698 212.637L278.04 212.458C278.062 212.454 278.085 212.456 278.107 212.461C278.128 212.467 278.149 212.477 278.167 212.49C278.184 212.504 278.199 212.521 278.211 212.54C278.222 212.56 278.229 212.581 278.232 212.604C278.237 212.648 278.225 212.693 278.197 212.729C278.17 212.764 278.13 212.788 278.085 212.794L276.744 212.974L276.72 212.975ZM281.196 212.38C281.153 212.38 281.111 212.364 281.08 212.334C281.049 212.305 281.03 212.265 281.027 212.222C281.024 212.179 281.038 212.136 281.065 212.103C281.092 212.07 281.131 212.048 281.174 212.043L282.517 211.866C282.539 211.862 282.562 211.863 282.584 211.869C282.606 211.874 282.627 211.884 282.645 211.898C282.663 211.911 282.678 211.928 282.689 211.948C282.7 211.967 282.708 211.989 282.711 212.011C282.714 212.034 282.712 212.056 282.706 212.078C282.7 212.1 282.69 212.12 282.676 212.138C282.662 212.156 282.645 212.171 282.625 212.182C282.605 212.193 282.583 212.199 282.561 212.202L281.218 212.379L281.196 212.38ZM332.898 212.018C332.862 212.018 332.827 212.006 332.797 211.984C332.768 211.963 332.747 211.933 332.736 211.898C332.602 211.448 332.469 211.021 332.34 210.604C332.326 210.562 332.33 210.515 332.351 210.476C332.371 210.436 332.407 210.406 332.45 210.392C332.492 210.379 332.539 210.383 332.578 210.403C332.618 210.424 332.648 210.459 332.662 210.502C332.792 210.915 332.925 211.348 333.061 211.8C333.067 211.821 333.069 211.844 333.067 211.866C333.065 211.888 333.058 211.909 333.048 211.929C333.037 211.949 333.023 211.966 333.005 211.98C332.988 211.994 332.968 212.004 332.947 212.01C332.931 212.013 332.914 212.013 332.898 212.01V212.018ZM285.673 211.794C285.628 211.797 285.584 211.782 285.551 211.753C285.517 211.723 285.497 211.681 285.494 211.637C285.491 211.592 285.506 211.548 285.535 211.515C285.565 211.481 285.606 211.461 285.651 211.458L286.994 211.284C287.017 211.281 287.039 211.282 287.061 211.287C287.083 211.293 287.104 211.303 287.122 211.316C287.14 211.33 287.155 211.347 287.166 211.366C287.178 211.386 287.185 211.407 287.188 211.43C287.191 211.452 287.189 211.475 287.183 211.496C287.177 211.518 287.167 211.539 287.153 211.556C287.139 211.574 287.122 211.589 287.102 211.6C287.082 211.611 287.061 211.618 287.038 211.62L285.695 211.793L285.673 211.794ZM290.15 211.221C290.107 211.221 290.066 211.204 290.035 211.174C290.004 211.145 289.985 211.105 289.983 211.062C289.98 211.019 289.994 210.977 290.021 210.944C290.048 210.911 290.087 210.889 290.13 210.883L291.473 210.714C291.495 210.71 291.517 210.711 291.539 210.717C291.561 210.723 291.581 210.732 291.599 210.746C291.616 210.76 291.631 210.777 291.642 210.797C291.653 210.816 291.659 210.838 291.661 210.86C291.664 210.882 291.663 210.904 291.657 210.926C291.651 210.947 291.641 210.967 291.628 210.985C291.614 211.002 291.597 211.017 291.578 211.028C291.559 211.039 291.537 211.046 291.515 211.049L290.172 211.22L290.15 211.221ZM294.629 210.658C294.586 210.658 294.545 210.641 294.513 210.612C294.482 210.582 294.464 210.542 294.461 210.499C294.458 210.456 294.472 210.414 294.5 210.381C294.527 210.348 294.566 210.326 294.608 210.321L295.951 210.154C295.974 210.151 295.996 210.152 296.018 210.157C296.039 210.163 296.06 210.173 296.077 210.186C296.095 210.2 296.11 210.217 296.12 210.237C296.131 210.256 296.138 210.278 296.14 210.3C296.143 210.322 296.141 210.345 296.136 210.366C296.13 210.387 296.12 210.407 296.106 210.425C296.093 210.442 296.076 210.457 296.056 210.468C296.037 210.479 296.016 210.486 295.994 210.489L294.651 210.655L294.629 210.658ZM299.107 210.109C299.064 210.108 299.024 210.091 298.993 210.061C298.962 210.032 298.943 209.991 298.941 209.949C298.939 209.906 298.952 209.864 298.98 209.831C299.007 209.798 299.046 209.777 299.088 209.771L300.432 209.61C300.454 209.607 300.476 209.608 300.498 209.613C300.519 209.619 300.54 209.629 300.557 209.643C300.575 209.656 300.59 209.673 300.601 209.693C300.611 209.713 300.618 209.734 300.62 209.756C300.625 209.801 300.613 209.845 300.585 209.88C300.558 209.916 300.518 209.939 300.474 209.945L299.129 210.106L299.107 210.109ZM303.59 209.575C303.549 209.575 303.51 209.56 303.479 209.534C303.448 209.507 303.428 209.47 303.422 209.429C303.419 209.407 303.421 209.385 303.427 209.364C303.432 209.342 303.442 209.322 303.456 209.305C303.47 209.287 303.487 209.273 303.506 209.262C303.525 209.251 303.546 209.244 303.568 209.242L304.914 209.086C304.936 209.082 304.959 209.083 304.98 209.089C305.002 209.095 305.022 209.105 305.039 209.118C305.057 209.132 305.071 209.149 305.082 209.169C305.093 209.188 305.099 209.21 305.102 209.232C305.104 209.254 305.103 209.276 305.097 209.297C305.091 209.319 305.081 209.338 305.068 209.356C305.054 209.373 305.037 209.388 305.018 209.399C304.999 209.409 304.977 209.416 304.955 209.419L303.609 209.575H303.59ZM308.075 209.062C308.032 209.061 307.991 209.044 307.96 209.015C307.929 208.985 307.911 208.945 307.908 208.902C307.906 208.859 307.92 208.817 307.947 208.784C307.974 208.751 308.013 208.73 308.056 208.725L309.4 208.578C309.422 208.575 309.445 208.577 309.466 208.583C309.487 208.589 309.507 208.599 309.525 208.612C309.542 208.626 309.556 208.643 309.567 208.662C309.578 208.681 309.585 208.703 309.587 208.725C309.592 208.769 309.58 208.813 309.553 208.848C309.525 208.883 309.485 208.906 309.441 208.912L308.095 209.058L308.075 209.062ZM312.561 208.572C312.52 208.573 312.48 208.558 312.449 208.531C312.418 208.504 312.398 208.467 312.392 208.426C312.39 208.405 312.391 208.382 312.397 208.361C312.403 208.34 312.413 208.32 312.427 208.303C312.441 208.286 312.457 208.271 312.477 208.261C312.496 208.25 312.517 208.243 312.539 208.241L313.885 208.095C313.908 208.09 313.931 208.091 313.954 208.096C313.977 208.101 313.998 208.111 314.017 208.125C314.036 208.139 314.051 208.157 314.063 208.177C314.074 208.197 314.082 208.22 314.084 208.243C314.087 208.266 314.084 208.29 314.077 208.312C314.07 208.334 314.059 208.355 314.044 208.372C314.028 208.39 314.01 208.404 313.989 208.414C313.968 208.424 313.945 208.43 313.921 208.431L312.574 208.577L312.561 208.572ZM317.051 208.114C317.008 208.112 316.968 208.095 316.937 208.065C316.907 208.035 316.889 207.995 316.887 207.952C316.885 207.91 316.899 207.868 316.926 207.835C316.954 207.802 316.992 207.781 317.035 207.776L318.384 207.646C318.406 207.643 318.428 207.645 318.449 207.651C318.47 207.657 318.489 207.667 318.506 207.68C318.524 207.694 318.538 207.711 318.548 207.73C318.559 207.749 318.566 207.77 318.568 207.792C318.572 207.837 318.558 207.881 318.529 207.916C318.501 207.95 318.459 207.972 318.415 207.976L317.067 208.106L317.051 208.114ZM331.504 207.723C331.469 207.723 331.434 207.712 331.406 207.692C331.377 207.671 331.356 207.643 331.345 207.609L331.172 207.125L330.557 207.134C330.512 207.134 330.469 207.116 330.437 207.085C330.405 207.053 330.387 207.01 330.387 206.965C330.387 206.92 330.405 206.877 330.437 206.845C330.469 206.813 330.512 206.795 330.557 206.795L331.222 206.786C331.276 206.785 331.33 206.8 331.375 206.829C331.421 206.859 331.456 206.902 331.476 206.953L331.671 207.497C331.678 207.518 331.681 207.54 331.68 207.562C331.679 207.584 331.673 207.606 331.663 207.626C331.654 207.646 331.64 207.664 331.624 207.679C331.607 207.694 331.588 207.706 331.567 207.713C331.547 207.72 331.525 207.724 331.504 207.723ZM321.545 207.697C321.503 207.695 321.463 207.678 321.432 207.648C321.402 207.618 321.385 207.577 321.383 207.535C321.381 207.492 321.395 207.451 321.422 207.418C321.45 207.386 321.489 207.365 321.531 207.359C321.993 207.32 322.443 207.283 322.881 207.247C322.904 207.244 322.927 207.246 322.95 207.252C322.972 207.258 322.992 207.269 323.01 207.283C323.028 207.298 323.043 207.316 323.053 207.336C323.064 207.356 323.07 207.379 323.072 207.402C323.074 207.425 323.071 207.448 323.064 207.469C323.056 207.491 323.045 207.511 323.029 207.528C323.014 207.545 322.995 207.559 322.974 207.569C322.953 207.578 322.931 207.584 322.908 207.584L321.56 207.697H321.545ZM326.046 207.349C326.004 207.347 325.964 207.329 325.934 207.299C325.904 207.268 325.887 207.228 325.885 207.186C325.884 207.143 325.898 207.102 325.926 207.069C325.953 207.037 325.992 207.017 326.034 207.011C326.504 206.98 326.955 206.952 327.388 206.928C327.41 206.925 327.433 206.928 327.455 206.934C327.476 206.941 327.496 206.952 327.513 206.967C327.53 206.983 327.543 207.001 327.552 207.022C327.562 207.042 327.566 207.065 327.566 207.087C327.568 207.11 327.564 207.132 327.557 207.153C327.55 207.174 327.539 207.193 327.524 207.21C327.509 207.226 327.491 207.24 327.471 207.25C327.451 207.259 327.429 207.265 327.407 207.266C326.976 207.29 326.526 207.318 326.056 207.349H326.046Z" fill="white"/>
<path d="M306.834 242.59L297.393 243.798C296.796 243.875 296.192 243.732 295.695 243.394C295.197 243.056 294.841 242.548 294.693 241.965L292.439 233.021C292.355 232.684 292.343 232.332 292.405 231.991C292.466 231.649 292.6 231.324 292.796 231.037C292.993 230.751 293.248 230.509 293.544 230.328C293.841 230.148 294.173 230.032 294.518 229.989L305.859 228.538C306.197 228.493 306.542 228.519 306.87 228.615C307.198 228.711 307.502 228.874 307.763 229.094C308.025 229.314 308.237 229.586 308.388 229.893C308.538 230.2 308.622 230.535 308.636 230.876L308.988 240.064C309.01 240.678 308.8 241.278 308.402 241.746C308.003 242.213 307.443 242.515 306.834 242.59Z" fill="url(#paint23_linear_9_888)"/>
<path d="M305.458 241.067L298.273 241.987C297.819 242.046 297.359 241.936 296.981 241.679C296.602 241.423 296.33 241.036 296.218 240.592L294.503 233.784C294.439 233.527 294.43 233.26 294.477 233C294.524 232.74 294.625 232.492 294.775 232.274C294.924 232.056 295.118 231.873 295.344 231.735C295.57 231.598 295.822 231.51 296.085 231.477L304.717 230.372C304.975 230.338 305.236 230.359 305.485 230.432C305.734 230.505 305.965 230.629 306.164 230.796C306.362 230.963 306.524 231.17 306.638 231.403C306.752 231.636 306.816 231.89 306.827 232.149L307.096 239.144C307.113 239.611 306.954 240.068 306.651 240.424C306.348 240.78 305.922 241.009 305.458 241.067Z" fill="url(#paint24_linear_9_888)"/>
<path d="M299.844 168.669C302.07 177.877 302.13 186.874 301.791 190.155C301.73 190.754 301.46 191.311 301.028 191.73C300.596 192.148 300.03 192.401 299.43 192.443C298.023 192.541 296.106 192.671 294.395 192.769C292.512 192.879 290.423 191.689 289.026 190.695C288.873 190.586 288.689 190.532 288.501 190.541C288.314 190.549 288.135 190.62 287.993 190.742C287.851 190.864 287.753 191.03 287.716 191.214C287.679 191.398 287.704 191.588 287.788 191.756C288.475 193.099 289.666 194.156 290.85 195.055C291.562 195.596 293.927 196.558 293.762 197.622C293.688 197.955 293.524 198.263 293.29 198.512C291.974 200.089 289.986 200.931 288.028 201.533C287.774 201.587 287.54 201.707 287.348 201.881C287.3 203.15 291.204 204.56 292.213 204.895C293.721 205.409 295.323 205.595 296.909 205.44C300.838 205.027 304.466 202.315 306.582 199.045C312.239 190.304 315.164 179.751 316.229 171.675C310.966 166.41 303.022 167.743 299.844 168.669Z" fill="url(#paint25_linear_9_888)"/>
<path d="M316.229 172.497C320.426 140.793 295.994 116.415 295.994 116.415L281.458 133.362C292.493 147.118 297.739 159.723 300.136 169.623C303.314 168.704 310.966 167.235 316.229 172.497Z" fill="url(#paint26_linear_9_888)"/>
<path d="M299.797 169.474C299.595 169.475 299.399 169.407 299.239 169.282C299.08 169.157 298.968 168.982 298.92 168.786C295.966 156.581 289.74 144.498 280.414 132.875C280.265 132.689 280.195 132.451 280.221 132.213C280.247 131.976 280.367 131.759 280.553 131.609C280.739 131.46 280.977 131.391 281.215 131.417C281.452 131.443 281.669 131.562 281.819 131.748C291.31 143.588 297.653 155.899 300.674 168.362C300.702 168.477 300.707 168.596 300.689 168.713C300.671 168.83 300.63 168.942 300.568 169.042C300.506 169.143 300.425 169.231 300.33 169.301C300.234 169.37 300.126 169.42 300.011 169.448C299.941 169.465 299.869 169.474 299.797 169.474Z" fill="url(#paint27_linear_9_888)"/>
<path d="M102.918 357.421C102.923 357.263 102.907 357.106 102.871 356.952C100.532 347.684 88.9294 341.911 88.9294 341.911L84.331 342.271C81.6868 350.44 82.0274 355.451 82.4513 357.683C82.463 357.744 82.482 357.804 82.4995 357.866C86.2926 358.203 94.0994 358.422 102.918 357.421Z" fill="url(#paint28_linear_9_888)"/>
<path d="M82.4995 357.866C82.7041 358.61 83.2537 359.19 83.9612 359.339C89.3563 360.473 97.9319 359.56 101.533 359.089C102.327 358.985 102.907 358.251 102.921 357.421C94.0994 358.422 86.2926 358.203 82.4995 357.866Z" fill="url(#paint29_linear_9_888)"/>
<path d="M82.4819 335.423L84.4303 344.798C84.4855 345.121 84.6431 345.418 84.88 345.645C85.1169 345.872 85.4204 346.017 85.7459 346.058C86.7499 346.16 87.7624 346.144 88.7628 346.011C89.7669 345.865 90.4671 344.842 90.2888 343.747L88.9353 335.423H82.4819Z" fill="url(#paint30_linear_9_888)"/>
<path d="M122.832 357.746C117.754 357.6 115.127 357.006 113.769 356.451C113.769 356.956 113.769 357.474 113.785 358.003C113.803 358.572 114.224 359.026 114.741 359.026L142.624 358.846C143.514 358.846 144.035 357.809 143.647 356.993C139.993 357.29 130.681 357.966 122.832 357.746Z" fill="url(#paint31_linear_9_888)"/>
<path d="M143.649 356.988C143.619 356.915 143.581 356.845 143.538 356.778C141.076 353.337 134.804 346.486 122.412 343.515L116.466 343.326C116.466 343.326 113.819 347.928 113.769 356.451C115.127 357.006 117.754 357.604 122.832 357.746C130.681 357.966 139.993 357.29 143.649 356.988Z" fill="url(#paint32_linear_9_888)"/>
<path d="M115.099 334.597C115.193 335.036 116.429 341.707 116.909 344.292C116.952 344.58 117.091 344.845 117.303 345.044C117.515 345.244 117.788 345.365 118.078 345.39C119.101 345.447 120.739 345.454 122.151 345.07C122.912 344.864 123.424 344.088 123.37 343.225L122.704 332.674L115.099 334.597Z" fill="url(#paint33_linear_9_888)"/>
<path d="M110.594 211.426C110.594 211.426 118.78 267.623 124.675 334.499C124.784 335.744 123.798 336.828 122.568 337.085C120.765 337.465 118.115 337.917 115.921 337.855C115.352 337.836 114.808 337.621 114.38 337.246C113.952 336.871 113.667 336.36 113.573 335.799C111.563 324.007 97.2157 260.727 93.4504 246.8C93.4504 246.8 89.1253 305.96 90.508 336.652C90.5236 337.02 90.4001 337.379 90.1623 337.66C89.9244 337.94 89.5896 338.12 89.2246 338.165C87.4506 338.355 85.6611 338.35 83.8881 338.15C83.456 338.108 83.0507 337.922 82.7363 337.622C82.422 337.323 82.2167 336.927 82.153 336.497C80.7206 326.518 72.4782 267.12 72.829 224.332C72.848 221.919 75.6603 202.093 75.6603 202.093L110.594 211.426Z" fill="url(#paint34_linear_9_888)"/>
<path d="M74.4313 214.665C74.0197 214.517 73.6584 214.256 73.3896 213.911C73.1207 213.566 72.9553 213.152 72.9127 212.716C71.8252 202.165 66.5587 136.743 99.8076 109.832C99.8076 109.832 101.708 104.843 117.384 117.105C133.061 129.367 124.665 142.218 120.913 159.944C116.373 181.394 108.408 198.928 111.932 212.126C112.052 212.565 112.003 213.034 111.796 213.439C111.589 213.845 111.237 214.158 110.811 214.318C98.6338 218.809 86.5092 218.956 74.4313 214.665Z" fill="url(#paint35_linear_9_888)"/>
<path d="M112.771 90.2291C112.761 91.1602 99.4856 110.016 99.4856 110.016C99.4856 110.016 101.868 114.708 113.243 118.518L123.062 98.3297L112.771 90.2291Z" fill="url(#paint36_linear_9_888)"/>
<path d="M123.226 79.4259C123.226 79.4259 127.951 90.2759 128.268 95.9706C128.585 101.665 129.811 105.36 123.226 106.508C116.642 107.655 111.094 104.374 108.089 98.7011C108.089 98.7011 103.381 89.9602 104.435 86.3806C105.489 82.8009 123.226 79.4259 123.226 79.4259Z" fill="url(#paint37_linear_9_888)"/>
<path d="M110.334 94.6229L110.71 94.4578C110.823 94.4079 110.924 94.3355 111.008 94.2449C111.092 94.1544 111.157 94.0476 111.198 93.9312C111.239 93.8149 111.256 93.6913 111.247 93.5682C111.239 93.4451 111.205 93.325 111.149 93.2153C110.22 91.4218 108.409 87.3101 110.748 86.3454C113.762 85.1089 125.7 82.6752 128.275 78.4392C130.751 74.3684 128.557 69.1122 125.261 67.6228C125.156 67.5728 125.036 67.5649 124.926 67.6008C124.815 67.6367 124.723 67.7136 124.668 67.8157L124.393 68.3361C124.351 68.4145 124.286 68.4787 124.208 68.5204C124.129 68.5622 124.04 68.5796 123.951 68.5705C123.863 68.5614 123.779 68.5262 123.711 68.4694C123.642 68.4125 123.592 68.3366 123.567 68.2513C123.546 68.1663 123.5 68.0895 123.436 68.0307C123.371 67.972 123.29 67.9339 123.203 67.9215C123.117 67.9091 123.028 67.9229 122.95 67.9611C122.871 67.9993 122.805 68.0601 122.762 68.1358C121.969 69.4031 119.838 71.4568 114.116 72.5121C105.993 74.0118 100.622 77.2991 100.489 82.9134C100.487 82.9934 100.464 83.0716 100.422 83.1399C100.381 83.2081 100.321 83.2639 100.251 83.3015C100.18 83.3391 100.1 83.357 100.02 83.3536C99.9404 83.3501 99.8628 83.3253 99.7957 83.2818C99.1964 82.9163 98.2361 82.7453 96.9527 83.824C94.7222 85.6994 95.6372 90.5653 100.527 94.5688C100.583 94.6111 100.628 94.6662 100.658 94.7295C100.689 94.7928 100.703 94.8624 100.701 94.9326C100.699 95.0028 100.68 95.0715 100.646 95.1328C100.612 95.1941 100.563 95.2464 100.505 95.2851C99.6174 95.8697 98.296 97.2364 101.721 99.0664C105.264 100.967 107.909 100.804 108.927 100.636C108.987 100.627 109.045 100.606 109.097 100.574C109.148 100.541 109.193 100.498 109.227 100.447C109.261 100.397 109.284 100.34 109.295 100.279C109.306 100.219 109.304 100.158 109.289 100.098L108.202 95.1652C108.187 95.0997 108.188 95.0318 108.203 94.9665C108.218 94.9012 108.248 94.8402 108.29 94.788C108.332 94.7357 108.386 94.6937 108.446 94.6649C108.507 94.636 108.573 94.6212 108.64 94.6215L110.334 94.6229Z" fill="url(#paint38_linear_9_888)"/>
<path d="M110.539 95.6637C110.539 95.6637 108.738 88.7324 105.631 90.6764C102.523 92.6205 107.239 98.4423 109.741 98.7011L110.539 95.6637Z" fill="url(#paint39_linear_9_888)"/>
<path d="M122.421 122.8L123.336 147.381C125.771 148.225 128.252 148.93 130.767 149.491C132.242 144.745 135.488 138.921 138.146 134.582C128.38 131.131 122.421 122.8 122.421 122.8Z" fill="url(#paint40_linear_9_888)"/>
<path d="M171.178 122.376C157.782 136.846 146.939 137.691 138.144 134.584C135.487 138.915 132.24 144.74 130.766 149.493C166.54 157.386 174.965 124.498 174.965 124.498L171.178 122.376Z" fill="url(#paint41_linear_9_888)"/>
<path d="M173.894 120.84C173.894 120.84 175.438 119.184 178.294 119.704C181.15 120.224 183.692 121.217 185.472 119.704C187.252 118.191 187.876 120.221 187.876 120.221L182.549 124.272L173.894 120.84Z" fill="url(#paint42_linear_9_888)"/>
<path d="M170.708 123.677C170.708 123.677 171.765 119.257 174.947 119.862C178.129 120.467 185.367 124.402 187.232 123.677C189.097 122.952 191.48 121.218 192.703 121.831L190.549 124.51C190.549 124.51 196.087 121.315 197.04 123.278L187.831 128.464C187.831 128.464 174.347 127.109 170.708 123.677Z" fill="url(#paint43_linear_9_888)"/>
<path d="M107.55 154.965C107.55 154.965 132.736 176.059 159.932 166.855C160.765 166.569 161.647 166.456 162.524 166.522C163.402 166.588 164.257 166.832 165.038 167.239L172.856 171.37C174.437 172.204 176.277 172.4 177.998 171.919C179.719 171.437 181.19 170.313 182.107 168.78C183.193 166.961 184.12 164.887 184.3 162.898L169.005 156.711L170.133 154.835C170.133 154.835 162.664 154.202 160.708 159.555C160.708 159.555 146.482 165.473 122.487 139.081C122.487 139.076 111.599 148.334 107.55 154.965Z" fill="url(#paint44_linear_9_888)"/>
<path d="M106.195 154.748C106.109 154.748 106.024 154.722 105.954 154.673C95.3491 147.511 90.3604 135.945 90.3136 135.828C90.2894 135.775 90.276 135.718 90.2741 135.661C90.2723 135.603 90.2821 135.545 90.3029 135.491C90.3238 135.438 90.3552 135.388 90.3954 135.347C90.4356 135.305 90.4837 135.272 90.5369 135.25C90.5902 135.227 90.6473 135.216 90.7051 135.216C90.7629 135.216 90.8201 135.227 90.8733 135.25C90.9265 135.272 90.9746 135.305 91.0148 135.347C91.055 135.388 91.0865 135.438 91.1073 135.491C91.1555 135.604 96.0522 146.941 106.439 153.96C106.515 154.012 106.573 154.086 106.603 154.173C106.634 154.26 106.636 154.355 106.609 154.443C106.582 154.531 106.527 154.608 106.453 154.663C106.379 154.718 106.29 154.747 106.198 154.748H106.195Z" fill="url(#paint45_linear_9_888)"/>
<path d="M121.99 138.719C121.918 138.718 121.847 138.7 121.784 138.665C121.72 138.63 121.667 138.58 121.627 138.52C121.595 138.47 118.356 133.428 112.185 122.379C110.285 118.98 107.8 116.824 104.773 115.984C99.7708 114.587 94.9487 117.269 94.902 117.299C94.8051 117.333 94.6993 117.332 94.6032 117.296C94.507 117.26 94.4266 117.192 94.3758 117.103C94.325 117.013 94.3071 116.909 94.3253 116.808C94.3434 116.707 94.3965 116.616 94.4752 116.55C94.6842 116.433 99.6422 113.658 104.999 115.157C108.253 116.064 110.925 118.353 112.939 121.962C119.094 132.983 122.322 138.008 122.354 138.058C122.396 138.123 122.42 138.199 122.422 138.276C122.425 138.354 122.407 138.43 122.37 138.498C122.333 138.566 122.278 138.623 122.212 138.663C122.145 138.702 122.069 138.723 121.991 138.723L121.99 138.719Z" fill="url(#paint46_linear_9_888)"/>
</g>
<defs>
<linearGradient id="paint0_linear_9_888" x1="496.003" y1="810.332" x2="154.221" y2="-344.653" gradientUnits="userSpaceOnUse">
<stop stop-color="#4F52FF"/>
<stop offset="1" stop-color="#4042E2"/>
</linearGradient>
<linearGradient id="paint1_linear_9_888" x1="259.738" y1="575.267" x2="-77.9973" y2="-566.039" gradientUnits="userSpaceOnUse">
<stop stop-color="#4F52FF"/>
<stop offset="1" stop-color="#4042E2"/>
</linearGradient>
<linearGradient id="paint2_linear_9_888" x1="166.885" y1="166.201" x2="171.644" y2="164.551" gradientUnits="userSpaceOnUse">
<stop stop-color="#FEBBBA"/>
<stop offset="1" stop-color="#FF928E"/>
</linearGradient>
<linearGradient id="paint3_linear_9_888" x1="200.764" y1="175.069" x2="270.078" y2="99.5138" gradientUnits="userSpaceOnUse">
<stop stop-color="#09005D"/>
<stop offset="1" stop-color="#1A0F91"/>
</linearGradient>
<linearGradient id="paint4_linear_9_888" x1="232.406" y1="204.095" x2="301.719" y2="128.541" gradientUnits="userSpaceOnUse">
<stop stop-color="#09005D"/>
<stop offset="1" stop-color="#1A0F91"/>
</linearGradient>
<linearGradient id="paint5_linear_9_888" x1="268.095" y1="122.338" x2="261.01" y2="101.086" gradientUnits="userSpaceOnUse">
<stop stop-color="#FEBBBA"/>
<stop offset="1" stop-color="#FF928E"/>
</linearGradient>
<linearGradient id="paint6_linear_9_888" x1="248.131" y1="86.0093" x2="273.592" y2="97.0785" gradientUnits="userSpaceOnUse">
<stop stop-color="#FEBBBA"/>
<stop offset="1" stop-color="#FF928E"/>
</linearGradient>
<linearGradient id="paint7_linear_9_888" x1="261.61" y1="103.624" x2="240.624" y2="81.421" gradientUnits="userSpaceOnUse">
<stop stop-color="#09005D"/>
<stop offset="1" stop-color="#1A0F91"/>
</linearGradient>
<linearGradient id="paint8_linear_9_888" x1="246.545" y1="89.6591" x2="272.005" y2="100.728" gradientUnits="userSpaceOnUse">
<stop stop-color="#FEBBBA"/>
<stop offset="1" stop-color="#FF928E"/>
</linearGradient>
<linearGradient id="paint9_linear_9_888" x1="296.481" y1="358.354" x2="264.838" y2="358.354" gradientUnits="userSpaceOnUse">
<stop stop-color="#4F52FF"/>
<stop offset="1" stop-color="#4042E2"/>
</linearGradient>
<linearGradient id="paint10_linear_9_888" x1="372.853" y1="328.75" x2="258.282" y2="361.406" gradientUnits="userSpaceOnUse">
<stop stop-color="#09005D"/>
<stop offset="1" stop-color="#1A0F91"/>
</linearGradient>
<linearGradient id="paint11_linear_9_888" x1="293.559" y1="343.494" x2="284.647" y2="343.494" gradientUnits="userSpaceOnUse">
<stop stop-color="#FEBBBA"/>
<stop offset="1" stop-color="#FF928E"/>
</linearGradient>
<linearGradient id="paint12_linear_9_888" x1="359.561" y1="357.671" x2="347.435" y2="357.671" gradientUnits="userSpaceOnUse">
<stop stop-color="#4F52FF"/>
<stop offset="1" stop-color="#4042E2"/>
</linearGradient>
<linearGradient id="paint13_linear_9_888" x1="308.982" y1="322.113" x2="380.381" y2="368.606" gradientUnits="userSpaceOnUse">
<stop stop-color="#09005D"/>
<stop offset="1" stop-color="#1A0F91"/>
</linearGradient>
<linearGradient id="paint14_linear_9_888" x1="350.221" y1="336.065" x2="339.57" y2="336.065" gradientUnits="userSpaceOnUse">
<stop stop-color="#FEBBBA"/>
<stop offset="1" stop-color="#FF928E"/>
</linearGradient>
<linearGradient id="paint15_linear_9_888" x1="351.724" y1="351.705" x2="189.189" y2="126.992" gradientUnits="userSpaceOnUse">
<stop stop-color="#09005D"/>
<stop offset="1" stop-color="#1A0F91"/>
</linearGradient>
<linearGradient id="paint16_linear_9_888" x1="296.05" y1="203.172" x2="299.992" y2="231.752" gradientUnits="userSpaceOnUse">
<stop stop-color="#E1473D"/>
<stop offset="1" stop-color="#E9605A"/>
</linearGradient>
<linearGradient id="paint17_linear_9_888" x1="282.722" y1="215.305" x2="280.934" y2="204.794" gradientUnits="userSpaceOnUse">
<stop stop-color="#E1473D"/>
<stop offset="1" stop-color="#E9605A"/>
</linearGradient>
<linearGradient id="paint18_linear_9_888" x1="280.139" y1="199.513" x2="286.197" y2="229.513" gradientUnits="userSpaceOnUse">
<stop stop-color="#E1473D"/>
<stop offset="1" stop-color="#E9605A"/>
</linearGradient>
<linearGradient id="paint19_linear_9_888" x1="312.003" y1="210.322" x2="310.213" y2="199.811" gradientUnits="userSpaceOnUse">
<stop stop-color="#E1473D"/>
<stop offset="1" stop-color="#E9605A"/>
</linearGradient>
<linearGradient id="paint20_linear_9_888" x1="309.225" y1="193.641" x2="315.283" y2="223.643" gradientUnits="userSpaceOnUse">
<stop stop-color="#E1473D"/>
<stop offset="1" stop-color="#E9605A"/>
</linearGradient>
<linearGradient id="paint21_linear_9_888" x1="295.244" y1="180.447" x2="295.067" y2="202.387" gradientUnits="userSpaceOnUse">
<stop stop-color="#FF928E"/>
<stop offset="1" stop-color="#FE7062"/>
</linearGradient>
<linearGradient id="paint22_linear_9_888" x1="299.093" y1="259.801" x2="298.764" y2="222.024" gradientUnits="userSpaceOnUse">
<stop stop-color="#FF928E"/>
<stop offset="1" stop-color="#FE7062"/>
</linearGradient>
<linearGradient id="paint23_linear_9_888" x1="298.442" y1="246.643" x2="302.055" y2="229.891" gradientUnits="userSpaceOnUse">
<stop stop-color="#E1473D"/>
<stop offset="1" stop-color="#E9605A"/>
</linearGradient>
<linearGradient id="paint24_linear_9_888" x1="294.934" y1="237.021" x2="307.285" y2="235.438" gradientUnits="userSpaceOnUse">
<stop stop-color="#FF928E"/>
<stop offset="1" stop-color="#FE7062"/>
</linearGradient>
<linearGradient id="paint25_linear_9_888" x1="308.341" y1="173.814" x2="284.22" y2="220.199" gradientUnits="userSpaceOnUse">
<stop stop-color="#FEBBBA"/>
<stop offset="1" stop-color="#FF928E"/>
</linearGradient>
<linearGradient id="paint26_linear_9_888" x1="242.722" y1="213.56" x2="312.034" y2="138.004" gradientUnits="userSpaceOnUse">
<stop stop-color="#09005D"/>
<stop offset="1" stop-color="#1A0F91"/>
</linearGradient>
<linearGradient id="paint27_linear_9_888" x1="293.094" y1="140.034" x2="309.19" y2="76.6326" gradientUnits="userSpaceOnUse">
<stop stop-color="#09005D"/>
<stop offset="1" stop-color="#1A0F91"/>
</linearGradient>
<linearGradient id="paint28_linear_9_888" x1="82.1604" y1="350.031" x2="102.918" y2="350.031" gradientUnits="userSpaceOnUse">
<stop stop-color="#09005D"/>
<stop offset="1" stop-color="#1A0F91"/>
</linearGradient>
<linearGradient id="paint29_linear_9_888" x1="134.126" y1="325.543" x2="58.6094" y2="384.838" gradientUnits="userSpaceOnUse">
<stop stop-color="#4F52FF"/>
<stop offset="1" stop-color="#4042E2"/>
</linearGradient>
<linearGradient id="paint30_linear_9_888" x1="87.934" y1="326.4" x2="83.9685" y2="361.002" gradientUnits="userSpaceOnUse">
<stop stop-color="#FEBBBA"/>
<stop offset="1" stop-color="#FF928E"/>
</linearGradient>
<linearGradient id="paint31_linear_9_888" x1="147.54" y1="342.603" x2="72.0256" y2="401.897" gradientUnits="userSpaceOnUse">
<stop stop-color="#4F52FF"/>
<stop offset="1" stop-color="#4042E2"/>
</linearGradient>
<linearGradient id="paint32_linear_9_888" x1="113.769" y1="350.559" x2="143.649" y2="350.559" gradientUnits="userSpaceOnUse">
<stop stop-color="#09005D"/>
<stop offset="1" stop-color="#1A0F91"/>
</linearGradient>
<linearGradient id="paint33_linear_9_888" x1="119.719" y1="330.06" x2="117.941" y2="364.847" gradientUnits="userSpaceOnUse">
<stop stop-color="#FEBBBA"/>
<stop offset="1" stop-color="#FF928E"/>
</linearGradient>
<linearGradient id="paint34_linear_9_888" x1="121.841" y1="199.971" x2="55.6353" y2="409.508" gradientUnits="userSpaceOnUse">
<stop stop-color="#09005D"/>
<stop offset="1" stop-color="#1A0F91"/>
</linearGradient>
<linearGradient id="paint35_linear_9_888" x1="60.5688" y1="216.284" x2="135.796" y2="123.975" gradientUnits="userSpaceOnUse">
<stop stop-color="#FF928E"/>
<stop offset="1" stop-color="#FE7062"/>
</linearGradient>
<linearGradient id="paint36_linear_9_888" x1="95.4733" y1="114.81" x2="123.067" y2="98.3853" gradientUnits="userSpaceOnUse">
<stop stop-color="#FEBBBA"/>
<stop offset="1" stop-color="#FF928E"/>
</linearGradient>
<linearGradient id="paint37_linear_9_888" x1="125.575" y1="103.739" x2="109.471" y2="80.0749" gradientUnits="userSpaceOnUse">
<stop stop-color="#FEBBBA"/>
<stop offset="1" stop-color="#FF928E"/>
</linearGradient>
<linearGradient id="paint38_linear_9_888" x1="95.7308" y1="62.5098" x2="118.499" y2="89.1767" gradientUnits="userSpaceOnUse">
<stop stop-color="#09005D"/>
<stop offset="1" stop-color="#1A0F91"/>
</linearGradient>
<linearGradient id="paint39_linear_9_888" x1="117.761" y1="109.057" x2="101.664" y2="85.4042" gradientUnits="userSpaceOnUse">
<stop stop-color="#FEBBBA"/>
<stop offset="1" stop-color="#FF928E"/>
</linearGradient>
<linearGradient id="paint40_linear_9_888" x1="97.4013" y1="176.072" x2="132.223" y2="128.44" gradientUnits="userSpaceOnUse">
<stop stop-color="#FF928E"/>
<stop offset="1" stop-color="#FE7062"/>
</linearGradient>
<linearGradient id="paint41_linear_9_888" x1="188.863" y1="120.31" x2="130.935" y2="149.128" gradientUnits="userSpaceOnUse">
<stop stop-color="#FEBBBA"/>
<stop offset="1" stop-color="#FF928E"/>
</linearGradient>
<linearGradient id="paint42_linear_9_888" x1="188.015" y1="113.084" x2="168.201" y2="133.778" gradientUnits="userSpaceOnUse">
<stop stop-color="#FEBBBA"/>
<stop offset="1" stop-color="#FF928E"/>
</linearGradient>
<linearGradient id="paint43_linear_9_888" x1="189.14" y1="119.97" x2="131.21" y2="148.785" gradientUnits="userSpaceOnUse">
<stop stop-color="#FEBBBA"/>
<stop offset="1" stop-color="#FF928E"/>
</linearGradient>
<linearGradient id="paint44_linear_9_888" x1="213.346" y1="168.863" x2="45.2326" y2="138.463" gradientUnits="userSpaceOnUse">
<stop stop-color="#FEBBBA"/>
<stop offset="1" stop-color="#FF928E"/>
</linearGradient>
<linearGradient id="paint45_linear_9_888" x1="130.978" y1="95.133" x2="57.461" y2="207.815" gradientUnits="userSpaceOnUse">
<stop stop-color="#E1473D"/>
<stop offset="1" stop-color="#E9605A"/>
</linearGradient>
<linearGradient id="paint46_linear_9_888" x1="129.957" y1="94.468" x2="56.4408" y2="207.15" gradientUnits="userSpaceOnUse">
<stop stop-color="#E1473D"/>
<stop offset="1" stop-color="#E9605A"/>
</linearGradient>
</defs>
</svg>
